<svg width="1182" height="573" viewBox="0 0 1182 573" fill="none" xmlns="http://www.w3.org/2000/svg">
<path fill-rule="evenodd" clip-rule="evenodd" d="M81 498.394L83.6302 494.108L94.8698 500.212V488H100.13V500.212L111.37 494.108L114 498.394L102.76 504.502L114 510.606L111.37 514.892L100.13 508.788V521H94.8698V508.788L83.6302 514.892L81 510.606L92.2396 504.502L81 498.394Z" fill="#FFD6D6"/>
<path fill-rule="evenodd" clip-rule="evenodd" d="M100.215 491H105.785V498.958L113.17 494.989L116 499.553L108.66 503.501L116 507.446L113.17 512.011L105.785 508.042V516H100.215V508.042L92.8304 512.011L90 507.446L97.3396 503.501L90.0001 499.553L92.8304 494.989L100.215 498.958V491ZM102.053 492.822V502.019L93.4846 497.413L92.5819 498.869L101.194 503.502L92.582 508.131L93.4846 509.587L102.053 504.981V514.178H103.947V504.981L112.515 509.587L113.418 508.131L104.806 503.502L113.418 498.869L112.515 497.413L103.947 502.019V492.822H102.053Z" fill="#828EF8"/>
<path opacity="0.7" d="M234.85 160.001C122.85 132.801 31.9016 197.615 13.3501 255.001C-24.1499 371 28.3502 467 108.85 489.001C176.408 507.464 247.629 416.339 325.85 454.001C501.35 538.5 657.85 512.001 684.85 405.001C711.85 298.001 645.85 269.5 569.85 239.5C493.85 209.5 465.85 255.001 421.85 255.001C380.546 255.001 374.85 194.001 234.85 160.001Z" fill="#F1F5FF"/>
<path fill-rule="evenodd" clip-rule="evenodd" d="M542.002 551V554.3H546.402V569.7H542.002V573H549.702V551H542.002Z" fill="#FE91D2"/>
<path d="M339.157 98C273.747 98.0002 213 137.345 213 167.849C213 222.536 266.397 212.718 309.555 227.336C357.993 243.743 424.278 283.851 443.838 233.367C463.467 162.143 426.806 97.9997 339.157 98Z" fill="#D9F0FF" fill-opacity="0.5"/>
<path fill-rule="evenodd" clip-rule="evenodd" d="M385.569 95.1234C383.062 94.8975 381.722 93.2759 381.722 90.3004V85.1897C381.722 82.2133 380.866 81.1869 377.796 81.1869H377V77H378.943C384.287 77 386.929 78.971 386.929 84.4511V88.7405C386.929 91.5109 387.493 92.7841 390 92.7841V98.0382C387.493 98.0382 386.929 99.3104 386.929 102.082V105.735C386.929 111.173 384.287 113 378.943 113H377V108.834H377.796C380.866 108.834 381.722 107.808 381.722 104.831V100.193C381.722 97.2169 383.062 95.9447 385.569 95.6978V95.1234Z" fill="#8BF7E2"/>
</svg>
