<svg width="96" height="32" viewBox="0 0 96 32" fill="none" xmlns="http://www.w3.org/2000/svg">
<path d="M3.40792 20.2837C3.65824 20.9298 4.00479 21.4823 4.44765 21.941C4.89051 22.3999 5.41517 22.751 6.02163 22.9944C6.62815 23.2379 7.28759 23.3596 8 23.3596C8.69318 23.3596 9.34296 23.2332 9.94948 22.9803C10.556 22.7275 11.0855 22.3717 11.5379 21.9129C11.9904 21.4541 12.3418 20.9064 12.5921 20.2697C12.8424 19.633 12.9675 18.9214 12.9675 18.1349V6H16V25.6629H12.9964V23.8371C12.3225 24.5299 11.5283 25.0636 10.6137 25.4382C9.6991 25.8127 8.71241 26 7.65344 26C6.57518 26 5.56919 25.8174 4.63534 25.4522C3.70156 25.0871 2.89285 24.5675 2.20938 23.8933C1.52592 23.2191 0.986756 22.4093 0.592079 21.4635C0.197338 20.5178 0 19.4645 0 18.3034V6H3.03248V18.1349C3.03248 18.9214 3.15761 19.6376 3.40792 20.2837Z" fill="#000203"/>
<path d="M20.9382 6V13.1629C21.6169 12.5075 22.4025 11.9879 23.2946 11.604C24.1867 11.22 25.1564 11.0281 26.2036 11.0281C27.2897 11.0281 28.3078 11.2247 29.2582 11.6179C30.2085 12.0112 31.0327 12.5449 31.7309 13.2191C32.4291 13.8933 32.9819 14.6892 33.3891 15.6067C33.7964 16.5244 34 17.4982 34 18.5282C34 19.5581 33.7964 20.5272 33.3891 21.4354C32.9819 22.3437 32.4291 23.1349 31.7309 23.809C31.0327 24.4832 30.2085 25.0169 29.2582 25.4101C28.3078 25.8034 27.2897 26 26.2036 26C25.1563 26 24.1818 25.8081 23.28 25.4241C22.3782 25.0403 21.5879 24.5206 20.9091 23.8652V25.6629H18V6H20.9382ZM21.2727 20.4663C21.5345 21.0656 21.8982 21.59 22.3636 22.0394C22.8291 22.4889 23.3721 22.8447 23.9927 23.1069C24.6134 23.369 25.2824 23.5001 26 23.5001C26.6983 23.5001 27.3576 23.369 27.9782 23.1069C28.5988 22.8447 29.1369 22.4889 29.5928 22.0394C30.0485 21.59 30.4121 21.0656 30.6837 20.4663C30.9552 19.8671 31.0909 19.2211 31.0909 18.5282C31.0909 17.8353 30.9552 17.1845 30.6837 16.5759C30.4121 15.9672 30.0485 15.4382 29.5928 14.9888C29.137 14.5394 28.5988 14.1882 27.9782 13.9355C27.3575 13.6827 26.6982 13.5562 26 13.5562C25.3019 13.5562 24.6425 13.6826 24.0219 13.9355C23.4013 14.1883 22.8583 14.5394 22.3927 14.9888C21.9273 15.4382 21.5588 15.9672 21.2873 16.5759C21.0158 17.1845 20.88 17.8353 20.88 18.5282C20.88 19.2211 21.0109 19.8671 21.2727 20.4663Z" fill="#000203"/>
<path d="M35.5415 15.6045C35.9025 14.7005 36.3991 13.9049 37.0308 13.2175C37.6626 12.5301 38.4119 11.9887 39.2785 11.5932C40.145 11.1977 41.0838 11 42.0947 11C43.0877 11 44.0084 11.1883 44.8569 11.5649C45.7053 11.9416 46.4365 12.4642 47.0503 13.1328C47.6641 13.8013 48.1426 14.5923 48.4855 15.5056C48.8285 16.419 49 17.4125 49 18.4859V19.4182H37.762C37.8523 20.002 38.0329 20.5434 38.3036 21.0424C38.5745 21.5414 38.9129 21.9746 39.3191 22.3418C39.7253 22.7091 40.1856 22.9963 40.7002 23.2034C41.2147 23.4106 41.7607 23.5142 42.3385 23.5142C43.9813 23.5142 45.3083 22.8079 46.3192 21.3955L48.296 22.9209C47.61 23.8814 46.7615 24.6347 45.7506 25.1808C44.7396 25.7269 43.6022 26 42.3385 26C41.3095 26 40.3482 25.8116 39.4546 25.435C38.5609 25.0584 37.7847 24.531 37.1258 23.853C36.4668 23.175 35.9478 22.3794 35.5687 21.466C35.1896 20.5527 35 19.5592 35 18.4858C34.9999 17.4689 35.1805 16.5084 35.5415 15.6045ZM39.3462 14.4886C38.5789 15.1572 38.0689 16.047 37.8162 17.1581H46.238C46.0033 16.047 45.5023 15.1572 44.735 14.4886C43.9677 13.8201 43.0696 13.4858 42.0406 13.4858C41.0116 13.4858 40.1134 13.8201 39.3462 14.4886Z" fill="#000203"/>
<path d="M55.1401 14.7646C54.4761 15.4455 54.144 16.3696 54.144 17.537V26H51V11.1168H54.1128V12.9553C54.5071 12.3522 55.0208 11.8755 55.6537 11.5254C56.2866 11.1751 57.0389 11 57.9106 11H59V13.7432H57.6926C56.655 13.7432 55.8042 14.0837 55.1401 14.7646Z" fill="#000203"/>
</svg>
