<svg width="195" height="32" viewBox="0 0 195 32" fill="none" xmlns="http://www.w3.org/2000/svg">
<path d="M50.9502 10.9569L48.5136 16.6458H53.4082L50.9502 10.9569ZM58.4036 22.2905H55.7643L54.322 18.8596H47.5986L46.1361 22.2905H43.5774L49.8338 7.97157H52.1471L58.4036 22.2905Z" fill="#0E0D0F"/>
<path d="M81.455 22.2849H78.9353V10.3824H74.4258V8.06664H86.1659L85.198 10.3824H81.455V22.2849Z" fill="#0E0D0F"/>
<path d="M129.285 10.3822H121.671V13.9981H126.548V16.2346H121.671V20.0129H129.289V22.2847H119.156V8.0664H129.285V10.3822Z" fill="#0E0D0F"/>
<path d="M147.138 22.2856H144.755V8.06738H147.138V22.2856Z" fill="#0E0D0F"/>
<path d="M137.008 10.1183C135.555 10.1183 134.32 10.5576 134.314 11.5216C134.307 12.6506 135.015 13.042 137.69 13.9117C140.645 14.8833 142.214 15.8713 142.198 18.2752C142.183 20.985 140.089 22.5305 137.03 22.5305C134.865 22.5305 132.925 21.8282 131.445 20.5268L132.366 18.2966C133.709 19.4218 135.336 20.2197 137.094 20.2273C138.634 20.2349 139.729 19.486 139.729 18.3772C139.729 17.4496 139.192 16.8329 136.598 16.011C133.623 15.0356 131.826 14.0187 131.841 11.5959C131.859 9.18571 134.119 7.81511 136.961 7.82895C139.804 7.84279 141.405 8.88239 141.648 9.02335L140.754 11.0509C140.174 10.7375 138.902 10.1183 137.008 10.1183Z" fill="#0E0D0F"/>
<path d="M150.209 14.9495L156.573 8.06632H153.524L147.138 14.9495L154.156 22.2871H157.247L150.209 14.9495Z" fill="#0E0D0F"/>
<path d="M93.8673 20.2359C91.0733 20.2359 89.0331 17.9717 89.0331 15.1776C89.0331 12.3835 91.0733 10.1181 93.8673 10.1181C96.6614 10.1181 98.7028 12.3835 98.7028 15.1776C98.7028 17.9717 96.6614 20.2359 93.8673 20.2359ZM93.8673 7.82241C89.8059 7.82241 86.5146 11.1161 86.5146 15.1776C86.5146 19.2391 89.8059 22.5303 93.8673 22.5303C97.9275 22.5303 101.221 19.2391 101.221 15.1776C101.221 11.1161 97.9275 7.82241 93.8673 7.82241Z" fill="#0E0D0F"/>
<path d="M109.246 20.0101L106.374 20.0126V10.3844H109.258C112.05 10.3844 114.081 12.3642 114.081 15.157C114.081 17.9498 112.038 20.0101 109.246 20.0101ZM109.246 8.06738H103.852V22.2856L109.246 22.2844C113.305 22.2844 116.598 19.2172 116.598 15.157C116.598 11.0955 113.305 8.06738 109.246 8.06738Z" fill="#0E0D0F"/>
<path d="M71.6798 15.9811C71.6798 20.22 69.1929 22.5056 65.5857 22.5056C61.9799 22.5056 59.4929 20.22 59.4929 15.9811V8.06332H62.0114V16.2806C62.0114 18.7676 63.4713 20.2276 65.5857 20.2276C67.7027 20.2276 69.1627 18.7676 69.1627 16.2806V8.06332H71.6798V15.9811Z" fill="#0E0D0F"/>
<path d="M17.8273 28.6055C17.1272 28.6055 16.7633 28.3414 16.414 27.7278L13.2234 21.8133C13.0035 21.3894 13 21.2483 13 20.9429L18.0145 21.1639L19.1622 22.3116H29.2205L20.869 27.4852C20.4619 27.726 18.9137 28.6055 17.8273 28.6055Z" fill="url(#paint0_linear)"/>
<path d="M19.1668 22.3115H14.8293C13.5193 22.3115 13 21.6263 13 20.9428C13 20.5103 13.1392 20.2744 13.3316 19.7937L19.6526 4.70383L19.7206 4.57142L19.8081 4.43556L19.99 4.25825L20.2571 4.11547L20.644 4.03027L21.3095 4.04754L25.702 5.68019L24.2167 10.364L19.1668 22.3115Z" fill="url(#paint1_linear)"/>
<path fill-rule="evenodd" clip-rule="evenodd" d="M31.9027 28.6044L21.9254 4.98465C21.7535 4.58247 21.478 4.06356 20.7648 4.06356C20.1276 4.06356 19.824 4.37211 19.6526 4.70373C19.7412 4.46458 20.0095 4 20.7869 4H27.673C28.3076 4 28.6121 4.37365 28.7508 4.71576L38.8404 28.6044H31.9027Z" fill="url(#paint2_linear)"/>
<defs>
<linearGradient id="paint0_linear" x1="15.0952" y1="25.2933" x2="29.1693" y2="22.4891" gradientUnits="userSpaceOnUse">
<stop stop-color="#2B7A77"/>
<stop offset="0.510487" stop-color="#4EBAA9"/>
<stop offset="1" stop-color="#5CC2B1"/>
</linearGradient>
<linearGradient id="paint1_linear" x1="22.3439" y1="5.92817" x2="15.3598" y2="22.3303" gradientUnits="userSpaceOnUse">
<stop stop-color="#236736"/>
<stop offset="0.4928" stop-color="#6BA443"/>
<stop offset="1" stop-color="#86C146"/>
</linearGradient>
<linearGradient id="paint2_linear" x1="25.0423" y1="4.07621" x2="35.3068" y2="28.5207" gradientUnits="userSpaceOnUse">
<stop stop-color="#29A5E3"/>
<stop offset="0.515493" stop-color="#356EB9"/>
<stop offset="1" stop-color="#394DA5"/>
</linearGradient>
</defs>
</svg>
