<svg width="1050" height="483" viewBox="0 0 1050 483" fill="none" xmlns="http://www.w3.org/2000/svg">
<path opacity="0.7" d="M233.85 138.001C121.85 110.801 30.9016 175.615 12.3501 233.001C-25.1499 349 27.3502 445 107.85 467.001C175.408 485.464 246.629 394.339 324.85 432.001C500.35 516.5 656.85 490.001 683.85 383.001C710.85 276.001 644.85 247.5 568.85 217.5C492.85 187.5 464.85 233.001 420.85 233.001C379.546 233.001 373.85 172.001 233.85 138.001Z" fill="#F1F5FF"/>
<path fill-rule="evenodd" clip-rule="evenodd" d="M331.73 462.969C331.288 462.687 330.722 462.545 330.048 462.545C329.187 462.545 328.375 462.754 327.629 463.171C327.234 463.393 326.846 463.678 326.47 464.023V463.685C326.47 463.386 326.346 463.134 326.133 462.982C325.95 462.842 325.716 462.773 325.417 462.773H323.197C322.814 462.773 322.506 462.873 322.272 463.074C322.106 463.221 321.908 463.495 321.908 463.961C321.908 464.512 322.162 464.795 322.387 464.943C322.568 465.054 322.882 465.169 323.84 465.169H323.984V470.36H322.804C322.403 470.36 322.083 470.456 321.852 470.646C321.677 470.794 321.469 471.067 321.469 471.544C321.469 472.011 321.665 472.291 321.843 472.456C322.073 472.654 322.381 472.756 322.758 472.756H329.132C329.567 472.756 329.883 472.667 330.115 472.471C330.337 472.265 330.45 471.954 330.45 471.544C330.45 471.069 330.257 470.797 330.094 470.651C329.876 470.457 329.573 470.36 329.192 470.36H326.47V467.053C327.067 466.39 327.615 465.897 328.1 465.587C328.572 465.285 329.019 465.131 329.426 465.131C329.611 465.131 329.852 465.21 330.126 465.363C330.582 465.614 330.882 465.72 331.131 465.72C331.488 465.72 331.821 465.569 332.089 465.289C332.361 465.012 332.505 464.671 332.505 464.299C332.505 463.923 332.371 463.386 331.73 462.969Z" fill="#04D3AB"/>
<path fill-rule="evenodd" clip-rule="evenodd" d="M341.343 466.412H336.364C336.543 466.024 336.796 465.708 337.127 465.454C337.636 465.069 338.249 464.882 339.001 464.882C339.675 464.882 340.224 465.072 340.683 465.46C340.99 465.722 341.209 466.037 341.343 466.412ZM343.856 468.408C344.142 468.181 344.28 467.813 344.28 467.284C344.28 465.963 343.768 464.825 342.759 463.902C341.759 462.989 340.495 462.525 339 462.525C337.353 462.525 335.994 463.019 334.958 463.992C333.913 464.975 333.382 466.267 333.382 467.834C333.382 469.375 333.887 470.636 334.879 471.58C335.864 472.522 337.182 473 338.795 473C339.508 473 340.241 472.91 340.974 472.735C341.687 472.566 342.399 472.311 343.101 471.975C343.461 471.796 343.724 471.609 343.912 471.398C344.131 471.146 344.242 470.861 344.242 470.55C344.242 470.222 344.118 469.935 343.889 469.723C343.666 469.509 343.374 469.395 343.044 469.395C342.833 469.395 342.464 469.475 341.204 470.047C339.288 470.904 337.75 470.724 336.889 469.976C336.528 469.655 336.294 469.238 336.182 468.708H342.293C343.147 468.708 343.603 468.62 343.856 468.408Z" fill="#04D3AB"/>
<path fill-rule="evenodd" clip-rule="evenodd" d="M355.167 469.488C354.959 469.488 354.606 469.556 353.436 470.042C352.681 470.354 352.033 470.514 351.509 470.514C351.165 470.514 350.708 470.46 350.495 470.198C350.404 470.089 350.194 469.698 350.194 468.432V465.709H353.628C354.027 465.709 354.346 465.61 354.575 465.418C354.751 465.269 354.963 464.993 354.963 464.518C354.963 464.004 354.729 463.723 354.53 463.576C354.289 463.401 353.962 463.317 353.53 463.317H350.194V461.861C350.194 461.165 350.12 460.739 349.942 460.465C349.796 460.253 349.499 460 348.919 460C348.522 460 348.205 460.122 347.974 460.369C347.766 460.598 347.661 460.92 347.661 461.328V463.317H347.079C346.39 463.317 345.987 463.382 345.739 463.53C345.504 463.665 345.224 463.945 345.224 464.518C345.224 465.005 345.422 465.278 345.584 465.419C345.807 465.614 346.112 465.709 346.521 465.709H347.661V468.732C347.661 469.397 347.693 469.91 347.754 470.258C347.822 470.637 347.934 470.955 348.083 471.207C348.384 471.782 348.852 472.221 349.472 472.512C350.049 472.788 350.768 472.927 351.608 472.927C352.094 472.927 352.601 472.865 353.163 472.74C353.682 472.623 354.286 472.431 354.953 472.168C355.398 471.996 355.732 471.802 355.94 471.595C356.198 471.344 356.335 471.024 356.335 470.668C356.335 470.344 356.224 470.064 355.996 469.829C355.769 469.606 355.484 469.488 355.167 469.488Z" fill="#04D3AB"/>
<path fill-rule="evenodd" clip-rule="evenodd" d="M368.058 470.621C367.834 470.459 367.532 470.376 367.138 470.367V464.234C367.138 463.654 367.049 463.313 366.849 463.107C366.65 462.89 366.346 462.779 365.948 462.779H363.872C363.465 462.779 363.146 462.885 362.919 463.097C362.691 463.313 362.576 463.621 362.576 464.009C362.576 464.382 362.689 464.675 362.906 464.876C363.118 465.078 363.415 465.175 363.813 465.175H364.629V468.669C364.629 469.194 364.439 469.616 364.047 469.964C363.638 470.328 363.157 470.506 362.573 470.506C361.983 470.506 361.561 470.372 361.318 470.112C361.067 469.835 360.939 469.351 360.939 468.673V464.031C360.939 463.718 360.907 463.328 360.655 463.065C360.463 462.876 360.181 462.779 359.816 462.779H358.346C357.954 462.779 357.643 462.879 357.403 463.084C357.241 463.233 357.049 463.507 357.049 463.967C357.049 464.512 357.307 464.796 357.534 464.944C357.735 465.07 358.015 465.142 358.404 465.167V469.028C358.404 470.301 358.721 471.283 359.346 471.944C359.981 472.616 360.919 472.957 362.134 472.957C362.695 472.957 363.235 472.854 363.737 472.652C364.025 472.537 364.339 472.371 364.681 472.153C364.738 472.31 364.841 472.447 364.979 472.549C365.164 472.69 365.408 472.762 365.705 472.762H367.184C367.563 472.762 367.872 472.661 368.103 472.461C368.353 472.244 368.48 471.937 368.48 471.55C368.48 471.032 368.25 470.759 368.058 470.621Z" fill="#04D3AB"/>
<path fill-rule="evenodd" clip-rule="evenodd" d="M379.649 462.969C379.207 462.687 378.641 462.545 377.966 462.545C377.105 462.545 376.292 462.754 375.548 463.17C375.153 463.392 374.767 463.676 374.389 464.023V463.685C374.389 463.386 374.265 463.134 374.05 462.98C373.866 462.841 373.632 462.773 373.334 462.773H371.115C370.734 462.773 370.426 462.871 370.188 463.074C370.023 463.223 369.826 463.498 369.826 463.961C369.826 464.51 370.079 464.793 370.306 464.944C370.488 465.056 370.802 465.169 371.759 465.169H371.902V470.36H370.723C370.321 470.36 370.002 470.456 369.772 470.645C369.597 470.792 369.388 471.066 369.388 471.544C369.388 472.013 369.584 472.293 369.762 472.456C369.992 472.654 370.3 472.756 370.677 472.756H377.051C377.485 472.756 377.8 472.667 378.03 472.472C378.254 472.267 378.369 471.955 378.369 471.544C378.369 471.069 378.176 470.797 378.011 470.649C377.792 470.457 377.489 470.36 377.111 470.36H374.389V467.053C374.985 466.39 375.533 465.897 376.018 465.587C376.49 465.285 376.937 465.131 377.345 465.131C377.532 465.131 377.767 465.208 378.045 465.363C378.499 465.613 378.8 465.72 379.049 465.72C379.297 465.72 379.667 465.645 380.005 465.291C380.278 465.015 380.422 464.672 380.422 464.299C380.422 463.923 380.289 463.386 379.649 462.969Z" fill="#04D3AB"/>
<path fill-rule="evenodd" clip-rule="evenodd" d="M392.146 470.624C391.919 470.453 391.603 470.367 391.183 470.36V466.485C391.183 465.286 390.853 464.321 390.205 463.621C389.545 462.907 388.639 462.545 387.509 462.545C386.929 462.545 386.369 462.666 385.848 462.903C385.6 463.014 385.349 463.156 385.098 463.329C385.038 463.193 384.942 463.076 384.814 462.982C384.625 462.844 384.385 462.774 384.1 462.774H382.702C382.276 462.774 381.956 462.862 381.725 463.042C381.54 463.185 381.321 463.462 381.321 463.969C381.321 464.521 381.585 464.804 381.813 464.948C382.013 465.071 382.289 465.142 382.667 465.167V470.369C382.285 470.391 382.011 470.461 381.815 470.579C381.597 470.711 381.338 470.987 381.338 471.544C381.338 472.03 381.543 472.31 381.722 472.465C381.955 472.661 382.26 472.756 382.656 472.756H384.957C385.579 472.756 385.924 472.679 386.141 472.495C386.386 472.294 386.504 471.984 386.504 471.544C386.504 471.015 386.277 470.741 386.085 470.604C385.88 470.458 385.587 470.38 385.171 470.363V466.845C385.171 466.336 385.363 465.921 385.76 465.575C386.174 465.211 386.635 465.034 387.172 465.034C387.677 465.034 388.04 465.17 388.287 465.455C388.547 465.752 388.68 466.219 388.68 466.845V470.363C388.27 470.38 387.98 470.458 387.774 470.604C387.583 470.741 387.355 471.015 387.355 471.544C387.355 471.984 387.474 472.294 387.718 472.495C387.943 472.677 388.28 472.756 388.847 472.756H391.008C391.506 472.756 391.869 472.674 392.117 472.503C392.323 472.361 392.569 472.078 392.569 471.544C392.569 471.041 392.336 470.765 392.146 470.624Z" fill="#04D3AB"/>
<path d="M338.157 76C272.747 76.0002 212 115.345 212 145.849C212 200.536 265.397 190.718 308.555 205.336C356.993 221.743 423.278 261.851 442.838 211.367C462.467 140.143 425.806 75.9997 338.157 76Z" fill="#D9F0FF" fill-opacity="0.5"/>
<path d="M226.584 35H205V56.5594L226.584 35Z" fill="#BAA8FF"/>
<path fill-rule="evenodd" clip-rule="evenodd" d="M228.998 38.4414L207.414 60.0008V38.4414H228.998ZM225.892 39.727L208.7 56.8997V39.727H225.892Z" fill="#005746"/>
</svg>
