<svg width="103" height="32" viewBox="0 0 103 32" fill="none" xmlns="http://www.w3.org/2000/svg">
<path d="M27.9706 6.95076C29.0173 6.95076 31.9151 7.09084 30.0379 12.5813C28.0909 18.3414 23.7513 17.1603 23.7513 17.1603L26.9439 6.95076H27.9706ZM35.7366 12.9455C38.1772 6.90435 33.5925 5.25135 30.6188 5.25135H20.7698C21.5863 5.82132 21.4502 6.57691 21.2976 7.02605L15.5518 25.4621C15.325 26.2028 14.4545 26.9514 14 27.0862H21.9806C21.5296 26.9978 20.9094 26.3691 21.1432 25.5216L23.2271 18.8518C23.2271 18.8518 32.824 20.1537 35.7366 12.9455Z" fill="#003CAE"/>
<path d="M38.9565 24.2512C38.6416 24.4464 37.3951 25.0821 36.2288 25.1889C35.1341 25.2852 33.3363 24.8711 33.3363 22.698C33.3363 20.82 35.3661 19.4804 36.4408 18.9954C36.9275 20.7972 37.8975 22.8477 38.9565 24.2512ZM42.1002 12.5104C41.8342 14.2737 39.5776 16.0484 39.0219 16.2751C38.9207 15.2893 38.9565 13.7256 39.7729 12.4587C40.3373 11.6173 41.0517 11.2513 41.6292 11.4553C42.1002 11.6173 42.1569 12.0419 42.1002 12.5104ZM42.1002 27.0862H47.4866C45.7673 26.5197 43.2237 24.8895 42.2049 23.7338C43.0327 22.8477 44.0358 21.7174 44.2242 19.4235H41.4355C41.4355 19.4235 41.9894 19.7195 41.9894 20.3805C41.9894 20.9942 41.7426 21.8277 41.2715 22.4213C40.4612 21.2079 39.5776 19.8219 39.2679 17.7854C40.36 17.2408 41.9066 16.6525 43.1138 15.5887C44.2827 14.5591 44.5444 13.6161 44.5601 12.9814V12.8991C44.5601 12.2424 44.3176 11.6418 43.8308 11.1664C43.0327 10.3627 41.7548 10.0466 40.4219 10.2795C39.3351 10.4896 38.434 11.0587 37.9917 11.4799C36.3414 13.0015 36.1364 15.5327 36.1364 16.67C36.1364 16.9239 36.1556 17.1533 36.1608 17.2741C36.0832 17.2986 35.8956 17.3783 35.8956 17.3783C34.7294 17.8091 31.5682 18.6574 30.4351 21.2665C30.2929 21.5878 30.0862 22.3145 30.0862 23.1542C30.0862 23.8598 30.2275 24.6574 30.6863 25.3981C31.4967 26.644 32.8356 27.4189 35.005 27.3865C37.3558 27.3567 39.6796 25.7387 40.08 25.4445C40.4943 25.8333 41.5638 26.8218 42.1002 27.0862Z" fill="#003CAE"/>
<path d="M58.4239 6.96742C61.6226 6.20133 64.2578 8.71585 64.5037 8.87082L65.3996 5.9737C64.1444 5.59109 54.9914 2.4742 48.5199 9.89344C44.544 14.4585 43.5461 23.7977 48.608 26.2991C54.0127 28.9852 59.9888 25.8911 60.4083 25.681L62.8917 17.8091C63.1543 16.8399 63.7483 16.2183 64.8169 15.8278H56.2484C57.4923 16.3584 57.4094 17.2987 57.2995 17.6848L54.8396 25.5742C54.5082 25.6302 47.6136 27.3568 51.4726 15.2473C52.2917 12.6584 54.6364 7.89636 58.4239 6.96742Z" fill="#003CAE"/>
</svg>
