<svg width="174" height="32" viewBox="0 0 174 32" fill="none" xmlns="http://www.w3.org/2000/svg">
<path fill-rule="evenodd" clip-rule="evenodd" d="M94.6108 16.4351C94.2867 16.1111 93.8817 15.8682 93.3146 15.8682C92.0994 15.8682 90.7222 16.921 90.3172 18.9457C90.0741 20.2415 90.2362 21.2134 90.6412 21.7803C90.9653 22.1042 91.3703 22.3472 91.9374 22.3472C92.8285 22.3472 94.4488 21.9423 94.9348 19.1077C95.1779 17.8929 95.0968 17.002 94.6108 16.4351ZM96.474 14.9773C97.2842 15.9492 97.5272 17.4879 97.2031 19.5126C96.7171 22.4282 94.6108 24.4529 92.0994 24.4529C91.1273 24.4529 90.3172 24.048 89.6691 23.4001L89.5881 23.2381L89.5071 23.886C89.5071 24.048 89.345 24.2099 89.102 24.2099H87.4818C87.4008 24.2099 87.3197 24.2099 87.3197 24.1289C87.2387 24.048 87.2387 23.967 87.2387 23.886L87.3197 23.2381L87.1577 23.3191C86.5096 23.805 85.5375 24.3719 84.5654 24.3719C83.8363 24.3719 83.3502 24.2099 83.0261 23.805C82.4591 23.0761 82.7021 21.8613 82.8641 20.9704C82.8641 20.8084 82.9451 20.7275 82.9451 20.5655C83.0261 20.0795 83.1071 19.6746 83.1882 19.3507C83.5932 17.245 83.7552 16.3541 83.4312 15.9492C83.3502 15.8682 83.1882 15.7872 82.9451 15.7872C81.4059 15.7872 79.5426 19.8366 78.4895 23.805C78.4085 23.967 78.3275 24.1289 78.0844 24.1289H76.6262C76.5452 24.1289 76.4642 24.1289 76.4642 24.048C76.3832 23.967 76.3832 23.886 76.3832 23.805C76.3832 23.643 76.6262 22.2662 76.6262 22.2662C76.7072 21.7803 76.7882 21.2944 76.8693 20.8084C77.2743 18.4598 77.6794 16.5971 77.1933 16.0302C77.1123 15.8682 76.9503 15.8682 76.7882 15.8682C75.6541 15.8682 73.7908 19.1887 72.3326 23.886C72.2516 24.1289 72.0896 24.1289 71.9276 24.1289H70.4693C70.3883 24.1289 70.3073 24.1289 70.3073 24.048C70.2263 23.967 70.2263 23.967 70.2263 23.886C70.2263 23.805 70.3073 23.2381 70.3073 23.2381L70.1453 23.3191C69.1732 24.048 68.363 24.3719 67.5529 24.3719C66.8238 24.3719 66.3378 24.2099 66.0137 23.805C65.6897 23.4001 65.6087 22.7521 65.7707 21.8613L65.9327 20.8894L65.7707 20.8084C64.8796 22.3472 63.4213 24.3719 61.315 24.3719C60.4239 24.3719 59.6948 23.967 59.4518 23.1571V23.0761L59.3708 23.1571C58.3176 23.967 57.5885 24.3719 56.3733 24.3719C55.6442 24.3719 55.1582 24.2099 54.9151 23.805C54.3481 23.1571 54.5911 22.0233 54.7531 21.2134L54.8341 20.9704C54.9961 20.1605 55.1582 19.1077 55.3202 18.1358L55.4822 17.326C55.5632 16.84 55.6442 16.3541 55.4012 16.0302C55.3202 15.8682 55.0772 15.7872 54.9151 15.7872C53.943 15.7872 51.4316 18.8647 49.5684 23.805C49.4874 23.886 49.4064 24.048 49.2443 24.048H47.9481C47.8671 24.048 47.7861 23.967 47.7861 23.967C47.7051 23.886 47.7051 23.805 47.7051 23.805C47.7861 23.562 49.1633 15.3822 49.8924 11.4138L50.2975 9.22717C50.2975 9.06519 50.4595 8.90322 50.7025 8.90322H52.4848C52.5658 8.90322 52.6468 8.90322 52.6468 8.9842C52.7278 9.06519 52.7278 9.14618 52.7278 9.22717L51.0266 17.7309L51.1886 17.8119C51.1886 17.8119 53.2139 14.0055 55.8063 14.0055C56.6164 14.0055 57.2645 14.2484 57.5885 14.6534C58.1556 15.3013 58.0746 16.3541 57.9126 17.164C57.7505 18.0549 57.5885 18.9457 57.4265 19.7556C57.3455 20.4035 57.1835 20.9704 57.1024 21.4563C57.0214 22.0233 57.0214 22.3472 57.1835 22.5902C57.3455 22.7522 57.5075 22.8331 57.8316 22.8331C58.2366 22.8331 58.7227 22.5902 59.2087 22.2662C59.2087 21.7803 59.2087 21.2944 59.2898 20.7275C59.2898 20.7275 60.2619 15.1393 60.3429 14.8153C60.3429 14.5724 60.5859 14.4914 60.748 14.4914H62.5302C62.6112 14.4914 62.6922 14.4914 62.6922 14.5724C62.7733 14.6534 62.7733 14.7343 62.7733 14.7343L61.7201 20.6465C61.7201 20.7275 61.7201 20.7275 61.7201 20.8084C61.6391 21.2944 61.4771 21.9423 61.8011 22.2662C61.9631 22.4282 62.1252 22.5092 62.3682 22.5092C63.5834 22.5092 66.0947 19.7556 67.4719 14.7343C67.4719 14.7343 67.5529 14.4914 67.877 14.4914H69.2542C69.3352 14.4914 69.4162 14.4914 69.4162 14.5724C69.4972 14.6534 69.4972 14.7343 69.4972 14.8153C69.3352 15.9492 68.282 21.6993 68.282 21.6993C68.201 22.1852 68.201 22.5902 68.363 22.7522C68.4441 22.9141 68.6871 22.9951 68.9301 22.9951C69.4162 22.9951 70.0643 22.5902 70.4693 22.2662C70.7934 20.4845 71.1985 17.9739 71.5225 16.2731L71.7655 14.8963C71.7655 14.7343 71.9276 14.5724 72.1706 14.5724H73.9528C74.0339 14.5724 74.1149 14.5724 74.1149 14.6534C74.1959 14.7343 74.1959 14.8153 74.1959 14.8963C74.1149 15.4632 73.7098 17.7309 73.7098 17.7309L73.8718 17.8119C73.9528 17.7309 73.9528 17.6499 74.0339 17.4879C74.6009 16.3541 75.6541 14.3294 77.5984 14.3294C78.9756 14.3294 79.6236 15.0583 79.7047 16.5161C79.7047 17.4879 79.6236 18.0549 79.6236 18.0549L79.7857 18.1358C79.7857 18.1358 81.3249 14.3294 84.0793 14.3294C84.8894 14.3294 85.4565 14.4914 85.7805 14.8963C86.2666 15.4632 86.3476 16.5971 85.9426 18.4598C85.8615 18.9457 85.6995 19.8366 85.5375 20.6465C85.4565 21.0514 85.3755 21.4563 85.3755 21.6993C85.2945 22.2662 85.2945 22.5902 85.4565 22.8331C85.6185 22.9951 85.7805 23.0761 86.1046 23.0761C86.6717 23.0761 87.2387 22.6712 87.6438 22.3472C87.8868 20.8894 89.5881 11.2519 89.9121 9.63211C89.9121 9.47013 90.0741 9.30816 90.3172 9.30816H92.0994C92.1804 9.30816 92.2615 9.30816 92.2615 9.38914C92.3425 9.47013 92.3425 9.55112 92.3425 9.63211L92.2615 10.118C92.0994 11.1709 91.7754 12.7096 91.4513 14.6534C91.3703 14.9773 91.2893 15.3822 91.2893 15.3822L91.2083 15.6252L91.3703 15.4632C92.0994 14.7343 93.0716 14.3294 94.0437 14.3294C95.0968 14.0055 95.907 14.3294 96.474 14.9773ZM111.542 16.4351C111.218 16.0302 110.732 15.8682 110.165 15.8682C108.707 15.8682 107.573 17.002 107.249 18.9457C107.087 19.6746 107.006 21.0514 107.573 21.7803C107.897 22.1042 108.302 22.3472 108.788 22.3472C110.246 22.3472 111.542 21.0514 111.866 19.1077C112.109 17.8929 112.028 17.002 111.542 16.4351ZM136.089 14.0864V15.4632C136.089 15.5442 136.008 15.6252 136.008 15.6252C135.927 15.7062 135.927 15.7062 135.846 15.7062H135.765C135.522 15.6252 135.36 15.6252 135.117 15.6252C133.577 15.6252 131.633 17.326 131.552 17.4069H131.471V17.4879C131.471 17.4879 134.63 23.2381 134.874 23.805C134.955 23.886 134.955 23.967 134.874 24.048C134.792 24.1289 134.711 24.1289 134.63 24.1289H132.848C132.443 24.1289 132.443 24.048 132.281 23.805L132.2 23.562C131.552 22.3472 130.418 20.3225 129.77 19.1077L129.689 19.0267L129.203 19.4316C129.041 19.5936 128.879 19.6746 128.717 19.8366C128.717 19.8366 128.474 21.3754 128.312 22.0233C128.15 22.9141 128.069 23.562 127.988 23.805C127.988 24.048 127.744 24.1289 127.582 24.1289H125.8C125.719 24.1289 125.638 24.1289 125.638 24.048C125.557 23.967 125.557 23.886 125.557 23.886L125.881 21.9423L125.719 22.0233C123.856 23.481 122.236 24.3719 120.129 24.3719C118.347 24.3719 117.051 23.805 116.403 22.7522L116.322 22.6712L116.241 22.7522C116.241 22.7522 114.783 24.3719 113 24.3719C112.109 24.3719 111.299 24.2099 111.056 22.9951V22.8331L110.975 22.9141C110.084 23.886 109.031 24.3719 107.816 24.3719C106.6 24.3719 105.628 23.805 105.223 22.7522L105.142 22.6712L105.061 22.7522C104.251 23.481 102.955 24.3719 101.578 24.3719C100.525 24.3719 99.7955 24.1289 99.3905 23.562C98.9854 23.0761 98.8234 22.2662 98.9854 21.3754L99.8765 16.3541C99.9575 16.1111 99.9575 15.9492 99.9575 15.9492V15.8682H98.4183C98.3373 15.8682 98.2563 15.8682 98.2563 15.7872C98.1753 15.7062 98.1753 15.6252 98.1753 15.5442C98.2563 15.2203 98.3373 14.5724 98.3373 14.5724C98.3373 14.4104 98.5803 14.2484 98.7424 14.2484H100.282L100.93 10.604C100.93 10.442 101.092 10.28 101.335 10.28H103.117C103.198 10.28 103.279 10.28 103.279 10.361C103.36 10.442 103.36 10.523 103.36 10.523C103.279 10.9279 102.712 14.0864 102.712 14.0864V14.1674H105.223C105.304 14.1674 105.385 14.1674 105.385 14.2484C105.466 14.3294 105.466 14.4104 105.466 14.4104C105.466 14.5724 105.304 15.3822 105.304 15.3822C105.223 15.6252 105.061 15.7062 104.899 15.7062H102.469L101.497 21.1324C101.416 21.6183 101.497 22.0233 101.659 22.2662C101.821 22.5092 102.145 22.5902 102.388 22.5902C103.603 22.5902 104.332 22.0233 104.899 21.6183V21.5373C104.818 20.8894 104.737 20.2415 104.818 19.4316C105.142 16.759 106.681 13.8435 110.246 13.8435C111.866 13.8435 112.433 14.8153 112.514 15.0583L112.595 15.2203L112.757 14.4104C112.757 14.2484 112.919 14.0864 113.081 14.0864H114.702C114.783 14.0864 114.864 14.0864 114.864 14.1674C114.945 14.2484 114.945 14.3294 114.945 14.4104L113.729 21.2134C113.648 21.8613 113.648 22.1852 113.811 22.3472C113.892 22.5092 114.054 22.5092 114.378 22.5092C115.269 22.5092 115.917 21.6183 115.998 21.5373C115.836 20.8894 115.755 19.7556 115.917 18.8647C116.484 15.7062 118.509 13.7625 121.345 13.7625C122.722 13.7625 123.694 14.1674 124.342 14.9773C124.99 15.7872 125.071 16.759 124.909 17.4879C124.828 17.7309 124.666 17.8929 124.423 17.8929H122.803C122.722 17.8929 122.641 17.8929 122.641 17.8119C122.56 17.7309 122.56 17.6499 122.56 17.6499L122.641 17.245C122.722 16.84 122.641 16.4351 122.398 16.1921C122.155 15.9492 121.75 15.7872 121.264 15.7872C119.886 15.7872 118.671 17.083 118.347 19.0267C118.185 20.0795 118.266 20.8894 118.752 21.4563C119.238 22.0233 120.048 22.3472 121.102 22.3472C123.208 22.3472 124.666 21.6183 126.205 20.4035L128.15 9.30816C128.15 9.06519 128.312 8.9842 128.555 8.9842H130.337C130.418 8.9842 130.499 8.9842 130.499 9.06519C130.58 9.14618 130.58 9.22717 130.58 9.30816C130.499 9.95606 130.337 10.8469 130.094 11.8188C129.77 13.5195 129.446 15.6252 129.041 17.5689L128.96 17.8119L129.122 17.6499C129.77 16.921 131.066 15.6252 132.524 14.5724C133.658 13.7625 134.549 13.5195 135.117 13.5195C135.765 13.5195 136.089 13.7625 136.089 14.0864ZM48.5152 10.7659C48.5962 10.28 48.7583 9.55112 48.7583 9.30816C48.7583 9.22717 48.7583 9.14618 48.6772 9.14618C48.5962 9.06519 48.5962 9.06519 48.5152 9.06519H41.4672C38.3888 9.06519 37.0116 10.9279 37.0116 12.7096C37.0116 12.8716 37.0116 13.2766 37.1736 13.5195C37.2546 13.6815 37.3356 13.6815 37.4977 13.6815H37.5787C37.7407 13.6005 37.9837 13.6005 38.3078 13.5195L38.6318 13.4385C38.7128 13.4385 38.7938 13.3576 38.7938 13.1956C38.7938 12.2237 39.2799 11.0089 41.4672 11.0089H42.6014L40.4141 23.967C40.4141 24.048 40.4141 24.1289 40.4951 24.1289C40.5761 24.2099 40.5761 24.2099 40.6571 24.2099H42.4394C42.6014 24.2099 42.7634 24.1289 42.8444 23.886L45.1127 11.0089H48.1102C48.3532 11.0899 48.5152 11.0089 48.5152 10.7659ZM25.913 7.12148C25.751 6.95951 25.4269 6.95951 25.1839 7.12148C25.0219 7.28346 25.0219 7.28346 24.9409 7.36445C23.9687 8.3363 24.0497 9.55112 24.8599 10.361C25.2649 10.7659 25.1029 11.2519 24.7789 11.4948C24.2928 11.8998 22.5915 13.1956 21.8624 13.7625C20.0802 12.4667 17.6498 12.5477 15.9486 13.8435C15.6246 14.0864 15.7056 14.4914 15.8676 14.7343C15.9486 14.8153 24.4548 23.3191 24.4548 23.3191C24.6978 23.562 25.1029 23.562 25.3459 23.2381C26.6421 21.5373 26.7231 19.1077 25.4269 17.326C25.994 16.5971 27.3712 14.8963 27.6953 14.4104C27.9383 14.0864 28.5054 14.0055 28.8294 14.3294C29.6395 15.1393 30.8547 15.2203 31.8269 14.2484C31.9079 14.1674 31.9079 14.1674 32.0699 14.0055C32.2319 13.8435 32.2319 13.5195 32.0699 13.2766L25.913 7.12148ZM18.46 18.9457L20.4852 20.9704C20.4852 20.9704 17.6498 23.1571 14.3284 25.7487C13.8423 26.1536 13.2752 26.5586 13.0322 26.3966C12.8702 26.2346 13.3562 25.5867 13.6803 25.1008C15.8676 22.2662 18.46 18.9457 18.46 18.9457Z" fill="#F27802"/>
</svg>
