<svg width="172" height="32" viewBox="0 0 172 32" fill="none" xmlns="http://www.w3.org/2000/svg">
<path d="M92.807 8.99914C89.6476 8.97914 87.088 11.5387 87.088 14.6782C87.068 17.8376 89.6276 20.3972 92.767 20.3972C95.9265 20.4172 98.4861 17.8576 98.4861 14.7182C98.5061 11.5787 95.9865 9.01914 92.847 8.99914C92.847 8.99914 92.827 8.99914 92.807 8.99914ZM92.807 19.0774C90.3874 19.0574 88.4478 17.0978 88.4478 14.6782C88.4678 12.2586 90.4274 10.3189 92.847 10.3189C95.2666 10.3389 97.2063 12.2986 97.2063 14.7182C97.1863 17.1378 95.2266 19.0774 92.807 19.0774Z" fill="#00A698"/>
<path d="M58.1728 14.7584V14.3985C58.1728 13.4186 57.9329 12.4388 57.4529 11.5789C56.913 10.5591 55.9732 9.77924 54.8734 9.4393C54.1335 9.21934 53.3536 9.13935 52.5738 9.23934C51.7339 9.29933 50.9341 9.61927 50.2742 10.1192C48.7144 11.319 47.8746 13.2387 48.0545 15.1983C48.1745 16.4581 48.6944 17.6179 49.5543 18.5378C50.3742 19.4576 51.514 20.0375 52.7337 20.1575C53.4136 20.2375 54.0935 20.1975 54.7534 20.0775C55.5533 19.9175 56.3131 19.5976 56.973 19.1177C57.213 18.9377 57.413 18.7377 57.6129 18.5178C57.8129 18.2978 57.7729 17.9578 57.5529 17.7579C57.5329 17.7379 57.5129 17.7179 57.4929 17.7179C57.233 17.5179 56.873 17.5579 56.6531 17.7979C56.2931 18.2178 55.8132 18.5377 55.2733 18.7177C54.5134 19.0377 53.6736 19.1376 52.8537 18.9977C51.9339 18.8977 51.094 18.4578 50.4741 17.7979C49.8142 17.058 49.3943 16.1582 49.2743 15.1783C49.2543 15.0583 49.2543 14.9384 49.2743 14.8184H58.1928L58.1728 14.7584ZM49.4743 13.2786C49.6943 12.5588 50.0942 11.8989 50.6341 11.379C51.214 10.8391 51.9739 10.5191 52.7737 10.4591C53.2937 10.3991 53.8336 10.4391 54.3535 10.5791C55.1533 10.7791 55.8332 11.279 56.2931 11.9589C56.6131 12.4388 56.833 12.9787 56.933 13.5386C56.933 13.5986 56.953 13.6586 56.973 13.6986H49.4343C49.3943 13.5386 49.4143 13.3986 49.4743 13.2786Z" fill="#00A698"/>
<path d="M44.0754 11.4989C43.5555 10.5591 42.6957 9.8392 41.6558 9.51925C40.896 9.29929 40.0961 9.2193 39.3162 9.27929C38.6563 9.33928 37.9965 9.53925 37.4166 9.87919C36.4967 10.3991 35.7768 11.179 35.3569 12.1388C34.857 13.1386 34.657 14.2584 34.797 15.3583C34.917 16.3981 35.3169 17.3979 35.9568 18.2178C36.7767 19.3376 38.0365 20.0575 39.4162 20.1974C40.0961 20.2774 40.776 20.2374 41.4359 20.1174C42.2757 19.9775 43.0756 19.6175 43.7355 19.0776C43.9354 18.9176 44.1354 18.7177 44.2954 18.5177C44.4953 18.2578 44.4554 17.8778 44.1954 17.6779C44.1954 17.6779 44.1754 17.6779 44.1754 17.6579C43.9354 17.4579 43.5755 17.4979 43.3755 17.7379C43.0756 18.0778 42.6957 18.3577 42.2957 18.5377C41.4559 18.9376 40.516 19.0776 39.5962 18.9376C38.6763 18.8377 37.8365 18.3977 37.2166 17.7379C36.5367 16.978 36.1168 16.0381 36.0168 15.0383V14.7584H44.8953V14.6984C44.9353 13.5786 44.6553 12.4588 44.0754 11.4989ZM36.0968 13.5986C36.0968 13.5186 36.1368 13.4786 36.1368 13.3986C36.3167 12.6987 36.6767 12.0388 37.1766 11.4989C37.7165 10.919 38.4364 10.5391 39.2362 10.4591C39.7961 10.3791 40.376 10.3791 40.936 10.4991C41.7758 10.6991 42.5157 11.199 42.9956 11.9188C43.3155 12.3988 43.5355 12.9387 43.6355 13.4986V13.5786H36.0968V13.5986Z" fill="#00A698"/>
<path d="M133.24 17.6379C133 17.4379 132.64 17.4779 132.44 17.7179C132.14 18.0578 131.78 18.3178 131.4 18.5177C130.56 18.9177 129.621 19.0776 128.701 18.9576C127.681 18.8377 126.741 18.3378 126.081 17.5379C125.521 16.878 125.181 16.0581 125.081 15.1983C125.041 15.0383 125.041 14.8783 125.041 14.7184H134C134 14.4184 134 14.0985 133.96 13.7985C133.86 12.8787 133.54 11.9988 133.04 11.219C132.46 10.3591 131.62 9.71922 130.62 9.39928C129.881 9.19931 129.121 9.15932 128.361 9.23931C127.601 9.31929 126.881 9.57925 126.261 9.99918C125.441 10.5791 124.781 11.3789 124.362 12.2988C123.942 13.2386 123.782 14.2584 123.882 15.2783C124.022 16.5181 124.581 17.6779 125.461 18.5777C126.281 19.4576 127.401 19.9975 128.601 20.0975C129.241 20.1774 129.881 20.1374 130.5 20.0175C131.3 19.8775 132.06 19.5575 132.72 19.0576C132.96 18.8577 133.2 18.6577 133.4 18.4177C133.56 18.1778 133.5 17.8178 133.24 17.6379ZM125.181 13.5186C125.381 12.5987 125.901 11.7789 126.641 11.179C127.201 10.739 127.881 10.4791 128.581 10.4191C129.181 10.3791 129.781 10.4191 130.361 10.5791C131.08 10.819 131.68 11.279 132.1 11.9188C132.42 12.3988 132.64 12.9387 132.74 13.4986V13.6186H125.241C125.181 13.5986 125.181 13.5586 125.181 13.5186Z" fill="#00A698"/>
<path d="M83.4686 13.3586V19.3176C83.4686 19.3975 83.4686 19.4775 83.4286 19.5575C83.3486 19.8375 83.0687 20.0374 82.7887 19.9974C82.5088 19.9574 82.2888 19.7175 82.2688 19.4375V13.7985C82.2888 13.2586 82.2088 12.6987 82.0288 12.1788C81.7289 11.2389 80.909 10.5591 79.9292 10.4391C79.2693 10.2991 78.5694 10.3791 77.9495 10.639C77.0097 11.039 76.2898 11.8588 76.0099 12.8587C75.9699 12.9386 75.9699 13.0386 75.9699 13.1386V19.4375C75.9699 19.7375 75.7299 19.9974 75.43 19.9974H75.41C75.11 19.9974 74.8501 19.7775 74.8101 19.4775V5.47992C74.87 5.19996 75.13 5 75.41 5C75.7099 5 75.9499 5.21996 75.9699 5.51991V10.839H76.0099C76.0099 10.799 76.0498 10.799 76.0498 10.759C76.7497 9.93916 77.7496 9.39925 78.8294 9.25927C79.4893 9.17929 80.1691 9.21928 80.809 9.41925C82.0888 9.77919 83.0687 10.839 83.3086 12.1588C83.4086 12.5587 83.4686 12.9586 83.4686 13.3586Z" fill="#00A698"/>
<path d="M19.9594 20.2173C16.7 20.1773 14.0404 22.7768 14.0005 26.0163C13.9605 29.2757 16.56 31.9353 19.7995 31.9752C23.0589 32.0152 25.7185 29.4157 25.7585 26.1762C25.7585 26.1562 25.7585 26.1162 25.7585 26.0962C25.7984 22.8768 23.2189 20.2372 19.9994 20.2173C19.9994 20.2173 19.9794 20.2173 19.9594 20.2173ZM19.8795 30.8954C17.2199 30.8554 15.1203 28.6758 15.1603 26.0163C15.2003 23.3567 17.3799 21.2571 20.0394 21.2971C22.679 21.3371 24.7786 23.4967 24.7586 26.1362C24.7186 28.7958 22.539 30.9154 19.8795 30.8954Z" fill="#00A698"/>
<path d="M70.3509 19.3574C70.3709 19.6574 70.171 19.9373 69.871 19.9973C69.5511 20.0573 69.2511 19.8574 69.1911 19.5374C69.1911 19.5174 69.1911 19.4974 69.1911 19.4774V13.8784C69.2111 13.3385 69.1311 12.8186 68.9912 12.2986C68.8112 11.6188 68.3513 11.0589 67.7514 10.7189C67.4514 10.5789 67.1115 10.479 66.7915 10.439C66.1716 10.339 65.5318 10.419 64.9319 10.6389C63.952 11.0389 63.1922 11.8787 62.9122 12.8985C62.8722 12.9785 62.8722 13.0585 62.8722 13.1385V19.5174C62.8322 19.8174 62.5723 20.0173 62.2723 19.9973C61.9724 19.9973 61.7124 19.7574 61.7124 19.4574V19.4374V9.95904C61.7324 9.63909 61.9924 9.39913 62.3123 9.39913C62.6322 9.39913 62.8722 9.63909 62.8722 9.95904C62.8722 9.97903 62.8722 9.99903 62.8722 9.99903V10.8789L62.9922 10.7589C63.6921 9.95904 64.6719 9.43913 65.7317 9.29915C66.4316 9.19917 67.1515 9.27915 67.8314 9.49912C69.0512 9.87905 69.951 10.8789 70.211 12.1187C70.2909 12.4986 70.3309 12.8585 70.3309 13.2385C70.3509 15.2981 70.3509 17.3378 70.3509 19.3574Z" fill="#00A698"/>
<path d="M110.664 19.3177V19.5177C110.604 19.7976 110.344 19.9976 110.064 19.9976C109.764 19.9976 109.524 19.7776 109.504 19.4777V18.5978H109.464C109.424 18.6378 109.384 18.6778 109.384 18.7178C108.724 19.5177 107.784 20.0176 106.765 20.1376C106.085 20.2575 105.365 20.2175 104.705 20.0176C103.405 19.6776 102.405 18.6378 102.125 17.318C102.045 16.9181 102.005 16.5182 102.005 16.1182V10.1193C101.985 9.8993 102.085 9.69933 102.245 9.55935C102.405 9.41938 102.645 9.37939 102.845 9.47937C103.045 9.55935 103.185 9.73932 103.205 9.95929V15.6783C103.205 16.2182 103.285 16.7781 103.445 17.298C103.745 18.1979 104.525 18.8378 105.465 18.9977C106.165 19.1377 106.905 19.0577 107.565 18.7978C108.504 18.3779 109.224 17.538 109.464 16.5382C109.504 16.4382 109.504 16.3582 109.504 16.2582V9.8793C109.584 9.59935 109.864 9.39939 110.144 9.43938C110.424 9.47937 110.644 9.71933 110.664 9.99928V10.1193C110.664 13.1587 110.664 16.2582 110.664 19.3177Z" fill="#00A698"/>
<path d="M18.8797 9.39917C16.2002 9.39917 14.0405 11.5588 14.0405 14.2383C14.0405 16.9179 16.2002 19.0775 18.8797 19.0775C21.5592 19.0775 23.7189 16.9179 23.7189 14.2383C23.6989 11.5788 21.5392 9.41917 18.8797 9.39917ZM18.8797 17.9977C16.8001 17.9777 15.1203 16.298 15.1203 14.1984C15.1403 12.1187 16.8201 10.439 18.9197 10.439C20.9993 10.459 22.6791 12.1387 22.6791 14.2383C22.6391 16.318 20.9593 17.9977 18.8797 17.9977Z" fill="#00A698"/>
<path d="M120.302 19.5175C119.822 19.8375 119.262 20.0375 118.683 20.1174C118.443 20.1574 118.163 20.1574 118.043 20.1974C117.203 20.2374 116.383 20.0175 115.663 19.5975C115.123 19.2776 114.703 18.8177 114.423 18.2578C114.343 18.0778 114.303 17.8778 114.343 17.6979C114.423 17.3779 114.743 17.1779 115.063 17.2579C115.163 17.2779 115.243 17.3179 115.323 17.3779C115.443 17.4379 115.523 17.5379 115.563 17.6579C115.963 18.4377 116.743 18.9576 117.623 19.0376C118.223 19.1176 118.823 18.9976 119.362 18.7177C119.542 18.6377 119.722 18.5177 119.842 18.3577C120.322 17.9178 120.462 17.2179 120.162 16.618C120.022 16.3181 119.802 16.0581 119.522 15.8582C119.123 15.5782 118.663 15.3583 118.183 15.2183C117.823 15.0983 117.503 15.0183 117.143 14.8983C116.583 14.6984 116.063 14.3984 115.623 14.0185C115.123 13.5386 114.823 12.8987 114.783 12.1988C114.743 11.7989 114.783 11.3989 114.903 11.039C115.163 10.3791 115.683 9.83919 116.363 9.57924C116.983 9.29929 117.663 9.1993 118.343 9.29929C118.903 9.33928 119.442 9.53924 119.922 9.85919C120.362 10.1791 120.722 10.5791 120.962 11.059C121.042 11.199 121.042 11.3589 121.002 11.4989C120.942 11.7189 120.762 11.8988 120.522 11.9388C120.282 11.9588 120.042 11.8588 119.922 11.6589C119.882 11.6189 119.882 11.5789 119.842 11.5389C119.542 10.959 118.963 10.5391 118.323 10.4591C117.863 10.3991 117.423 10.4391 116.983 10.6191C116.263 10.859 115.843 11.6189 116.083 12.3588C116.083 12.3788 116.083 12.3788 116.103 12.3988C116.203 12.7787 116.403 13.1186 116.703 13.3586C117.043 13.6385 117.443 13.8385 117.863 13.9585C118.223 14.0785 118.583 14.1585 118.943 14.2784C119.462 14.4384 119.942 14.6784 120.362 14.9983C120.962 15.4182 121.342 16.0581 121.442 16.778C121.702 17.8378 121.242 18.9576 120.302 19.5175Z" fill="#00A698"/>
<path d="M33.0172 10.2191C32.9372 10.5391 32.6173 10.739 32.2973 10.6991C31.9774 10.6391 31.6574 10.5991 31.3375 10.6191C30.2777 10.6991 29.3578 11.3189 28.8379 12.2388C28.6379 12.5587 28.5579 12.9187 28.5579 13.2786V19.3176C28.5579 19.4176 28.558 19.5175 28.518 19.5975C28.418 19.8575 28.178 20.0175 27.9181 19.9975C27.6381 19.9975 27.3981 19.7975 27.3582 19.5176V10.0992C27.3582 9.99917 27.3582 9.89919 27.3981 9.8192C27.4781 9.53925 27.7581 9.37928 28.038 9.41927C28.318 9.45927 28.538 9.69922 28.5579 9.97917V10.899H28.5979L28.7179 10.779C29.2578 10.1192 30.0177 9.63924 30.8576 9.43927C31.4375 9.33929 32.0174 9.33928 32.5973 9.47926C32.8972 9.55925 33.0972 9.87919 33.0172 10.2191Z" fill="#00A698"/>
<path d="M23.7587 8.15942C23.7587 8.71932 23.2988 9.15925 22.7589 9.15925C22.219 9.15925 21.759 8.69933 21.759 8.15942C21.759 7.59952 22.219 7.15959 22.7589 7.15959C23.2988 7.13959 23.7387 7.57952 23.7587 8.15942C23.7587 8.13942 23.7587 8.13942 23.7587 8.15942Z" fill="#00A698"/>
</svg>
