<svg width="172" height="32" viewBox="0 0 172 32" fill="none" xmlns="http://www.w3.org/2000/svg">
<path d="M42.7078 17.05C42.7388 16.87 42.7388 16.66 42.7388 16.48L45.002 16.57C45.002 16.39 45.002 16.21 45.002 16.03C45.002 15.85 45.002 15.67 45.002 15.49L42.7388 15.58C42.7388 15.4 42.7388 15.19 42.7078 15.01L40.4447 15.19C40.3827 14.62 40.2897 14.05 40.1657 13.48L42.3668 12.94C42.2118 12.31 41.9948 11.71 41.7468 11.11L43.8239 10.27C43.6069 9.79 43.3589 9.28 43.1109 8.83L41.1267 9.88C41.2507 10.12 41.3748 10.36 41.4988 10.6L39.4526 11.5C39.1116 10.78 38.8016 10.21 38.3056 9.58L40.0727 8.26C40.2277 8.44 40.2277 8.5 40.3827 8.71L42.2428 7.45C41.8088 6.88 41.3438 6.31 40.8477 5.77L39.1736 7.27C39.3286 7.45 39.3286 7.45 39.4836 7.63L37.7785 9.01C37.4065 8.56 37.1275 8.32 36.6935 7.93L38.1505 6.28C38.2746 6.37 38.3986 6.49 38.5226 6.58L40.0727 4.96C39.3906 4.36 38.6466 3.79 37.8715 3.31L36.6314 5.2C35.9494 4.78 35.5154 4.51 34.7713 4.21L33.9033 6.25C33.7793 6.22 33.4072 6.07 33.2832 6.01L34.0583 3.97C33.7483 3.85 33.4692 3.76 33.1592 3.7L33.7793 1.6C33.2522 1.45 32.6942 1.33 32.1672 1.24L31.7641 3.4C31.5471 3.37 31.3301 3.34 31.1441 3.31L30.8651 5.47C30.7411 5.47 30.307 5.44 30.183 5.44L30.4311 3.25C30.152 3.22 30.183 3.22 29.935 3.19L29.997 1C29.842 1 29.656 1 29.501 1C20.9444 1 14 7.72 14 16C14 24.28 20.9444 31 29.501 31C29.656 31 29.718 31 29.904 31L29.811 28.81C30.059 28.81 30.338 28.78 30.6171 28.78L30.8961 30.97C30.9891 30.97 32.0122 30.82 32.1052 30.82L31.6401 28.66C31.5781 28.66 31.0201 28.75 30.7721 28.78L30.5551 26.59C30.214 26.62 29.873 26.65 29.532 26.65V24.46C24.7267 24.46 20.8204 20.68 20.8204 16.03C20.8204 11.38 24.7267 7.6 29.532 7.6C30.8961 7.6 32.1982 7.9 33.4072 8.47L34.4303 6.52C34.5853 6.58 35.0503 6.85 35.2054 6.94L34.1513 8.86C35.6394 9.76 36.8175 11.08 37.4995 12.61L39.5766 11.74C39.6386 11.89 39.8557 12.49 39.9177 12.67L37.8405 13.48C38.1195 14.29 38.2436 15.16 38.2436 16C38.2436 17.59 37.7785 19.12 36.9415 20.47L38.8636 21.64C38.5846 22.06 38.3056 22.45 37.9645 22.84L39.7006 24.25C39.5456 24.43 39.3906 24.61 39.2356 24.76L40.9097 26.26C41.5298 25.6 42.1188 24.91 42.6148 24.16L40.7237 22.96C41.0957 22.39 41.4368 21.79 41.7158 21.19L39.6386 20.23C39.6696 20.11 39.8867 19.66 39.9177 19.57L42.0568 20.29C42.1498 20.08 42.2118 19.84 42.2738 19.63L44.4439 20.26C44.599 19.75 44.723 19.21 44.816 18.7L42.5838 18.31C42.6458 18.04 42.6768 18.04 42.7078 17.74L40.4447 17.5C40.4447 17.38 40.4757 16.99 40.4757 16.87L42.7078 17.05Z" fill="#FF671F"/>
<path d="M38.1195 25.69L36.6624 24.04C36.2284 24.4 35.9494 24.61 35.4533 24.91L34.2443 23.05C34.1203 23.11 33.3142 23.59 33.3142 23.59L34.3993 25.51C34.3993 25.51 35.2053 25.09 35.2363 25.09L36.4144 26.95C36.8794 26.68 37.3445 26.35 37.7785 25.99L39.2046 27.7C39.4836 27.49 39.7626 27.25 40.0416 27.01L38.4915 25.39C38.3675 25.48 38.2435 25.57 38.1195 25.69Z" fill="#F26727"/>
<path d="M33.2832 28.3C33.8723 28.12 34.4303 27.91 34.9884 27.67L35.9184 29.65C36.4144 29.44 36.9105 29.17 37.4065 28.9L36.2594 27.01C36.1974 27.04 35.6084 27.37 35.5464 27.4L34.4303 25.48C33.8723 25.75 33.2832 25.99 32.6632 26.14L33.2832 28.3Z" fill="#F26727"/>
<path d="M53.9615 20.4698H50.7993L56.5347 11.5598H60.1309L65.8663 20.4698H62.4561L61.588 19.1198H54.7676L53.9615 20.4698ZM58.2398 13.8098L56.1627 17.0198H60.2859L58.2398 13.8098Z" fill="#303C42"/>
<path d="M67.0134 11.5898H75.0739C77.5541 11.5898 79.3212 12.1598 79.3212 14.9798C79.3212 17.7098 77.5231 18.3398 75.0429 18.3398C74.1749 18.3398 70.5787 18.3398 70.0516 18.3398V20.4698H67.0134V11.5898ZM74.8259 16.2998C75.942 16.2998 76.252 15.9998 76.252 15.0698C76.252 14.1398 75.942 13.8098 74.7949 13.8098C73.9579 13.8098 70.0826 13.8098 70.0826 13.8098V16.2998C70.6097 16.2998 74.1749 16.2998 74.8259 16.2998Z" fill="#303C42"/>
<path d="M80.8402 11.5898H88.9007C91.3809 11.5898 93.148 12.1598 93.148 14.9798C93.148 17.7098 91.3499 18.3398 88.8697 18.3398C87.9707 18.3398 84.4054 18.3398 83.9094 18.3398V20.4698H80.8712V11.5898H80.8402ZM88.6527 16.2998C89.7688 16.2998 90.0788 15.9998 90.0788 15.0698C90.0788 14.1398 89.7688 13.8098 88.6217 13.8098C87.7847 13.8098 83.9094 13.8098 83.9094 13.8098V16.2998C84.4674 16.2998 88.0017 16.2998 88.6527 16.2998Z" fill="#303C42"/>
<path d="M99.1934 13.8401H94.0471V11.6201H107.409V13.8401H102.263V20.4701H99.1934V13.8401Z" fill="#303C42"/>
<path d="M109.176 11.5898H112.245V20.4398H109.176V11.5898Z" fill="#303C42"/>
<path d="M113.981 16.0301C113.981 12.1301 116.306 11.3501 121.515 11.3501C126.723 11.3501 129.079 12.1301 129.079 16.0301C129.079 19.9301 126.723 20.6801 121.515 20.6801C116.306 20.6801 113.981 19.9301 113.981 16.0301ZM125.762 16.0301C125.762 13.7201 124.77 13.6001 121.484 13.6001C118.229 13.6001 117.299 13.7201 117.299 16.0001C117.299 18.3101 118.229 18.4901 121.515 18.4901C124.832 18.4901 125.762 18.3401 125.762 16.0301Z" fill="#303C42"/>
<path d="M131.188 11.59C131.188 12.07 130.816 12.43 130.319 12.43C129.823 12.43 129.451 12.07 129.451 11.59C129.451 11.14 129.854 10.75 130.319 10.75C130.785 10.78 131.188 11.14 131.188 11.59ZM129.637 11.59C129.637 11.95 129.916 12.25 130.288 12.25C130.66 12.25 130.94 11.95 130.94 11.59C130.94 11.23 130.66 10.93 130.288 10.93C129.916 10.93 129.637 11.23 129.637 11.59ZM130.164 12.04H129.978V11.2C130.071 11.2 130.164 11.17 130.319 11.17C130.474 11.17 130.567 11.2 130.629 11.23C130.691 11.26 130.722 11.32 130.722 11.41C130.722 11.5 130.66 11.56 130.536 11.59C130.629 11.62 130.66 11.68 130.691 11.8C130.722 11.92 130.722 11.98 130.753 12.01H130.536C130.505 11.98 130.505 11.89 130.474 11.8C130.474 11.71 130.412 11.68 130.288 11.68H130.195V12.04H130.164ZM130.164 11.56H130.257C130.381 11.56 130.443 11.53 130.443 11.44C130.443 11.35 130.381 11.32 130.257 11.32C130.195 11.32 130.164 11.32 130.133 11.32V11.56H130.164Z" fill="#303C42"/>
</svg>
