<svg width="131" height="32" viewBox="0 0 131 32" fill="none" xmlns="http://www.w3.org/2000/svg">
<path d="M22.0898 3.01327V10.3145C20.8016 9.22592 19.6062 8.7613 17.9727 8.7613C13.8555 8.7613 11 12.1066 11 16.9519C11 21.8238 13.9219 25.2753 18.0656 25.2753C19.6195 25.2753 20.9875 24.7443 22.0766 23.6823V24.9036H25.4234V3L22.0898 3.01327ZM21.718 19.9653C21.2531 21.1866 19.8984 22.0495 18.3977 22.0495C16.0336 22.0495 14.5195 20.0981 14.5195 17.0714C14.5195 13.9252 16.0469 11.9605 18.5039 11.9605C19.9914 11.9605 21.4258 12.8898 21.7844 14.1111C21.9836 14.7085 22.05 15.5315 22.05 17.2307C22.05 18.5714 21.957 19.4078 21.718 19.9653Z" fill="#199ED9"/>
<path d="M40.2586 19.6068V13.7924C40.2586 11.9074 40.0594 11.1773 39.2359 10.3144C38.2797 9.27898 36.5133 8.72144 34.3219 8.72144C32.1039 8.72144 29.8726 9.25243 27.7211 10.341L29.1156 13.0225C31.3336 12.0667 32.4359 11.8012 33.9633 11.8012C36.0219 11.8012 36.8586 12.5313 36.8851 14.3234V14.8279C34.2023 15.0934 33.2992 15.1996 32.2367 15.3854C28.85 16.0492 27.2562 17.536 27.2562 20.0582C27.2562 23.045 29.8461 25.3018 33.2594 25.3018C35.0789 25.3018 36.5133 24.638 37.5359 23.3504C37.8679 24.4389 38.7578 25.1026 40.2586 25.3018L41.9586 22.7132C40.4179 22.0892 40.2586 21.7574 40.2586 19.6068ZM36.8719 19.8989C36.8719 20.8281 36.739 21.1866 36.2742 21.5848C35.6765 22.1158 34.6539 22.4875 33.7906 22.4875C32.1703 22.4875 30.8289 21.4255 30.8289 20.1246C30.8289 19.0626 31.5328 18.4387 33.0867 18.067C34.1226 17.828 34.9726 17.7351 36.8719 17.536V19.8989Z" fill="#199ED9"/>
<path d="M47.7491 19.474C47.7491 21.4254 48.1476 21.8901 49.8077 21.8901C50.3656 21.8901 51.0031 21.8237 51.6937 21.6909L52.1187 24.638C51.0296 24.93 49.7945 25.1026 48.732 25.1026C45.6109 25.1026 44.389 23.8149 44.389 20.5891V11.9605H41.507V9.07981H44.389V4.20792L47.7359 3.01318V9.07981H51.9062V11.9605H47.7491V19.474Z" fill="#199ED9"/>
<path d="M59.3171 19.474C59.3171 21.4254 59.7156 21.8901 61.3757 21.8901C61.9335 21.8901 62.571 21.8237 63.2617 21.6909L63.6867 24.638C62.5976 24.93 61.3625 25.1026 60.3 25.1026C57.1789 25.1026 55.957 23.8149 55.957 20.5891V11.9605H53.075V9.07981H55.957V4.20792L59.3039 3.01318V9.07981H63.4609V11.9605H59.3039L59.3171 19.474Z" fill="#199ED9"/>
<path d="M71.2305 8.68164C66.8211 8.68164 63.8594 12.0402 63.8594 17.0714C63.8594 21.9433 66.9805 25.3283 71.4961 25.3283C75.9188 25.3283 79 21.9167 79 17.0714C79 12.1066 75.8523 8.68164 71.2305 8.68164ZM71.3633 22.0627C68.9063 22.0627 67.2859 20.0449 67.2859 17.0183C67.2859 13.9916 68.9461 11.9074 71.4031 11.9074C73.7937 11.9074 75.3875 13.9385 75.3875 17.0183C75.3875 20.0317 73.7539 22.0627 71.3633 22.0627Z" fill="#199ED9"/>
</svg>
