<svg width="182" height="32" viewBox="0 0 182 32" fill="none" xmlns="http://www.w3.org/2000/svg">
<g clip-path="url(#clip0)">
<path d="M24.5284 7.00512H27.3697C27.5324 7.00512 27.6633 6.86935 27.6636 6.70392C27.6636 6.70285 27.6291 4.20938 27.6291 3.51597V3.50774C27.6291 2.93825 27.7458 2.44174 27.949 2.02566L28.0461 1.8388C28.0336 1.84121 28.0222 1.84767 28.0135 1.85723L22.4963 7.46284C22.4862 7.47134 22.479 7.4829 22.4757 7.49586C22.5898 7.43799 22.7458 7.35891 22.7679 7.34897C23.2484 7.12685 23.8309 7.00512 24.5284 7.00512ZM46.6231 6.39475C46.3976 5.15766 45.6797 4.54798 45.0307 4.30828C44.3304 4.04897 42.9106 3.78036 41.1266 3.56491C39.6914 3.39174 38.0045 3.40552 36.9855 3.4378C36.8631 2.57955 36.2757 1.79546 35.6182 1.52402C33.8666 0.801654 31.1604 0.976168 30.4655 1.17569C29.9133 1.3338 29.3022 1.65782 28.962 2.15716C28.7339 2.49069 28.5863 2.918 28.5852 3.51495C28.5852 3.85281 28.5944 4.64871 28.6028 5.35585C28.6111 6.06518 28.6202 6.69959 28.6202 6.70392C28.6199 7.33545 28.1203 7.84943 27.5012 7.85023H24.6613C24.0555 7.85023 23.5927 7.95453 23.2391 8.11911C22.885 8.28384 22.6342 8.50591 22.4436 8.76864C22.0643 9.29037 21.9985 9.93419 22 10.5912C22 10.5912 22.0056 11.1281 22.1319 12.1673C22.2368 12.9714 23.0879 18.5884 23.8962 20.2968C24.2097 20.9614 24.4184 21.2382 25.0342 21.5312C26.4061 22.1331 29.5398 22.8026 31.0086 22.9943C32.4746 23.1865 33.3948 23.5905 33.9431 22.4125C33.945 22.4095 34.0529 22.1194 34.2016 21.6937C34.6776 20.2156 34.7438 18.9041 34.7438 17.955C34.7438 17.8584 34.882 17.8541 34.882 17.955C34.882 18.625 34.7571 20.9962 36.5053 21.6322C37.1953 21.883 38.627 22.1066 40.0817 22.2812C41.397 22.436 42.3515 22.9664 42.3515 26.4239C42.3515 28.5273 41.9202 28.8158 39.6659 28.8158C37.8386 28.8158 37.1421 28.8643 37.1421 27.3768C37.1421 26.1746 38.3026 26.3006 39.1626 26.3006C39.5468 26.3006 39.268 26.0078 39.268 25.2661C39.268 24.5283 39.7184 24.1018 39.2924 24.091C36.3184 24.0072 34.5684 24.0876 34.5684 27.8985C34.5684 31.3581 35.8606 32.0006 40.0816 32.0006C43.3912 32.0006 44.5578 31.8896 45.9242 27.5452C46.1948 26.6876 46.8487 24.0705 47.2444 19.676C47.4948 16.8975 47.0087 8.51136 46.6231 6.39475ZM40.854 15.6641C40.4451 15.6495 40.0519 15.6759 39.6851 15.7363C39.7883 14.8823 40.1324 13.8344 41.3512 13.8782C42.7003 13.9258 42.8894 15.2323 42.8942 16.1172C42.3253 15.8573 41.621 15.6918 40.854 15.6641Z" fill="#807F83"/>
<path d="M143.055 10.4617C143.578 10.4617 144 10.8963 144 11.4302C144 11.9658 143.578 12.4016 143.055 12.4016C142.53 12.4016 142.109 11.9658 142.109 11.4302C142.109 10.8963 142.53 10.4617 143.055 10.4617ZM143.055 12.2305C143.477 12.2305 143.823 11.8771 143.823 11.4302C143.823 10.9836 143.477 10.6309 143.055 10.6309C142.632 10.6309 142.286 10.9836 142.286 11.4302C142.286 11.8771 142.632 12.2305 143.055 12.2305ZM142.651 10.8762H143.067C143.334 10.8762 143.473 10.9718 143.473 11.1953C143.473 11.3975 143.348 11.4817 143.194 11.5109L143.485 11.9846H143.281L142.997 11.5198H142.83V11.9846H142.651V10.8762H142.651ZM142.83 11.3504H143.067C143.24 11.3504 143.293 11.29 143.293 11.1861C143.293 11.0832 143.208 11.0463 143.067 11.0463H142.83V11.3504Z" fill="#7AC143"/>
<path d="M51.1787 20.3872H52.4502L52.5115 12.0642H51.1787V10.4673H59.6083L59.711 13.7038H58.0496L57.9063 12.0642H54.7267L54.7061 15.3215H57.9266V16.9192H54.6858L54.6656 20.3871H57.8653L58.0706 18.5367H59.8754L59.6703 21.9838H51.1787V20.3872ZM73.1254 12.0642H72.0591L68.0586 21.9839H65.7619L61.7412 12.0642H60.6131V10.4673H65.4135V12.0642H64.2852L67.054 19.8827H67.0946L69.8434 12.0642H68.4902V10.4673H73.1254V12.0642ZM74.2328 20.3872H75.5042L75.566 12.0642H74.2328V10.4673H82.6624L82.7651 13.7038H81.1039L80.9601 12.0642H77.7807L77.7602 15.3215H80.9808V16.9192H77.7402L77.7192 20.3871H80.9188L81.1246 18.5367H82.9295L82.7242 21.9838H74.2329L74.2328 20.3872ZM85.0422 20.3872H86.3136L86.3751 12.0642H85.0422V10.4673H90.2315C92.8372 10.4673 93.6772 12.0016 93.6772 13.4934C93.6772 14.8175 93.0419 16.0156 91.0312 16.5409V16.5827C92.0772 16.8767 92.3448 17.1502 93.3906 18.9998C94.0872 20.198 94.3334 20.3871 94.7238 20.3871C94.8875 20.3871 95.0514 20.3447 95.1952 20.3241V21.9838H94.0462C92.5281 21.9838 92.3447 21.7954 91.1552 19.3777C90.0875 17.2343 89.8414 17.0875 89.0209 17.0875H88.5705L88.5495 20.3872H89.8821V21.9839H85.042V20.3871H85.0422V20.3872ZM88.5913 15.4897H89.4727C90.6824 15.4897 91.5025 14.8175 91.5025 13.7461C91.5025 12.6951 90.9907 12.0642 89.9645 12.0642H88.6102L88.5913 15.4897ZM105.513 12.0642H104.179V10.4673H108.589V12.0642H107.317L107.255 21.9839H105.573L99.5635 13.7877H99.5228L99.4608 20.3872H100.795V21.9839H96.3846V20.3872H97.6564L97.7179 12.0641H96.3848V10.4673H99.7077L105.41 18.2643H105.451L105.513 12.0642ZM114.968 10.2354C118.845 10.2354 120.547 12.8625 120.547 16.0577C120.547 19.6933 118.434 22.2147 114.968 22.2147C111.091 22.2147 109.388 19.588 109.388 16.3733C109.388 12.7586 111.5 10.2354 114.968 10.2354ZM114.968 20.3658C117.059 20.3658 118.249 18.5368 118.249 16.2042C118.249 13.578 116.855 12.0858 114.968 12.0858C112.875 12.0858 111.686 13.9139 111.686 16.2888C111.686 18.8739 113.081 20.3658 114.968 20.3658ZM124.074 20.3872H125.345L125.407 12.0642H123.152L123.068 13.7038H121.367L121.489 10.4673H131.561L131.684 13.7038H129.981L129.899 12.0642H127.643L127.581 20.3872H128.914V21.9839H124.075V20.3872H124.074ZM132.934 20.3872H134.206L134.268 12.0642H132.934V10.4673H141.365L141.467 13.7038H139.806L139.663 12.0642H136.483L136.463 15.3215H139.682V16.9192H136.442L136.421 20.3871H139.621L139.827 18.5367H141.631L141.427 21.9838H132.934V20.3872Z" fill="#7AC143"/>
</g>
<defs>
<clipPath id="clip0">
<rect width="182" height="32.0006" fill="white"/>
</clipPath>
</defs>
</svg>
