<svg width="64" height="64" viewBox="0 0 64 64" fill="none" xmlns="http://www.w3.org/2000/svg">
<circle cx="32" cy="32" r="32" fill="#F6DA76"/>
<path d="M25.6839 16.3416C26.6334 15.3921 26.0456 14.3521 25.0056 14.3069C23.2874 14.2164 22.2926 12.3626 23.6943 10.8252C25.2317 9.42349 27.0856 10.4183 27.176 12.1365C27.2212 13.1765 28.2612 13.7643 29.2107 12.8147L31.5168 10.5087C32.195 9.83044 33.3254 9.83044 34.0037 10.5087L36.3097 12.8147C37.2593 13.7643 38.2992 13.1765 38.3445 12.1365C38.4349 10.4183 40.2888 9.42349 41.8261 10.8704C43.2278 12.4078 42.2783 14.2616 40.5148 14.3521C39.4749 14.3973 38.887 15.4373 39.8366 16.3868L42.1878 18.7381C42.8661 19.4163 42.8661 20.5467 42.1878 21.225L42.1426 21.2702L40.4696 22.9432C40.2888 22.4006 39.9722 21.858 39.5653 21.4511C38.1184 20.0041 35.948 20.0493 34.3654 21.5415L34.3202 21.5867L34.275 21.6319C32.7828 23.2145 32.7828 25.4301 34.1845 26.8318C34.5915 27.2388 35.0889 27.5553 35.6767 27.7361L34.0489 29.3639C33.3254 30.0422 32.195 30.0422 31.5168 29.3639L29.2107 27.0579C28.2612 26.1083 27.2212 26.6962 27.176 27.7361C27.0856 29.4091 25.2317 30.3587 23.6943 28.957C22.2926 27.4196 23.2422 25.5658 24.9604 25.4753C26.0004 25.4301 26.5882 24.3901 25.6386 23.4406L23.3326 21.1345C22.6544 20.4563 22.6544 19.3259 23.3326 18.6476L25.6839 16.3416Z" fill="#FF9D0A"/>
<path d="M17.4092 38.769C16.4597 37.8194 15.4197 38.4072 15.3745 39.4472C15.2841 41.1654 13.4302 42.1602 11.8928 40.7585C10.4911 39.2211 11.4859 37.3673 13.2041 37.2768C14.2441 37.2316 14.8319 36.1916 13.8823 35.2421L11.5763 32.936C10.8981 32.2578 10.8981 31.1274 11.5763 30.4491L13.8823 28.1431C14.8319 27.1936 14.2441 26.1536 13.2041 26.1084C11.4859 26.0179 10.4911 24.1641 11.938 22.6267C13.4754 21.225 15.3293 22.1745 15.4197 23.938C15.4649 24.978 16.5049 25.5658 17.4544 24.6162L19.8057 22.265C20.4839 21.5867 21.6144 21.5867 22.2926 22.265L22.3378 22.3102L24.0108 23.9832C23.4682 24.1641 22.9256 24.4806 22.5187 24.8875C21.0718 26.3345 21.117 28.5048 22.6091 30.0874L22.6543 30.1326L22.6995 30.1778C24.2821 31.67 26.4977 31.67 27.8994 30.2683C28.3064 29.8613 28.6229 29.3639 28.8038 28.7761L30.4316 30.4039C31.1098 31.1274 31.1098 32.2578 30.4316 32.936L28.1255 35.2421C27.176 36.1916 27.7638 37.2316 28.8038 37.2768C30.4768 37.3673 31.4263 39.2211 30.0246 40.7585C28.4873 42.1602 26.6334 41.2107 26.5429 39.4924C26.4977 38.4525 25.4578 37.8646 24.5082 38.8142L22.2022 41.1202C21.5239 41.7985 20.3935 41.7985 19.7153 41.1202L17.4092 38.769Z" fill="#FF9D0A"/>
<path d="M34.0348 33.5551C33.3565 32.8768 32.1809 32.8316 31.5027 33.5551L29.8749 35.1829C30.4175 35.3637 30.9601 35.6802 31.367 36.0872C32.814 37.5341 32.7687 39.7045 31.2766 41.2871L31.2314 41.3323L31.1862 41.3775C29.6036 42.8697 27.388 42.8697 25.9863 41.4679C25.5793 41.061 25.2628 40.5636 25.0819 39.9758L23.4089 41.6488L23.3637 41.694C22.6855 42.3723 22.6855 43.5027 23.3637 44.1809L25.715 46.5322C26.6645 47.4817 26.0767 48.5217 25.0367 48.5669C23.3185 48.6574 22.3237 50.5112 23.7254 52.0486C25.2628 53.4503 27.1167 52.5008 27.2071 50.7825C27.2523 49.7426 28.2923 49.1547 29.2419 50.1043L31.5479 52.4103C32.2261 53.0886 33.3565 53.0886 34.0348 52.4103L36.3408 50.1043C37.2904 49.1547 38.3304 49.7426 38.3756 50.7825C38.466 52.5008 40.3199 53.4955 41.8572 52.0938C43.2589 50.5564 42.3094 48.7026 40.546 48.6121C39.506 48.5669 38.9182 47.5269 39.8677 46.5774L42.1737 44.2714C42.852 43.5931 42.852 42.4627 42.1737 41.7845L39.8677 39.4784C38.9182 38.5289 39.4608 37.5341 40.546 37.4437C42.2642 37.3533 43.2589 35.4994 41.812 33.962C40.2747 32.5603 38.4208 33.5099 38.3304 35.2281C38.2851 36.2681 37.2452 36.8559 36.2956 35.9063L34.0348 33.5551Z" fill="#FF9D0A"/>
<path d="M35.106 30.4035C34.4277 31.0817 34.3825 32.2574 35.106 32.9356L36.7338 34.5634C36.9146 34.0208 37.2311 33.4782 37.6381 33.0713C39.085 31.6243 41.2554 31.6696 42.838 33.1617L42.8832 33.2069L42.9284 33.2521C44.4206 34.8347 44.4206 37.0503 43.0189 38.452C42.6119 38.859 42.1145 39.1755 41.5267 39.3563L43.1997 41.0294L43.2449 41.0746C43.9232 41.7528 45.0536 41.7528 45.7318 41.0746L48.0831 38.7233C49.0326 37.7738 50.0726 38.3616 50.1178 39.4016C50.2083 41.1198 52.0621 42.1146 53.5995 40.7128C55.0012 39.1755 54.0517 37.3216 52.3334 37.2312C51.2935 37.186 50.7056 36.146 51.6552 35.1964L53.9612 32.8904C54.6395 32.2122 54.6395 31.0817 53.9612 30.4035L51.6552 28.0975C50.7056 27.1479 51.2935 26.1079 52.3334 26.0627C54.0517 25.9723 55.0464 24.1184 53.6447 22.5811C52.1073 21.1793 50.2535 22.1289 50.163 23.8923C50.1178 24.9323 49.0779 25.5201 48.1283 24.5706L45.8223 22.2645C45.144 21.5863 44.0136 21.5863 43.3354 22.2645L41.0293 24.5706C40.0798 25.5201 39.085 24.9775 38.9946 23.8923C38.9042 22.1741 37.0503 21.1793 35.5129 22.6263C34.1112 24.1636 35.0608 26.0175 36.779 26.1079C37.819 26.1532 38.4068 27.1931 37.4572 28.1427L35.106 30.4035Z" fill="#593F7A"/>
</svg>
