<svg width="64" height="64" viewBox="0 0 64 64" fill="none" xmlns="http://www.w3.org/2000/svg">
<circle cx="32" cy="32" r="32" fill="#9AE0EF"/>
<path d="M27 11.8868C30.094 10.1004 33.906 10.1004 37 11.8868L46.9186 17.6132C50.0126 19.3996 51.9186 22.7008 51.9186 26.2735V37.7265C51.9186 41.2992 50.0126 44.6004 46.9186 46.3868L37 52.1132C33.906 53.8996 30.094 53.8996 27 52.1133L17.0814 46.3868C13.9874 44.6004 12.0814 41.2992 12.0814 37.7265V26.2735C12.0814 22.7008 13.9874 19.3996 17.0814 17.6132L27 11.8868Z" fill="white"/>
<path d="M28.3588 25.6934C30.6121 24.3924 33.3883 24.3924 35.6416 25.6934C37.8949 26.9943 39.2829 29.3985 39.2829 32.0004C39.2829 34.6023 37.8949 37.0065 35.6416 38.3075C33.3883 39.6084 30.6121 39.6084 28.3588 38.3075C26.1055 37.0065 24.7174 34.6023 24.7174 32.0004C24.7174 29.3985 26.1055 26.9943 28.3588 25.6934Z" fill="white" stroke="#C4CED7"/>
<rect x="32" y="12" width="0.304636" height="40.78" fill="#C4CED7"/>
<rect width="0.2803" height="41.2041" transform="matrix(0.492445 0.870343 -0.870344 0.492444 49.8613 21.7344)" fill="#C4CED7"/>
<rect width="0.2803" height="41.2041" transform="matrix(-0.492445 0.870343 0.870344 0.492445 14.1387 21.7344)" fill="#C4CED7"/>
<path d="M31.8481 32.151V12.959L51.3448 21.0318L31.8481 32.151Z" fill="#4EABC0"/>
<path d="M18.4443 24.3828L32.0006 12.959V31.9987L18.4443 24.3828Z" fill="#5ABFD5"/>
<path fill-rule="evenodd" clip-rule="evenodd" d="M45.9186 19.3452L36 13.6187C33.5248 12.1896 30.4752 12.1896 28 13.6187L18.0814 19.3452C15.6062 20.7742 14.0814 23.4152 14.0814 26.2734V37.7264C14.0814 40.5845 15.6062 43.2255 18.0814 44.6546L28 50.3811C30.4752 51.8101 33.5248 51.8101 36 50.3811L45.9186 44.6546C48.3938 43.2255 49.9186 40.5845 49.9186 37.7264V26.2734C49.9186 23.4152 48.3938 20.7742 45.9186 19.3452ZM37 11.8866C33.906 10.1003 30.094 10.1003 27 11.8866L17.0814 17.6131C13.9874 19.3994 12.0814 22.7007 12.0814 26.2734V37.7264C12.0814 41.299 13.9874 44.6003 17.0814 46.3866L27 52.1131C30.094 53.8994 33.906 53.8994 37 52.1131L46.9186 46.3866C50.0126 44.6003 51.9186 41.299 51.9186 37.7264V26.2734C51.9186 22.7007 50.0126 19.3994 46.9186 17.6131L37 11.8866Z" fill="#07333C"/>
<path d="M21.4907 37.9411L18.4443 24.3848L32.0006 32.0007L21.4907 37.9411Z" fill="#4EABC0"/>
<path d="M31.9999 47.6876V31.5566L21.6423 37.787L31.9999 47.6876Z" fill="#5ABFD5"/>
<path d="M32 47.3841V32L39.1589 36.1126L32 47.3841Z" fill="#4EABC0"/>
<path d="M51.2404 20.9434L32 32.0011L39.0769 36.203L51.2404 20.9434Z" fill="#5ABFD5"/>
</svg>
