<svg width="64" height="64" viewBox="0 0 64 64" fill="none" xmlns="http://www.w3.org/2000/svg">
<circle cx="32" cy="32" r="32" fill="#BCCFFF"/>
<rect x="7.75781" y="20.3633" width="47.5152" height="24.2424" rx="12.1212" fill="#6C23E3"/>
<path fill-rule="evenodd" clip-rule="evenodd" d="M43.1517 22.1633H19.879C14.1788 22.1633 9.55781 26.7842 9.55781 32.4845C9.55781 38.1847 14.1788 42.8057 19.879 42.8057H43.1517C48.852 42.8057 53.473 38.1847 53.473 32.4845C53.473 26.7842 48.852 22.1633 43.1517 22.1633ZM19.879 20.3633C13.1847 20.3633 7.75781 25.7901 7.75781 32.4845C7.75781 39.1789 13.1847 44.6057 19.879 44.6057H43.1517C49.8461 44.6057 55.273 39.1789 55.273 32.4845C55.273 25.7901 49.8461 20.3633 43.1517 20.3633H19.879Z" fill="black"/>
<path d="M19.1646 38.9643C22.1773 38.9643 24.3292 37.5179 24.3292 35.2857V35.25C24.3292 33.6964 23.4505 32.8571 22.1773 32.2679C23.1456 31.7321 23.8988 30.9107 23.8988 29.5536V29.5179C23.8988 27.5179 21.98 26.0357 19.1646 26.0357C16.3492 26.0357 14.4304 27.5179 14.4304 29.5179V29.5536C14.4304 30.9107 15.1836 31.7321 16.1519 32.2679C14.807 32.8393 14 33.75 14 35.2679V35.3036C14 37.4821 16.1519 38.9643 19.1646 38.9643ZM19.1646 31.3214C18.2321 31.3214 17.6224 30.7321 17.6224 29.9464V29.9107C17.6224 29.2143 18.2142 28.6071 19.1646 28.6071C20.115 28.6071 20.7068 29.2321 20.7068 29.9286V29.9643C20.7068 30.75 20.0971 31.3214 19.1646 31.3214ZM19.1646 36.375C17.999 36.375 17.3534 35.7143 17.3534 34.9643V34.9286C17.3534 34.125 18.1066 33.5714 19.1646 33.5714C20.2226 33.5714 20.9758 34.125 20.9758 34.9286V34.9643C20.9758 35.7143 20.3302 36.375 19.1646 36.375Z" fill="white"/>
<path d="M25.403 38.75H35.3377V35.9286H30.1552L32.3071 34.4286C34.1721 33.0893 35.2121 32.0536 35.2121 30.0536V30.0179C35.2121 27.6607 33.3292 26.0357 30.5855 26.0357C28.1467 26.0357 26.8197 26.9821 25.4748 28.7143L27.8239 30.6607C28.8102 29.5357 29.4737 29.0536 30.3165 29.0536C31.1594 29.0536 31.7153 29.5357 31.7153 30.3214C31.7153 31.0714 31.267 31.6607 30.1014 32.5714L25.403 36.1429V38.75Z" fill="white"/>
<path d="M42.5291 39C46.1156 39 48.3571 36.0357 48.3571 32.5V32.4643C48.3571 28.9286 46.1335 26 42.5649 26C38.9963 26 36.7368 28.9643 36.7368 32.5V32.5357C36.7368 36.0714 38.9425 39 42.5291 39ZM42.5649 35.9286C41.1662 35.9286 40.2337 34.5 40.2337 32.5V32.4643C40.2337 30.4643 41.1482 29.0714 42.5291 29.0714C43.9099 29.0714 44.8603 30.5179 44.8603 32.5V32.5357C44.8603 34.5179 43.9637 35.9286 42.5649 35.9286Z" fill="white"/>
</svg>
