<svg width="64" height="64" viewBox="0 0 64 64" fill="none" xmlns="http://www.w3.org/2000/svg">
<circle cx="32" cy="32" r="32" fill="#F2BCFF"/>
<path d="M28.1066 19.0839H37.0153C37.1357 19.0839 37.3163 19.0237 37.3765 18.9033C37.4969 18.7829 37.4969 18.6626 37.4969 18.5422L37.1357 17.2781C36.8949 16.3752 36.1726 15.7732 35.2697 15.6529L34.4872 15.4723L34.2464 14.8101C34.9085 14.3888 35.3901 13.6664 35.5707 12.8237C35.8114 12.7033 36.1726 12.4024 36.1726 11.6198C36.1726 11.0781 36.1124 10.7169 35.8716 10.5363C35.8114 10.4762 35.8114 10.4762 35.7512 10.416C35.5707 8.73052 34.2464 7.40625 32.561 7.40625C30.8755 7.40625 29.5512 8.73052 29.3707 10.416C29.3105 10.416 29.2503 10.4762 29.2503 10.4762C29.0697 10.6567 28.9493 11.0179 28.9493 11.5596C28.9493 12.3422 29.3105 12.6431 29.5512 12.7635C29.7318 13.6062 30.2134 14.2684 30.8755 14.7499L30.6347 15.4121L29.8522 15.5325C28.9493 15.6529 28.227 16.315 27.9862 17.1577L27.625 18.4218C27.5648 18.5422 27.625 18.7228 27.6852 18.8431C27.8658 19.0237 27.9862 19.0839 28.1066 19.0839ZM31.1163 15.7732L31.3571 15.1111C31.7182 15.2917 32.1396 15.4121 32.6211 15.4121C33.0425 15.4121 33.4639 15.2917 33.825 15.1111L34.0658 15.7732C33.1629 16.3752 31.959 16.3752 31.1163 15.7732ZM30.0328 12.5829C30.0328 12.4626 29.9124 12.4024 29.8522 12.4024C29.792 12.4024 29.4911 12.282 29.4911 11.68C29.4911 11.3791 29.5512 11.1985 29.5512 11.0781C29.6114 11.0781 29.6114 11.0781 29.6114 11.0781C29.6114 11.1383 29.6716 11.4995 29.7318 11.4995H30.093C30.2134 11.4995 30.2736 11.4393 30.2736 11.3189C30.2736 11.3189 30.3338 10.3558 30.4542 9.75382C30.4542 9.63343 30.5745 9.51305 30.6949 9.57324C31.1765 9.69363 31.8386 9.75382 32.561 9.75382C33.2833 9.75382 33.9454 9.69363 34.427 9.57324C34.5474 9.51305 34.6677 9.63343 34.6677 9.75382C34.7279 10.3558 34.8483 11.3189 34.8483 11.3189C34.8483 11.3791 34.9085 11.4995 34.9687 11.4995H35.3299C35.3901 11.4995 35.4503 11.1383 35.4503 11.0781H35.5105C35.5707 11.1985 35.5707 11.3189 35.5707 11.68C35.5707 12.282 35.2697 12.4024 35.2095 12.4024C35.0891 12.4024 35.0289 12.5228 35.0289 12.5829C34.7881 13.9072 33.7046 14.8101 32.5008 14.8101C31.3571 14.8101 30.2736 13.9072 30.0328 12.5829Z" fill="#D22DFC"/>
<path d="M14.8798 19.2808C14.8798 19.5817 15.0604 19.8827 15.4216 20.2439C15.6022 20.4245 15.7828 20.5449 15.9633 20.605C16.2041 21.0264 16.5051 21.6283 16.6255 22.1099C16.6857 22.2303 16.7459 22.2905 16.8663 22.2905C17.408 22.1099 18.1303 21.6283 18.7925 21.1468C18.8527 21.1468 18.9129 21.1468 18.973 21.0866L19.274 21.7487L18.7925 22.4109C18.2507 23.1332 18.1905 24.0963 18.6721 24.8788L19.3342 26.0225C19.3944 26.1429 19.5148 26.2031 19.6954 26.2633C19.8158 26.2633 19.9964 26.2031 20.0565 26.1429L26.3769 19.8225C26.4973 19.7021 26.5575 19.5817 26.4973 19.4614C26.4973 19.341 26.3769 19.2206 26.2565 19.1002L25.173 18.4381C24.3905 17.9565 23.4274 18.0167 22.7051 18.5584L22.043 19.04L21.3808 18.739C21.3808 18.6788 21.3808 18.6186 21.441 18.5584C21.9226 17.8963 22.4041 17.174 22.5245 16.6322C22.5245 16.5118 22.4643 16.4516 22.3439 16.3915C21.8624 16.2711 21.2604 15.9701 20.8391 15.7293C20.7789 15.5487 20.6585 15.3682 20.4779 15.1876C20.1167 14.8264 19.8158 14.6458 19.5148 14.6458C19.4546 14.6458 19.3944 14.6458 19.3342 14.6458C18.0099 13.5623 16.0837 13.5623 14.94 14.7662C13.7362 15.9701 13.7362 17.8361 14.8197 19.1604C14.8798 19.1604 14.8798 19.2206 14.8798 19.2808ZM21.9226 19.5817C21.742 20.6652 20.8993 21.508 19.876 21.6283L19.5148 20.9662C19.9362 20.8458 20.2973 20.605 20.5983 20.3041C20.8993 20.0031 21.14 19.6419 21.2604 19.2206L21.9226 19.5817ZM15.6624 17.9565C15.7226 18.0167 15.843 17.9565 15.9031 17.8963L18.1905 15.6089C18.2507 15.5487 18.2507 15.4283 18.2507 15.3682L18.0701 14.8866C18.5517 15.2478 19.0934 15.7293 19.9362 15.9099C19.7556 15.6691 19.6352 15.3682 19.575 15.1274H19.6352C19.6954 15.1274 19.8158 15.1274 20.2371 15.5487C20.6585 15.9701 20.5381 16.2711 20.4779 16.3313C20.4177 16.3915 20.4177 16.5118 20.4779 16.6322C21.2002 17.7157 21.14 19.1604 20.2973 20.0031C19.4546 20.8458 18.0099 20.9662 16.9264 20.1837C16.8663 20.1235 16.7459 20.1235 16.6255 20.1837C16.5653 20.1837 16.2643 20.3643 15.843 19.9429C15.4818 19.5817 15.4216 19.4012 15.4216 19.341C15.4216 19.341 15.4216 19.341 15.4216 19.2808C15.6022 19.341 15.9031 19.4614 16.2041 19.6419C16.0235 18.7992 15.542 18.1973 15.1808 17.7759L15.6624 17.9565Z" fill="#D22DFC"/>
<path d="M15.5863 35.3361C15.7067 36.239 16.3688 36.9613 17.2116 37.2021L18.4756 37.5633C18.596 37.6234 18.7766 37.5632 18.897 37.5031C19.0174 37.4429 19.0776 37.2623 19.0776 37.1419V28.173C19.0776 28.0526 19.0174 27.872 18.897 27.8118C18.7766 27.6914 18.6562 27.6914 18.5358 27.6914L17.2717 28.0526C16.3688 28.2933 15.7669 29.0157 15.6465 29.9186L15.4659 30.7011L14.8038 30.9419C14.3824 30.2798 13.6601 29.7982 12.8174 29.6176C12.697 29.3768 12.396 29.0157 11.6135 29.0157C11.0717 29.0157 10.7106 29.1361 10.53 29.3166C10.4698 29.3768 10.4698 29.3768 10.4096 29.437C8.72417 29.6176 7.3999 30.9419 7.3999 32.6273C7.3999 34.3128 8.72417 35.637 10.4096 35.8176C10.4096 35.8778 10.4698 35.938 10.4698 35.938C10.6504 36.1186 11.0116 36.239 11.5533 36.239C12.3358 36.239 12.6368 35.8778 12.7572 35.637C13.5999 35.4565 14.262 34.9749 14.7436 34.3128L15.4057 34.5535L15.5863 35.3361ZM12.5766 35.1555C12.4562 35.1555 12.396 35.2759 12.396 35.3361C12.396 35.3963 12.2756 35.6972 11.6737 35.6972C11.3727 35.6972 11.1921 35.637 11.0717 35.637C11.0717 35.5768 11.0717 35.5768 11.0717 35.5768C11.1319 35.5768 11.4931 35.5166 11.4931 35.4565V35.0953C11.4931 34.9749 11.4329 34.9147 11.3125 34.9147C11.3125 34.9147 10.3494 34.8545 9.74747 34.7341C9.62709 34.7341 9.5067 34.6137 9.56689 34.4933C9.68728 34.0118 9.74747 33.3497 9.74747 32.6273C9.74747 31.905 9.68728 31.2429 9.56689 30.7613C9.5067 30.6409 9.62709 30.5205 9.74747 30.5205C10.3494 30.4603 11.3125 30.34 11.3125 30.34C11.3727 30.34 11.4931 30.2798 11.4931 30.2196V29.8584C11.4931 29.7982 11.1319 29.738 11.0717 29.738V29.6778C11.1921 29.6176 11.3125 29.6176 11.6737 29.6176C12.2756 29.6176 12.396 29.9186 12.396 29.9788C12.396 30.0992 12.5164 30.1594 12.5766 30.1594C13.9009 30.4001 14.8038 31.4836 14.8038 32.6875C14.8038 33.8312 13.9009 34.9147 12.5766 35.1555ZM15.0446 31.3632L15.7067 31.1225C16.3688 32.0254 16.3688 33.1691 15.7067 34.072L15.0446 33.8312C15.2251 33.47 15.3455 33.0487 15.3455 32.5671C15.3455 32.1458 15.2251 31.7846 15.0446 31.3632Z" fill="#D22DFC"/>
<path d="M19.9964 38.0678C19.876 37.9474 19.7556 37.8872 19.6352 37.9474C19.5148 37.9474 19.3944 38.0678 19.274 38.1882L18.6119 39.2717C18.1303 40.0542 18.1905 41.0173 18.7323 41.7397L19.2138 42.4018L18.9129 43.0639C18.8527 43.0639 18.7925 43.0639 18.7323 43.0037C18.0701 42.5222 17.3478 42.0406 16.8061 41.9203C16.6857 41.9203 16.5653 41.9804 16.5653 42.1008C16.4449 42.5824 16.1439 43.1843 15.9031 43.6057C15.7226 43.6659 15.542 43.7863 15.3614 43.9669C15.0002 44.328 14.8197 44.629 14.8197 44.93C14.8197 44.9902 14.8197 45.0504 14.8197 45.1105C13.7362 46.4348 13.7362 48.361 14.94 49.5047C16.1439 50.7086 18.0099 50.7086 19.3342 49.6251C19.3944 49.6251 19.4546 49.6251 19.4546 49.6251C19.7556 49.6251 20.0565 49.4445 20.4177 49.0834C20.5983 48.9028 20.7187 48.7222 20.7789 48.5416C21.2002 48.3008 21.8022 47.9999 22.2837 47.8795C22.4041 47.8193 22.4643 47.7591 22.4643 47.6387C22.2837 47.097 21.8022 46.3746 21.3808 45.7125C21.3808 45.6523 21.3808 45.5921 21.3206 45.5319L21.9828 45.2309L22.6449 45.7125C23.3672 46.2542 24.3303 46.3144 25.1129 45.8329L26.2565 45.1707C26.3769 45.1105 26.4371 44.9902 26.4973 44.8096C26.4973 44.6892 26.4371 44.5086 26.3769 44.4484L19.9964 38.0678ZM20.3575 47.5785C20.2973 47.6387 20.2973 47.7591 20.3575 47.8795C20.3575 47.9397 20.5381 48.2406 20.1167 48.662C19.7556 49.0232 19.575 49.0834 19.5148 49.0834C19.5148 49.0834 19.5148 49.0834 19.4546 49.0834C19.5148 48.9028 19.6352 48.6018 19.8158 48.3008C18.973 48.4814 18.3711 48.963 17.9497 49.3241L18.1303 48.8426C18.1905 48.7824 18.1303 48.662 18.0701 48.6018L15.7828 46.3144C15.7226 46.2542 15.6022 46.2542 15.542 46.2542L15.0604 46.4348C15.4216 45.9533 15.9031 45.4115 16.0837 44.5688C15.843 44.7494 15.542 44.8698 15.3012 44.93V44.8698C15.3012 44.8096 15.3012 44.6892 15.7226 44.2678C16.1439 43.8465 16.4449 43.9669 16.5051 44.0271C16.5653 44.0872 16.6857 44.0872 16.8061 44.0271C17.8896 43.3047 19.3342 43.3649 20.1769 44.2076C21.0197 45.1105 21.0798 46.495 20.3575 47.5785ZM21.14 44.93C21.0197 44.5086 20.7789 44.1474 20.4779 43.8465C20.1769 43.5455 19.8158 43.3047 19.3944 43.1843L19.7556 42.5222C20.8391 42.7028 21.6818 43.5455 21.8022 44.5688L21.14 44.93Z" fill="#D22DFC"/>
<path d="M37.2563 45.1484H28.3475C28.2271 45.1484 28.0465 45.2086 27.9864 45.329C27.866 45.4494 27.866 45.5698 27.866 45.7504L28.2271 47.0145C28.4679 47.9174 29.1902 48.5193 30.0932 48.6397L30.8757 48.7601L31.1165 49.4222C30.4543 49.8436 29.9728 50.5659 29.7922 51.4086C29.5514 51.529 29.1902 51.83 29.1902 52.6125C29.1902 53.1543 29.2504 53.5154 29.4912 53.696C29.5514 53.7562 29.5514 53.7562 29.6116 53.8164C29.7922 55.5018 31.1165 56.8261 32.8019 56.8261C34.4873 56.8261 35.8116 55.5018 35.9922 53.8164C36.0524 53.8164 36.1126 53.7562 36.1126 53.7562C36.2932 53.5756 36.4135 53.2145 36.4135 52.6727C36.4135 51.8902 36.0524 51.5892 35.8116 51.4688C35.631 50.6261 35.1495 49.964 34.4873 49.4824L34.7281 48.8203L35.5106 48.6999C36.4135 48.5795 37.1359 47.9174 37.3766 47.0746L37.7378 45.8106C37.798 45.6902 37.7378 45.5096 37.6776 45.3892C37.497 45.2086 37.3766 45.1484 37.2563 45.1484ZM34.2465 48.4591L34.0058 49.1814C33.6446 49.0009 33.2232 48.8805 32.7417 48.8805C32.3203 48.8805 31.899 49.0009 31.5378 49.1814L31.297 48.5193C32.1999 47.8572 33.4038 47.8572 34.2465 48.4591ZM35.33 51.6494C35.33 51.7698 35.4504 51.83 35.5106 51.83C35.5708 51.83 35.8718 51.9504 35.8718 52.5523C35.8718 52.8533 35.8116 53.0339 35.8116 53.1543C35.7514 53.1543 35.7514 53.1543 35.7514 53.1543C35.7514 53.0941 35.6912 52.7329 35.631 52.7329H35.2698C35.2097 52.7329 35.1495 52.7931 35.1495 52.9135C35.1495 52.9135 35.0893 53.8766 34.9689 54.4785C34.9689 54.5989 34.8485 54.7193 34.7281 54.6591C34.2465 54.5387 33.5844 54.4785 32.8621 54.4785C32.1398 54.4785 31.4776 54.5387 30.9961 54.6591C30.8757 54.7193 30.7553 54.5989 30.7553 54.4785C30.6951 53.8766 30.5747 52.9135 30.5747 52.9135C30.5747 52.8533 30.5145 52.7329 30.4543 52.7329H30.0932C30.033 52.7329 29.9728 53.0941 29.9728 53.1543H29.9126C29.8524 53.0339 29.8524 52.9135 29.8524 52.5523C29.8524 51.9504 30.1533 51.83 30.2135 51.83C30.3339 51.83 30.3941 51.7096 30.3941 51.6494C30.6349 50.3251 31.7184 49.4222 32.9223 49.4222C34.0058 49.4222 35.0893 50.3251 35.33 51.6494Z" fill="#D22DFC"/>
<path d="M50.3423 44.9665C50.3423 44.6656 50.1617 44.3646 49.8005 44.0034C49.6199 43.8229 49.4393 43.7025 49.2588 43.6423C49.018 43.2209 48.717 42.619 48.5966 42.1374C48.5364 42.017 48.4762 41.9568 48.3559 41.9568C47.8141 42.1374 47.0918 42.619 46.4296 43.0403C46.3694 43.0403 46.3093 43.0403 46.2491 43.1005L45.9481 42.4384L46.4296 41.7763C46.9714 41.0539 47.0316 40.0908 46.55 39.3083L45.8879 38.1646C45.8277 38.0442 45.7073 37.984 45.5267 37.9238C45.4063 37.9238 45.2258 37.984 45.1656 38.0442L38.8452 44.4248C38.7248 44.5452 38.6646 44.6656 38.7248 44.786C38.7248 44.9063 38.8452 45.0267 38.9656 45.1471L40.1092 45.8093C40.8918 46.2908 41.8549 46.2306 42.5772 45.6889L43.2393 45.2073L43.9015 45.5083C43.9015 45.5685 43.9015 45.6287 43.8413 45.6889C43.3597 46.351 42.8782 47.0733 42.7578 47.6151C42.7578 47.7355 42.818 47.8559 42.9384 47.8559C43.4199 47.9763 44.0219 48.2772 44.4432 48.518C44.5034 48.6986 44.6238 48.8792 44.8044 49.0597C45.1656 49.4209 45.4665 49.6015 45.7675 49.6015C45.8277 49.6015 45.8879 49.6015 45.9481 49.6015C47.2724 50.685 49.1986 50.685 50.3423 49.4811C51.5461 48.2772 51.5461 46.4112 50.4626 45.0869C50.3423 45.0869 50.3423 45.0267 50.3423 44.9665ZM43.2995 44.6656C43.4801 43.5821 44.3228 42.7394 45.3461 42.619L45.7073 43.2811C45.286 43.4015 44.9248 43.6423 44.6238 43.9432C44.3228 44.2442 44.0821 44.6054 43.9617 45.0267L43.2995 44.6656ZM49.5597 46.2908C49.4995 46.2306 49.3792 46.2908 49.319 46.351L47.0316 48.6384C46.9714 48.6986 46.9714 48.819 46.9714 48.8792L47.152 49.3607C46.6704 48.9996 46.1287 48.518 45.2859 48.3374C45.4665 48.5782 45.5869 48.8792 45.6471 49.1199H45.5869C45.5267 49.1199 45.4063 49.1199 44.985 48.6986C44.5636 48.2772 44.684 47.9763 44.7442 47.9161C44.8044 47.8559 44.8044 47.7355 44.7442 47.6151C44.0219 46.5316 44.0821 45.0869 44.9248 44.2442C45.7675 43.4015 47.2122 43.2811 48.2957 44.0636C48.3559 44.1238 48.4762 44.1238 48.5966 44.0636C48.6568 44.0636 48.9578 43.883 49.3792 44.3044C49.7403 44.6656 49.8005 44.8462 49.8005 44.9064C49.8005 44.9064 49.8005 44.9064 49.8005 44.9665C49.6199 44.9064 49.319 44.786 49.018 44.6054C49.1986 45.4481 49.6801 46.05 50.0413 46.4714L49.5597 46.2908Z" fill="#D22DFC"/>
<path d="M43.8333 25.8333L38.5 26.5L43.2667 32.8333L45.5333 31.6667L48.3667 32.8333L52.9 34L55.1667 31.6667L58 28.1667L57.4333 22.9167L52.3333 20.5833L48.9333 20L46.1 22.3333L43.8333 25.8333Z" fill="white"/>
<path d="M51.0816 20.2214C51.0482 20.1018 50.8952 20.0156 50.8952 20.0156C50.4362 19.7572 49.6519 19.7186 48.5758 20.0195C47.0214 20.454 46.6241 21.3386 46.5187 21.8837C44.945 22.7104 43.8972 24.0346 43.3083 25.6173L41.8593 25.5067L41.1857 24.0192C40.4451 22.2925 38.7287 21.2254 36.9211 21.2151L34.2095 21.1996C33.937 21.1469 33.6117 21.3668 33.406 21.5532C33.2003 21.7396 33.181 22.1317 33.2478 22.3709L38.195 40.0671C38.2619 40.3062 38.4817 40.6315 38.7543 40.6842C39.2133 40.9427 39.4524 40.8758 39.6916 40.809L42.002 39.3896C43.6618 38.4099 44.4563 36.6408 44.1941 34.7804L43.9987 33.1592L45.1802 32.3132C46.3849 33.3945 48.0871 33.9499 49.8614 33.8406C50.2342 34.252 51.0326 34.8023 52.587 34.3678C53.6632 34.0669 54.3471 33.7468 54.5721 33.1682C54.6583 33.0152 54.6583 33.0152 54.7444 32.8622C57.9921 31.5676 59.8872 28.2017 58.9513 24.8537C57.9292 21.6588 54.5298 19.6441 51.0816 20.2214ZM44.5875 31.5765L43.406 32.4225C41.5893 30.9966 40.9542 28.7248 41.7681 26.5636L43.217 26.6741C43.0589 27.4918 43.0537 28.3957 43.3211 29.3522C43.5551 30.1892 43.9948 30.8398 44.5875 31.5765ZM55.8026 29.7303C55.989 29.936 55.8167 30.242 55.5776 30.3089C54.4153 30.7627 52.5691 31.5367 52.5691 31.5367C52.4495 31.5701 52.2438 31.7565 52.2772 31.8761L52.4778 32.5935C52.5112 32.7131 53.262 32.6321 53.3816 32.5987L53.415 32.7182C53.2093 32.9047 52.9702 32.9715 52.2528 33.1721C51.0571 33.5063 50.6508 32.9754 50.6174 32.8558C50.5505 32.6166 50.278 32.5639 50.1584 32.5974C47.3942 32.8545 44.9989 31.2036 44.3304 28.8123C43.6619 26.4209 44.9733 23.7338 47.3505 22.5536C47.5897 22.4867 47.6424 22.2141 47.609 22.0946C47.5755 21.975 47.6475 21.3103 48.8432 20.976C49.4411 20.8089 49.8332 20.8282 50.0723 20.7613C50.1058 20.8809 50.1058 20.8809 50.1058 20.8809C49.9862 20.9143 49.3022 21.2345 49.3356 21.354L49.5362 22.0714C49.5696 22.191 49.7226 22.2772 49.9618 22.2103C49.9618 22.2103 51.9083 21.795 53.1708 21.6999C53.41 21.633 53.716 21.8053 53.6632 22.0779C53.6915 23.1013 53.9397 24.45 54.3408 25.8848C54.8088 27.5588 55.296 28.8406 55.8026 29.7303Z" fill="#4C1FCC"/>
</svg>
