<svg width="249" height="174" viewBox="0 0 249 174" fill="none" xmlns="http://www.w3.org/2000/svg">
<g clip-path="url(#clip0)">
<path d="M64 2.45687C114.5 -10.5449 140.001 32.9552 173.402 19.2321C221 2.95473 268.001 78.9547 236.001 122.458C205.282 164.219 162.5 159.955 129 122.458C111.957 103.382 84.2878 154.39 34.5007 122.458C-11.5 92.9547 19.9995 13.7852 64 2.45687Z" fill="#E2EFFF"/>
<path fill-rule="evenodd" clip-rule="evenodd" d="M95.9724 5.85434H97.0593C97.2919 5.85434 97.457 5.89654 97.5547 5.98096C97.6525 6.06537 97.7013 6.20549 97.7013 6.40133C97.7013 6.60054 97.6516 6.74404 97.5522 6.83183C97.4528 6.91962 97.2885 6.96351 97.0593 6.96351H93.642C93.4128 6.96351 93.2485 6.91962 93.1491 6.83183C93.0497 6.74404 93 6.60054 93 6.40133C93 6.20549 93.048 6.06537 93.1441 5.98096C93.2401 5.89654 93.4061 5.85434 93.642 5.85434H94.7289V3.39289H94.1576C93.9318 3.39289 93.7701 3.34984 93.6723 3.26374C93.5746 3.17764 93.5257 3.03499 93.5257 2.83577C93.5257 2.63656 93.5729 2.49475 93.6673 2.41034C93.7616 2.32592 93.9251 2.28372 94.1576 2.28372H95.6792C95.7736 2.28372 95.8461 2.30313 95.8966 2.34196C95.9472 2.38079 95.9724 2.43397 95.9724 2.5015V5.85434ZM95.2412 0C95.4872 0 95.6506 0.0472701 95.7315 0.141812C95.8124 0.236354 95.8529 0.462575 95.8529 0.820483C95.8529 1.16488 95.8166 1.37844 95.7442 1.46117C95.6717 1.54389 95.5007 1.58525 95.2311 1.58525C94.9682 1.58525 94.7988 1.54642 94.723 1.46877C94.6472 1.39111 94.6093 1.23579 94.6093 1.00281C94.6093 0.570622 94.648 0.295442 94.7255 0.177265C94.8031 0.0590877 94.9749 0 95.2412 0ZM101.8 2.43053H102.887C103.12 2.43053 103.285 2.47358 103.383 2.55968C103.48 2.64578 103.529 2.78675 103.529 2.98258C103.529 3.17842 103.479 3.32023 103.38 3.40802C103.281 3.49581 103.116 3.5397 102.887 3.5397H101.8V5.85427H102.806C103.039 5.85427 103.204 5.89648 103.302 5.98089C103.399 6.0653 103.448 6.20542 103.448 6.40126C103.448 6.60047 103.399 6.74397 103.299 6.83176C103.2 6.91955 103.035 6.96344 102.806 6.96344H100.021C99.7883 6.96344 99.6232 6.91955 99.5255 6.83176C99.4277 6.74397 99.3789 6.60047 99.3789 6.40126C99.3789 6.20542 99.4269 6.0653 99.523 5.98089C99.619 5.89648 99.785 5.85427 100.021 5.85427H100.557V3.5397H100.021C99.7883 3.5397 99.6232 3.49581 99.5255 3.40802C99.4277 3.32023 99.3789 3.17842 99.3789 2.98258C99.3789 2.78337 99.4269 2.64156 99.523 2.55715C99.619 2.47273 99.785 2.43053 100.021 2.43053H100.557V2.14184C100.557 1.48005 100.727 1.00988 101.067 0.731319C101.408 0.452758 101.987 0.31348 102.806 0.31348C103.231 0.31348 103.544 0.364127 103.744 0.465422C103.945 0.566716 104.045 0.723721 104.045 0.93644C104.045 1.07825 104 1.19136 103.911 1.27578C103.822 1.36019 103.701 1.40239 103.549 1.40239C103.438 1.40239 103.281 1.3872 103.077 1.35681C102.873 1.32642 102.73 1.31123 102.65 1.31123C102.336 1.31123 102.116 1.38129 101.99 1.52141C101.864 1.66154 101.8 1.90886 101.8 2.26339V2.43053ZM109.005 0.774912C109.073 0.774912 109.13 0.799391 109.177 0.84835C109.225 0.897309 109.248 0.955553 109.248 1.02308C109.248 1.09399 109.167 1.26788 109.005 1.54475C108.888 1.74058 108.795 1.90265 108.727 2.03096C108.454 2.53743 108.257 3.01858 108.136 3.4744C108.015 3.93023 107.954 4.40293 107.954 4.89252C107.954 5.33146 108.003 5.75858 108.101 6.17389C108.198 6.5892 108.348 7.00281 108.551 7.41475C108.658 7.62746 108.802 7.88661 108.98 8.19218C109.159 8.49775 109.248 8.68768 109.248 8.76196C109.248 8.82949 109.225 8.88604 109.18 8.93163C109.134 8.97721 109.081 9 109.021 9C108.889 9 108.737 8.9426 108.563 8.8278C108.39 8.713 108.203 8.54587 108.005 8.32639C107.546 7.81654 107.2 7.27294 106.966 6.69556C106.731 6.11818 106.614 5.51717 106.614 4.89252C106.614 4.32527 106.71 3.77913 106.903 3.25409C107.095 2.72904 107.383 2.22511 107.767 1.74227C108.016 1.43163 108.248 1.19275 108.462 1.02561C108.676 0.858479 108.857 0.774912 109.005 0.774912ZM112.361 1.02308C112.361 0.955553 112.385 0.897309 112.432 0.84835C112.479 0.799391 112.535 0.774912 112.599 0.774912C112.75 0.774912 112.935 0.858479 113.152 1.02561C113.37 1.19275 113.603 1.43163 113.852 1.74227C114.233 2.21836 114.52 2.71976 114.712 3.24649C114.904 3.77322 115 4.32189 115 4.89252C115 5.51717 114.884 6.11818 114.651 6.69556C114.419 7.27294 114.073 7.81654 113.615 8.32639C113.419 8.54249 113.232 8.70878 113.054 8.82527C112.875 8.94176 112.72 9 112.589 9C112.528 9 112.475 8.97721 112.429 8.93163C112.384 8.88604 112.361 8.82949 112.361 8.76196C112.361 8.68768 112.444 8.51548 112.609 8.24536C112.73 8.04615 112.825 7.88408 112.892 7.75915C113.165 7.25267 113.362 6.77153 113.483 6.3157C113.605 5.85988 113.665 5.38549 113.665 4.89252C113.665 4.4502 113.617 4.02139 113.519 3.60608C113.421 3.19078 113.271 2.77716 113.069 2.36523C112.958 2.14238 112.812 1.88155 112.632 1.58273C112.451 1.28391 112.361 1.09737 112.361 1.02308Z" fill="#FF6545"/>
<path fill-rule="evenodd" clip-rule="evenodd" d="M50 39C50 37.8954 50.8954 37 52 37H171C172.105 37 173 37.8954 173 39V90.6217C173 91.7262 172.105 92.6217 171 92.6217H52C50.8954 92.6217 50 91.7262 50 90.6217V39ZM65.5508 92.623H67.6715V104.59H71.2092V105.998H62.0195V104.59H65.5508V92.623ZM156.742 104.59H160.279V105.998H151.09V104.59H154.621V92.623H156.742V104.59Z" fill="#BCCFFF"/>
<path d="M89.8031 56.1343C78.0698 56.5384 68.3931 72.1292 65.0215 79.8741V84.4199H158.585V44.0117C157.236 45.1903 151.605 47.6485 139.872 48.0525C125.205 48.5576 126.217 61.1853 114.585 61.6904C102.953 62.1955 104.47 55.6292 89.8031 56.1343Z" fill="#A9C3F9"/>
<rect x="63" y="43" width="2.02299" height="42.4286" fill="#9AB8F3"/>
<rect x="166" y="84" width="2" height="103" transform="rotate(90 166 84)" fill="#9AB8F3"/>
<rect x="89.2988" y="43" width="1.01149" height="42.4286" fill="#9AB8F3"/>
<rect x="114.586" y="43" width="1.01149" height="42.4286" fill="#9AB8F3"/>
<rect x="139.871" y="43" width="1.01149" height="42.4286" fill="#9AB8F3"/>
<path fill-rule="evenodd" clip-rule="evenodd" d="M9.97986 58.4297V67.1526L1.89208 62.7916L0 65.8527L8.08667 70.2147L0 74.5767L1.89208 77.6388L9.97986 73.2768V81.9997H13.764V73.2768L21.8518 77.6388L23.7439 74.5767L15.6561 70.2147L23.7439 65.8527L21.8518 62.7916L13.764 67.1526V58.4297H9.97986Z" fill="#3EE5C5"/>
<path fill-rule="evenodd" clip-rule="evenodd" d="M20.3863 56H24.8379V62.3681L30.7384 59.192L32.9999 62.8444L27.1351 66.0034L33 69.1603L30.7384 72.8129L24.8379 69.6368V76.0049H20.3863V69.6368L14.4858 72.8129L12.2241 69.1603L18.089 66.0034L12.2242 62.8444L14.4858 59.192L20.3863 62.3681V56ZM21.855 57.4579V64.8172L15.0086 61.1319L14.2872 62.2968L21.1693 66.0038L14.2873 69.7082L15.0086 70.873L21.855 67.1877V74.547H23.3692V67.1877L30.2156 70.873L30.9368 69.7082L24.0548 66.0038L30.9369 62.2968L30.2156 61.1319L23.3692 64.8172V57.4579H21.855Z" fill="#1F587F"/>
<path d="M236.103 123.247C233.976 109.513 231.106 82.6083 230.255 80.3506L221.219 88.2526L227.598 121.554C226.905 139.387 230.801 142.551 233.119 167.209L238.229 166.144L236.103 123.247Z" fill="url(#paint0_linear)"/>
<path d="M206.866 120.003L213.245 84.8672L223.876 88.3949L214.308 121.132C215.404 135.758 205.943 149.623 203.677 166.71L198.892 165.581L206.866 120.003Z" fill="url(#paint1_linear)"/>
<path d="M232.896 91.4643C228.579 70.7788 236.851 46.8517 234.693 43.6099C232.534 40.3682 221.589 40.3682 221.589 40.3682C221.589 40.3682 210.796 41.2945 208.895 44.2789C206.993 47.2633 210.202 58.0635 210.67 67.5798C211.328 80.9672 210.67 91.4643 210.67 91.4643C210.67 91.4643 216.658 91.4935 220.898 92.5963C226.237 93.9849 232.896 91.4643 232.896 91.4643Z" fill="url(#paint2_linear)"/>
<path d="M245.519 66.8398C245.223 65.8327 239.787 52.1465 234.485 43.3535L229.86 47.9846C232.805 55.6052 239.866 66.6054 240.809 70.3571C241.751 74.1087 243.084 83.9526 243.084 95.2104L247.797 94.038C247.797 81.8943 246.255 69.339 245.519 66.8398Z" fill="#6BB8FF"/>
<path d="M182.06 52.5584L183.955 56.3726L181.049 60.2867L177.079 59.2683L172.117 57.9953L170.125 53.7327L172.557 50.7293L174.387 53.9317L176.208 55.2326L181.326 54.1251L179.501 53.1121L177.647 54.4519L175.918 53.8874L179.21 51.7669L182.06 52.5584Z" fill="#BCCFFF"/>
<path d="M199.42 62.6975C206.035 62.6975 206.322 49.7331 208.943 44.1758L213.62 46.6971C210.793 59.9729 208.257 69.732 199.42 69.732C195.179 69.732 187.049 66.9709 181.19 60.5904L183.04 55.5476C188.488 61.7224 196.475 62.6975 199.42 62.6975Z" fill="#6BB8FF"/>
<path d="M227.342 41.3095L226.801 34.8633L217.604 35.4493C217.424 37.4027 217.063 41.4267 217.063 41.8955C217.063 42.4815 220.85 49.5137 221.932 48.9277C222.798 48.4588 225.9 43.6535 227.342 41.3095Z" fill="#A9BDF2"/>
<path d="M239.292 168.2L238.229 166.08L233.444 167.14V172.44C238.229 173.324 247.797 174.772 247.797 173.5C247.797 172.228 247.088 170.85 246.734 170.32L239.292 168.2Z" fill="#0031DE"/>
<path d="M248.98 100.006C248.902 97.616 247.644 94.0371 247.644 94.0371L242.959 94.8291L241.065 98.9255V103.351C241.065 103.351 242.152 103.659 242.556 102.836C242.959 102.013 242.556 100.16 242.556 100.16L243.549 98.3463C243.549 98.3463 244.56 99.2857 244.727 100.691C244.996 102.964 244.14 105.967 244.727 106.553C245.314 107.139 248.303 106.084 248.775 104.431C248.98 103.711 249.036 101.715 248.98 100.006Z" fill="#BCCFFF"/>
<path d="M141.495 16.1363L142.238 15.4544L180.253 55.482L178.52 57.073L141.495 16.1363Z" fill="#4F3F8F"/>
<path d="M198.135 167.786C198.962 167.372 199.198 165.666 199.198 165.666L203.982 166.726V171.948V172.026C199.198 172.91 189.63 174.358 189.63 173.086C189.63 171.814 189 170.831 190.693 169.906C190.693 169.906 195.4 169.156 198.135 167.786Z" fill="#0031DE"/>
<path d="M227.863 27.1987C227.464 26.0068 225.078 24.4107 223.912 23.7486C222.868 23.7233 221.37 23.325 219.372 23.7223C216.874 24.2189 215.875 26.702 215.875 27.6953C215.875 28.6886 215.437 32.4703 215.875 34.6481C216.375 37.1305 218.872 40.1118 222.369 40.111C225.865 40.1102 228.862 35.6406 228.862 33.6541C228.862 31.6675 228.363 28.6886 227.863 27.1987Z" fill="#BCCFFF"/>
<path d="M216.377 30.3022V34.2752H215.378C215.378 32.6198 214.495 29.3428 214.495 28.0881C214.495 23.8506 217.066 20.8662 221.872 20.8662C226.678 20.8662 228.875 22.3773 229.864 25.8323C230.461 27.9186 229.12 32.4371 228.875 34.6709C228.875 34.6709 228.744 35.0632 228.221 34.8888L228.526 32.2885C228.439 29.9627 227.694 27.4261 227.132 26.7368C225.781 25.0802 224.182 24.2083 223.515 24.2083C223.515 24.2083 223.515 27.565 219.68 26.7368C215.845 25.9085 217.626 29.0597 216.377 30.3022Z" fill="#375488"/>
</g>
<defs>
<linearGradient id="paint0_linear" x1="229.724" y1="80.3506" x2="229.724" y2="167.273" gradientUnits="userSpaceOnUse">
<stop offset="0.325967" stop-color="#A561E9"/>
<stop offset="1" stop-color="#562DCB"/>
</linearGradient>
<linearGradient id="paint1_linear" x1="211.119" y1="84.8672" x2="211.119" y2="166.71" gradientUnits="userSpaceOnUse">
<stop offset="0.325967" stop-color="#C286FF"/>
<stop offset="1" stop-color="#7A53E9"/>
</linearGradient>
<linearGradient id="paint2_linear" x1="221.197" y1="41.4739" x2="221.197" y2="91.4646" gradientUnits="userSpaceOnUse">
<stop offset="0.585635" stop-color="#6BB8FF"/>
<stop offset="1" stop-color="#6BFFDB"/>
</linearGradient>
<clipPath id="clip0">
<rect width="249.001" height="174.001" fill="white"/>
</clipPath>
</defs>
</svg>
