<svg width="249" height="174" viewBox="0 0 249 174" fill="none" xmlns="http://www.w3.org/2000/svg">
<g clip-path="url(#clip0)">
<path d="M156.449 40.6233C178.449 41.1233 210.676 25.623 230.449 69.1233C252.95 135.624 198.949 159.623 121.95 135.624C86.5446 124.589 72.45 165.124 17.95 135.624C-36.55 106.124 46.8789 12.1168 84.949 6.1238C138.95 -2.37708 134.449 40.1233 156.449 40.6233Z" fill="#E0F2FF"/>
<path d="M249 87.8623L237.102 78.7262L225.204 87.8623L249 87.8623Z" fill="#04D3AB"/>
<path fill-rule="evenodd" clip-rule="evenodd" d="M246.797 85.1357L223 85.1357L234.899 75.9997L246.797 85.1357ZM243.892 84.2119L225.905 84.2119L234.899 77.3062L243.892 84.2119Z" fill="#005746"/>
<path fill-rule="evenodd" clip-rule="evenodd" d="M139 23.3544L137.645 21.1466L131.855 24.2912V18H129.145V24.2912L123.355 21.1466L122 23.3544L127.79 26.501L122 29.6456L123.355 31.8534L129.145 28.7088V35H131.855V28.7088L137.645 31.8534L139 29.6456L133.21 26.501L139 23.3544Z" fill="#BAA9FF"/>
<rect x="113" y="104.5" width="12.5194" height="12.5" fill="#C6EAF7"/>
<rect x="150.558" y="92" width="12.5194" height="12.5" fill="#79B8F3"/>
<rect x="138.038" y="104.5" width="12.5194" height="12.5" fill="#8FC6F9"/>
<rect x="150.558" y="104.5" width="12.5194" height="12.5" fill="#B5CDFF"/>
<rect x="162.962" y="79.5" width="12.5194" height="12.5" fill="#B5CDFF"/>
<rect x="138.038" y="92" width="12.5194" height="12.5" fill="#9ABCFF"/>
<rect x="162.962" y="92" width="12.5194" height="12.5" fill="#9ABCFF"/>
<rect x="125.402" y="92" width="12.5194" height="12.5" fill="#8FC6F9"/>
<rect x="162.962" y="104.5" width="12.5194" height="12.5" fill="#9CB3E3"/>
<rect x="175.48" y="104.5" width="12.5194" height="12.5" fill="#79B8F3"/>
<rect x="162.962" y="67" width="12.5194" height="12.5" fill="#9ABCFF"/>
<rect x="125.52" y="104.5" width="12.5194" height="12.5" fill="#B5CDFF"/>
<rect x="150.558" y="79.5" width="12.5194" height="12.5" fill="#9CB3E3"/>
<path d="M93.6484 92.5L140.148 63" stroke="#9ABCFF" stroke-width="3" stroke-dasharray="3 3"/>
<path d="M131 61L140 62.5L138.5 72" stroke="#9ABCFF" stroke-width="3"/>
<path d="M37.5548 118.741C38.6144 106.308 41.8436 82.7541 42.6775 80.668L52.9775 87.233L45.2833 118.741C46.1491 137.77 42.6775 132.469 40.0716 160.986L34.8599 159.943C36.2598 140.951 36.4952 131.173 37.5548 118.741Z" fill="url(#paint0_linear)"/>
<path d="M67.8637 120.572L58.4825 84.8408L47.749 85.8198C51.1632 97.2467 53.9887 107.142 59.5249 119.529C58.5214 133.471 64.349 134.531 67.8637 160.465L72.5542 159.422L67.8637 120.572Z" fill="url(#paint1_linear)"/>
<path d="M41.1614 88.6435C43.5757 73.1907 36.7439 49.8558 38.4891 46.8563C40.2343 43.8568 49.9964 43.2568 49.9964 43.2568C49.9964 43.2568 58.6133 44.5112 62.6502 46.6311C63.6044 47.1322 60.5766 60.7087 59.2702 67.8787C57.7331 76.3156 58.7224 85.6867 59.8156 89.8316C59.8156 89.8316 54.4546 91.366 50.4327 90.1588C46.4108 88.9515 41.1614 88.6435 41.1614 88.6435Z" fill="url(#paint2_linear)"/>
<path d="M29.818 67.3953C30.2043 66.6227 35.5442 49.0917 38.7073 46.583L43.1249 51.4368C40.5071 57.7086 34.4518 67.2021 33.6792 70.2927C32.5851 74.6696 31.1267 86.2315 31.7485 95.4035L27.8854 94.4377C27.0806 84.4578 29.4317 68.1679 29.818 67.3953Z" fill="#E062FF"/>
<path d="M94.7713 41.8375C94.1972 43.0813 94.1714 45.0483 94.1714 45.0483L97.1758 47.6938L100.225 46.4186C100.225 46.4186 102.656 45.7413 103.77 44.6734C105.07 43.4271 104.97 42.6833 104.97 41.647C104.97 40.5924 104.043 39.1105 103.606 39.2742C102.799 39.5772 102.679 41.7031 100.989 42.7101C99.2979 43.7172 95.9711 43.4736 95.8882 42.7808C95.8603 42.5481 96.5058 41.647 97.1758 41.647C97.4982 41.647 98.1601 42.4029 98.8926 42.4029C99.3524 42.4029 100.18 41.647 100.18 41.647C100.18 41.647 98.5344 40.8013 97.1758 40.5133C96.2486 40.3167 95.0985 41.1285 94.7713 41.8375Z" fill="#BCCFFF"/>
<path d="M45.2676 45.182L45.7504 39.8701L53.9589 40.353C54.1199 41.9627 54.4418 45.2786 54.4418 45.6649C54.4418 46.1478 51.0618 51.9426 50.0961 51.4597C49.3235 51.0734 46.5552 47.1136 45.2676 45.182Z" fill="#B2C4F4"/>
<path d="M78.1281 56.2644C72.7201 55.8781 66.7391 48.0016 62.6768 46.6064C58.6144 45.2112 54.4683 50.4696 54.4683 50.4696C61.5501 54.3328 70.8853 62.0592 78.1281 62.0592C81.6046 62.0592 93.0965 52.7231 97.4422 48.0551L94.0622 44.6748C91.0042 48.699 83.536 56.6507 78.1281 56.2644Z" fill="#E062FF"/>
<path d="M44.7846 29.7295C45.1709 28.5706 45.5976 25.7928 46.7243 25.149C47.7336 25.1244 51.0617 25.9629 52.9931 26.3492C55.4074 26.8321 56.3731 29.2466 56.3731 30.2124C56.3731 31.1782 56.7967 34.8554 56.3731 36.973C55.8255 39.7103 53.1405 42.4055 50.096 42.285C47.0515 42.1645 44.7845 39.8739 43.8189 36.0065C43.351 34.1324 44.3017 31.1782 44.7846 29.7295Z" fill="#BCCFFF"/>
<path d="M51.6324 29.2406C50.2527 29.5014 47.2148 27.3453 46.615 27.4944C46.0151 27.6435 46.2332 29.9486 46.2332 30.604C46.2332 31.5597 46.6149 33.7141 46.615 35.0127H45.7969C45.621 34.427 45.5242 32.4038 44.7018 32.5779C43.9163 32.7442 44.4092 37.2852 44.7018 38.4214C43.1508 37.5608 42.5665 36.1819 42.0691 34.5257C41.0657 31.1852 40.9773 24.8112 44.0517 23.0231C46.3968 21.6592 52.341 21.6589 54.741 23.0228C57.3626 24.5127 58.7091 28.015 57.1952 29.2406C56.0499 30.1677 54.5229 28.6942 51.6324 29.2406Z" fill="#FFBD5A"/>
<path fill-rule="evenodd" clip-rule="evenodd" d="M48.7774 30.4457C48.0642 30.395 47.4438 30.6507 47.1642 31.116C46.9682 31.4423 46.8865 31.7403 46.8879 32.023C46.8894 32.3074 46.975 32.6121 47.1691 32.95C47.4489 33.437 48.038 33.7595 48.6919 33.8131C49.3456 33.8667 49.9385 33.6433 50.2501 33.2025C50.4728 32.8876 50.5766 32.5904 50.5938 32.3027C50.6111 32.0134 50.5428 31.6983 50.3655 31.3464C50.1112 30.842 49.4898 30.4963 48.7774 30.4457ZM48.847 29.4665C49.783 29.533 50.7843 29.9965 51.242 30.9045C51.4809 31.3784 51.6034 31.8657 51.5738 32.3612C51.544 32.8584 51.3634 33.3284 51.0517 33.7692C50.4833 34.5731 49.5018 34.8645 48.6117 34.7915C47.7216 34.7185 46.797 34.2731 46.3179 33.4389C46.0578 32.9862 45.9087 32.5161 45.9063 32.0279C45.9038 31.5381 46.0493 31.0656 46.3228 30.6104C46.8581 29.7194 47.9118 29.4 48.847 29.4665Z" fill="#253D93"/>
<path fill-rule="evenodd" clip-rule="evenodd" d="M55.6621 31.0986C54.9077 31.0524 54.2564 31.3306 54.0054 31.7797C53.8339 32.0865 53.7605 32.3554 53.7595 32.6041C53.7585 32.8515 53.8288 33.1152 54.0015 33.413C54.2484 33.8388 54.744 34.1048 55.3176 34.1432C55.8917 34.1816 56.4538 33.9843 56.7949 33.5988C57.0339 33.3289 57.166 33.0734 57.2201 32.8228C57.2738 32.5737 57.2581 32.2941 57.1458 31.9625C56.9882 31.497 56.4191 31.145 55.6621 31.0986ZM55.7221 30.1188C56.6667 30.1766 57.7338 30.6381 58.0756 31.6477C58.2348 32.1179 58.2769 32.5792 58.1797 33.0299C58.0828 33.479 57.8551 33.8821 57.5301 34.2494C56.9486 34.9064 56.0661 35.1771 55.2521 35.1227C54.4377 35.0682 53.6018 34.6806 53.1523 33.9055C52.9083 33.4847 52.776 33.0514 52.7779 32.6001C52.7797 32.1502 52.9147 31.7189 53.1485 31.3007C53.6588 30.3877 54.7747 30.0608 55.7221 30.1188Z" fill="#253D93"/>
<path fill-rule="evenodd" clip-rule="evenodd" d="M53.3213 32.9508L51.3364 32.7974L51.412 31.8186L53.397 31.972L53.3213 32.9508Z" fill="#253D93"/>
<path d="M33.4931 162.332C34.692 161.852 35.3811 159.942 35.3811 159.942L40.0717 160.985C40.0717 160.985 40.7336 165.336 40.0717 166.201C39.4098 167.066 26 168.496 26 167.244C26 165.992 26.6475 164.688 27.6066 164.335C27.6066 164.335 32.2943 162.812 33.4931 162.332Z" fill="#333333"/>
<path d="M69.1083 165.183L68.646 160.33L72.2368 159.505C73.1198 164.04 73.4141 164.453 74.5914 164.712C76.8715 165.214 77.0136 168.981 76.7105 169.406C76.2095 170.107 73.8261 170.284 72.119 169.406C71.3774 169.024 69.8032 166.574 69.1083 165.183Z" fill="#333333"/>
<path d="M26.436 99.2665C26.4361 97.9569 27.8846 94.4375 27.8846 94.4375L31.7474 94.9204L33.6788 102.164C33.6788 102.164 32.8234 102.118 32.4353 101.665C31.9444 101.093 31.6689 100.486 31.5082 99.7494C31.2971 98.7812 31.0174 97.5206 31.0174 97.5206C31.0174 97.5206 30.2989 98.3931 30.2989 99.7494C30.2989 101.798 31.1262 104.774 30.4718 104.992C29.8173 105.21 28.0383 104.486 27.7451 104.174C26.8728 103.247 26.4359 101.25 26.436 99.2665Z" fill="#BCCFFF"/>
</g>
<defs>
<linearGradient id="paint0_linear" x1="43.1986" y1="80.668" x2="43.1986" y2="160.986" gradientUnits="userSpaceOnUse">
<stop stop-color="#2C326E"/>
<stop offset="0.779006" stop-color="#424988"/>
<stop offset="1" stop-color="#6B418C"/>
</linearGradient>
<linearGradient id="paint1_linear" x1="59.1658" y1="84.8408" x2="59.1658" y2="160.465" gradientUnits="userSpaceOnUse">
<stop stop-color="#2C326E"/>
<stop offset="0.779006" stop-color="#424988"/>
<stop offset="1" stop-color="#6B418C"/>
</linearGradient>
<linearGradient id="paint2_linear" x1="50.8202" y1="45.1825" x2="50.8202" y2="88.6435" gradientUnits="userSpaceOnUse">
<stop offset="0.416667" stop-color="#E062FF"/>
<stop offset="0.944444" stop-color="#B8D4FF"/>
</linearGradient>
<clipPath id="clip0">
<rect width="249.001" height="174" fill="white"/>
</clipPath>
</defs>
</svg>
