<svg width="249" height="175" viewBox="0 0 249 175" fill="none" xmlns="http://www.w3.org/2000/svg">
<g clip-path="url(#clip0)">
<path d="M156.449 40.6233C178.449 41.1233 210.677 25.623 230.449 69.1233C252.95 135.624 198.949 159.623 121.95 135.624C86.5447 124.589 72.4501 165.124 17.9501 135.624C-36.5499 106.124 46.879 12.1168 84.9491 6.1238C138.95 -2.37708 134.449 40.1233 156.449 40.6233Z" fill="#E0F2FF"/>
<path d="M46.6351 115.563C46.6351 115.563 47.681 89.1111 49.6953 85.7276C51.7096 82.3442 58.9041 72.5356 58.3021 86.0393C57.7 99.543 52.2907 117.448 52.2907 117.448C52.2907 117.448 52.34 126.54 51.5933 135.085C50.8466 143.63 46.4027 153.147 45.8841 166.262L42.63 165.329L46.6351 115.563Z" fill="url(#paint0_linear)"/>
<path d="M68.2475 117.095C68.2475 117.095 67.687 94.4778 65.6279 87.2431C63.5687 80.0085 56.1244 78.9116 57.0172 87.4565C57.9101 96.0015 62.5646 118.913 62.5646 118.913C62.5646 118.913 62.3811 127.999 63.0016 136.547C63.6221 145.095 67.9253 154.657 68.2503 167.77L71.5178 166.875L68.2475 117.095Z" fill="url(#paint1_linear)"/>
<path d="M49.2816 41.8985C48.8699 41.776 49.2328 31.6862 49.414 30.7533C50.7865 28.4201 53.5707 23.6865 53.7275 23.4174C53.9235 23.0809 61.242 21.5731 61.5807 21.4984C61.9194 21.4237 65.3943 26.9748 65.6995 28.2937C65.9436 29.3488 63.4068 38.3871 62.108 42.7744C57.9697 42.5232 49.6109 41.9964 49.2816 41.8985Z" fill="#491414"/>
<path d="M55.7935 39.8143C55.7935 39.8143 61.1556 41.1984 65.4576 43.2654C66.4744 43.7539 69.2243 55.1453 64.8735 62.2711C60.8252 68.9015 64.7454 82.9613 66.0011 87.1799C66.0011 87.1799 61.7068 88.9945 57.4438 87.8624C53.1808 86.7302 49.3662 86.531 49.3662 86.531C50.4076 78.824 53.2247 67.7328 48.0731 61.0958C45.1723 53.0765 47.3266 45.2992 48.2335 43.6923C49.9938 40.5733 55.7935 39.8143 55.7935 39.8143Z" fill="url(#paint2_linear)"/>
<path d="M40.3169 64.7317C40.7038 63.9299 41.7714 46.6614 47.2824 43.673L49.0326 48.3384C44.6084 53.9527 44.4446 63.9859 43.7101 67.1729C42.6699 71.6864 42.3579 83.0038 43.2452 92.3859L40.3313 92.4582C39.231 82.2529 39.9301 65.5335 40.3169 64.7317Z" fill="#9E62FF"/>
<path d="M101.959 38.1623C101.282 39.3565 101.111 41.307 101.111 41.307L103.14 43.6813L106.217 43.0081C106.217 43.0081 109.708 42.5928 110.922 41.6113C112.338 40.4659 112.291 39.7206 112.368 38.692C112.445 37.6452 111.61 36.109 111.153 36.2407C110.308 36.4846 110.029 38.5863 108.232 39.4666C106.434 40.347 103.062 39.8708 103.028 39.1774C103.017 38.9444 103.741 38.0956 104.424 38.1428C104.753 38.1655 105.371 38.9623 106.118 39.014C106.587 39.0464 107.486 38.3545 107.486 38.3545C107.486 38.3545 105.871 37.399 104.508 37.0174C103.577 36.757 102.345 37.4817 101.959 38.1623Z" fill="#BCCFFF"/>
<path d="M52.206 41.7374L52.4315 34.9229L59.1461 35.3754C59.3286 37.4342 59.6966 41.6756 59.7089 42.1704C59.7242 42.7891 59.4988 49.6036 56.3461 49.6817C55.6024 49.7002 52.7085 46.1019 52.206 41.7374Z" fill="#94AEF2"/>
<path d="M83.2775 53.2595C77.5768 53.0047 69.77 44.6787 65.4597 43.355C61.1493 42.0314 60.6179 45.8626 60.6179 45.8626C68.1684 49.6364 76.5989 58.6919 84.2206 58.503C87.8791 58.4123 98.7478 48.6426 103.202 43.746L101.237 41.4072C96.1626 45.5122 88.9782 53.5143 83.2775 53.2595Z" fill="#9E62FF"/>
<path d="M50.3139 24.6051C50.6909 23.4075 51.0695 20.5501 52.2387 19.8609C53.3002 19.8095 56.8237 20.5818 58.866 20.9273C61.4188 21.3592 62.4964 23.8081 62.5209 24.7977C62.5454 25.7873 63.0846 29.5442 62.6926 31.7252C62.1859 34.5442 59.4288 37.3759 56.222 37.3319C53.0152 37.2878 50.5714 34.9998 49.4571 31.0622C48.9171 29.154 49.8426 26.1022 50.3139 24.6051Z" fill="#BCCFFF"/>
<path d="M54.3286 23.031C56.3909 22.7418 57.9755 21.857 58.4976 20.951C59.0211 21.9303 60.1794 22.886 60.7236 22.8726C61.404 22.8557 63.9682 26.2158 63.2248 30.4021C63.0336 31.4786 62.2235 33.9497 61.8424 35.0508L62.0124 41.9102L67.1021 44.0205L67.0058 40.1327C66.9726 38.7938 66.8174 27.0383 65.9125 23.4882C65.0076 19.9382 59.918 17.8315 55.2807 17.4999C50.6435 17.1683 46.3008 23.23 45.4332 26.6751C44.5655 30.1203 43.4549 41.8731 44.2754 44.0893C44.8619 45.6732 44.9914 48.2959 47.4405 48.2352C49.3998 48.1866 52.2688 44.4349 52.4059 42.6453C53.0911 39.3979 50.2769 35.3374 50.1626 30.7258C50.0765 27.2529 51.7508 23.3926 54.3286 23.031Z" fill="#541818"/>
<path fill-rule="evenodd" clip-rule="evenodd" d="M59.3795 27.683L57.2867 27.5774L57.3414 26.5723L59.4341 26.6778L59.3795 27.683Z" fill="#253D93"/>
<path d="M39.675 96.745C39.6446 95.5156 40.2494 92.1949 40.2494 92.1949L43.5692 92.5662L45.3921 99.3249C45.3921 99.3249 44.6583 99.3001 44.3154 98.8833C43.8816 98.3561 43.6315 97.7929 43.4767 97.1044C43.2733 96.2 43.0044 95.0225 43.0044 95.0225C43.0044 95.0225 42.4093 95.8569 42.4408 97.1301C42.4885 99.0531 43.2664 101.829 42.7109 102.048C42.1554 102.267 41.286 101.515 41.0276 101.229C40.2588 100.377 39.721 98.6071 39.675 96.745Z" fill="#BCCFFF"/>
<path d="M46.3211 167.685C46.3203 166.517 46.0064 164.709 46.0064 164.709C46.0064 164.709 45.0917 165.136 44.0269 165.17C42.962 165.204 42.6021 163.91 42.6021 163.91C42.433 168.895 40.8149 168.335 39.6257 171.145C39.173 172.215 39.8642 173.4 41.8105 173.795C44.4462 174.119 45.4301 173.564 45.7039 172.397C45.9778 171.229 46.3219 168.853 46.3211 167.685Z" fill="#333333"/>
<path d="M68.2171 168.881C68.0646 167.714 68.1425 165.869 68.1425 165.869C68.1425 165.869 69.275 166.898 70.3485 166.797C71.422 166.695 71.4555 164.64 71.4555 164.64C72.2795 169.597 74.9261 168.226 76.4888 170.881C77.0836 171.892 77.0074 172.727 75.1052 173.367C72.5017 174.026 70.9423 174.612 70.5142 173.481C70.086 172.35 68.3697 170.048 68.2171 168.881Z" fill="#333333"/>
<path fill-rule="evenodd" clip-rule="evenodd" d="M51.2533 25.2695L51.7979 25.256C52.0667 25.2494 55.6143 25.3849 57.3213 25.4519L57.831 25.4719L57.8433 25.9684C57.8638 26.7963 57.768 27.7903 57.2862 28.5922C56.7754 29.4426 55.8749 30.0034 54.4873 29.9974C53.7976 29.9945 53.2248 29.8381 52.7618 29.5481C52.2997 29.2587 51.9835 28.8591 51.7679 28.4265C51.3482 27.584 51.2853 26.5604 51.2665 25.7998L51.2533 25.2695ZM52.3804 26.3307C52.421 26.9168 52.5161 27.4964 52.7482 27.9624C52.8955 28.2581 53.0909 28.4922 53.352 28.6557C53.6122 28.8186 53.9741 28.9344 54.4935 28.9366C55.5241 28.941 56.0475 28.5546 56.3461 28.0575C56.6023 27.631 56.7189 27.0772 56.7485 26.4913C55.9289 26.4595 54.8921 26.4199 53.9779 26.3864C53.4154 26.3659 52.8999 26.3476 52.51 26.3349C52.4651 26.3334 52.4218 26.332 52.3804 26.3307Z" fill="#253D93"/>
<path fill-rule="evenodd" clip-rule="evenodd" d="M59.2302 25.6025L59.7747 25.589C59.848 25.5872 60.0724 25.5988 60.3371 25.6135C60.6206 25.6292 60.9941 25.6514 61.4001 25.6762C62.2123 25.7258 63.158 25.786 63.781 25.8264L64.2767 25.8584L64.2887 26.3421C64.309 27.1631 64.248 28.1346 63.9165 28.9162C63.7478 29.3139 63.4979 29.6893 63.1269 29.9631C62.7486 30.2424 62.2814 30.3882 61.7355 30.3795C61.1723 30.3706 60.7069 30.1842 60.3438 29.8645C59.9918 29.5546 59.7648 29.1453 59.6135 28.7272C59.3147 27.9018 59.2623 26.8981 59.2433 26.1328L59.2302 25.6025ZM60.3547 26.6771C60.3887 27.2772 60.4633 27.8824 60.641 28.3734C60.7563 28.6921 60.9026 28.9254 61.075 29.0772C61.2363 29.2193 61.4465 29.3139 61.7547 29.3188C62.0802 29.324 62.3036 29.2405 62.4696 29.118C62.643 28.99 62.7914 28.791 62.9096 28.5123C63.1019 28.059 63.1839 27.4682 63.1998 26.8522C62.6313 26.8158 61.9427 26.7723 61.3305 26.735C60.963 26.7125 60.6238 26.6923 60.3547 26.6771Z" fill="#253D93"/>
<path d="M249.001 87.8623L237.102 78.7262L225.204 87.8623L249.001 87.8623Z" fill="#04D3AB"/>
<path fill-rule="evenodd" clip-rule="evenodd" d="M246.797 85.1357L223 85.1357L234.899 75.9997L246.797 85.1357ZM243.892 84.2119L225.905 84.2119L234.899 77.3062L243.892 84.2119Z" fill="#005746"/>
<path fill-rule="evenodd" clip-rule="evenodd" d="M139 23.3544L137.645 21.1466L131.855 24.2912V18H129.145V24.2912L123.355 21.1466L122 23.3544L127.79 26.501L122 29.6456L123.355 31.8534L129.145 28.7088V35H131.855V28.7088L137.645 31.8534L139 29.6456L133.21 26.501L139 23.3544Z" fill="#BAA9FF"/>
<rect x="113" y="104.5" width="12.5194" height="12.5" fill="#C6EAF7"/>
<rect x="150.558" y="92" width="12.5194" height="12.5" fill="#79B8F3"/>
<rect x="138.038" y="104.5" width="12.5194" height="12.5" fill="#8FC6F9"/>
<rect x="150.558" y="104.5" width="12.5194" height="12.5" fill="#B5CDFF"/>
<rect x="162.962" y="79.5" width="12.5194" height="12.5" fill="#B5CDFF"/>
<rect x="138.038" y="92" width="12.5194" height="12.5" fill="#9ABCFF"/>
<rect x="162.962" y="92" width="12.5194" height="12.5" fill="#9ABCFF"/>
<rect x="125.402" y="92" width="12.5194" height="12.5" fill="#8FC6F9"/>
<rect x="162.962" y="104.5" width="12.5194" height="12.5" fill="#9CB3E3"/>
<rect x="175.48" y="104.5" width="12.5194" height="12.5" fill="#79B8F3"/>
<rect x="162.962" y="67" width="12.5194" height="12.5" fill="#9ABCFF"/>
<rect x="125.52" y="104.5" width="12.5194" height="12.5" fill="#B5CDFF"/>
<rect x="150.558" y="79.5" width="12.5194" height="12.5" fill="#9CB3E3"/>
<path d="M93.6486 92.5L140.149 63" stroke="#9ABCFF" stroke-width="3" stroke-dasharray="3 3"/>
<path d="M131 61L140 62.5L138.5 72" stroke="#9ABCFF" stroke-width="3"/>
</g>
<defs>
<linearGradient id="paint0_linear" x1="51.5451" y1="85.7944" x2="48.6276" y2="166.361" gradientUnits="userSpaceOnUse">
<stop stop-color="#2C326E"/>
<stop offset="0.779006" stop-color="#424988"/>
<stop offset="1" stop-color="#6B418C"/>
</linearGradient>
<linearGradient id="paint1_linear" x1="63.7773" y1="87.2887" x2="65.7734" y2="167.831" gradientUnits="userSpaceOnUse">
<stop stop-color="#2C326E"/>
<stop offset="0.779006" stop-color="#424988"/>
<stop offset="1" stop-color="#6B418C"/>
</linearGradient>
<linearGradient id="paint2_linear" x1="56.7094" y1="41.766" x2="57.8131" y2="86.2996" gradientUnits="userSpaceOnUse">
<stop offset="0.416667" stop-color="#9E62FF"/>
<stop offset="0.944444" stop-color="#B8D4FF"/>
</linearGradient>
<clipPath id="clip0">
<rect width="249.001" height="174.93" fill="white"/>
</clipPath>
</defs>
</svg>
