<svg width="249" height="174" viewBox="0 0 249 174" fill="none" xmlns="http://www.w3.org/2000/svg">
<path d="M156.449 40.6233C178.449 41.1233 210.676 25.623 230.449 69.1233C252.95 135.624 198.949 159.623 121.95 135.624C86.5446 124.589 72.45 165.124 17.95 135.624C-36.55 106.124 46.8789 12.1168 84.949 6.1238C138.95 -2.37708 134.449 40.1233 156.449 40.6233Z" fill="#E0F2FF"/>
<path d="M124.924 95.1127L121.598 91.7866C121.105 91.2938 120.305 91.2938 119.812 91.7866L107.37 104.167C106.877 104.66 106.877 105.461 107.37 105.954L119.812 118.396C120.305 118.889 121.105 118.889 121.598 118.396L124.924 115.07C125.417 114.577 125.417 113.776 124.924 113.283L116.732 105.091L124.924 96.899C125.417 96.4062 125.417 95.6055 124.924 95.1127Z" fill="#A092C7"/>
<path d="M165.147 104.167L152.705 91.7866C152.212 91.2938 151.411 91.2938 150.918 91.7866L147.592 95.1127C147.099 95.6055 147.099 96.4062 147.592 96.899L155.784 105.091L147.592 113.283C147.099 113.776 147.099 114.577 147.592 115.07L150.918 118.396C151.411 118.889 152.212 118.889 152.705 118.396L165.085 105.954C165.64 105.522 165.64 104.66 165.147 104.167Z" fill="#A092C7"/>
<path d="M142.972 90H138.969C138.414 90 137.921 90.3696 137.737 90.8623L128.313 118.457C128.005 119.319 128.621 120.182 129.544 120.182H133.548C134.103 120.182 134.595 119.812 134.78 119.319L144.266 91.7247C144.512 90.8623 143.896 90 142.972 90Z" fill="#A092C7"/>
<path d="M153.016 46.5719L151.343 44.8988C151.095 44.6509 150.692 44.6509 150.444 44.8988L144.186 51.1264C143.938 51.3743 143.938 51.777 144.186 52.0249L150.444 58.2835C150.692 58.5314 151.095 58.5314 151.343 58.2835L153.016 56.6104C153.264 56.3625 153.264 55.9598 153.016 55.7119L148.895 51.5911L153.016 47.4704C153.264 47.2225 153.264 46.8197 153.016 46.5719Z" fill="#A092C7"/>
<path d="M173.249 51.1264L166.99 44.8988C166.742 44.6509 166.339 44.6509 166.091 44.8988L164.418 46.5719C164.17 46.8197 164.17 47.2225 164.418 47.4704L168.539 51.5911L164.418 55.7119C164.17 55.9598 164.17 56.3625 164.418 56.6104L166.091 58.2835C166.339 58.5314 166.742 58.5314 166.99 58.2835L173.218 52.0249C173.496 51.808 173.496 51.3743 173.249 51.1264Z" fill="#A092C7"/>
<path d="M162.094 44H160.08C159.801 44 159.553 44.1859 159.46 44.4338L154.72 58.3142C154.565 58.748 154.875 59.1817 155.34 59.1817H157.354C157.632 59.1817 157.88 58.9958 157.973 58.748L162.745 44.8675C162.869 44.4338 162.559 44 162.094 44Z" fill="#A092C7"/>
<path d="M46.6349 114.564C46.6349 114.564 47.6809 88.1121 49.6952 84.7286C51.7095 81.3452 58.904 71.5366 58.3019 85.0403C57.6998 98.544 52.2906 116.449 52.2906 116.449C52.2906 116.449 52.3399 125.541 51.5932 134.086C50.8465 142.631 46.4025 152.148 45.8839 165.263L42.6299 164.33L46.6349 114.564Z" fill="url(#paint0_linear)"/>
<path d="M68.2468 116.096C68.2468 116.096 67.6863 93.4788 65.6271 86.2441C63.568 79.0094 56.1236 77.9126 57.0165 86.4575C57.9094 95.0024 62.5638 117.914 62.5638 117.914C62.5638 117.914 62.3804 127 63.0009 135.548C63.6214 144.096 67.9245 153.658 68.2495 166.771L71.517 165.876L68.2468 116.096Z" fill="url(#paint1_linear)"/>
<path d="M49.2816 40.8994C48.8699 40.777 49.2328 30.6872 49.4141 29.7542C50.7865 27.4211 53.5707 22.6875 53.7275 22.4183C53.9235 22.0819 61.242 20.5741 61.5807 20.4994C61.9194 20.4246 65.3944 25.9758 65.6995 27.2947C65.9436 28.3497 63.4069 37.3881 62.108 41.7753C57.9698 41.5242 49.611 40.9974 49.2816 40.8994Z" fill="#491414"/>
<path d="M55.7926 38.8153C55.7926 38.8153 61.1547 40.1994 65.4567 42.2664C66.4735 42.7549 69.2234 54.1462 64.8726 61.2721C60.8243 67.9024 64.7445 81.9622 66.0002 86.1808C66.0002 86.1808 61.7059 87.9955 57.4429 86.8634C53.1799 85.7312 49.3653 85.532 49.3653 85.532C50.4067 77.825 53.2238 66.7338 48.0722 60.0968C45.1714 52.0775 47.3257 44.3001 48.2326 42.6932C49.9929 39.5743 55.7926 38.8153 55.7926 38.8153Z" fill="url(#paint2_linear)"/>
<path d="M40.3162 63.7327C40.703 62.9309 41.7707 45.6624 47.2816 42.674L49.0319 47.3394C44.6077 52.9537 44.4438 62.9869 43.7093 66.1738C42.6691 70.6873 42.3571 82.0048 43.2445 91.3869L40.3305 91.4591C39.2302 81.2539 39.9293 64.5345 40.3162 63.7327Z" fill="#9E62FF"/>
<path d="M101.959 37.1633C101.282 38.3575 101.111 40.308 101.111 40.308L103.139 42.6822L106.216 42.0091C106.216 42.0091 109.707 41.5938 110.921 40.6123C112.338 39.4668 112.291 38.7215 112.367 37.693C112.445 36.6462 111.609 35.1099 111.152 35.2417C110.307 35.4856 110.028 37.5872 108.231 38.4676C106.434 39.348 103.061 38.8718 103.027 38.1783C103.016 37.9454 103.741 37.0965 104.423 37.1437C104.752 37.1665 105.371 37.9633 106.117 38.0149C106.586 38.0473 107.486 37.3555 107.486 37.3555C107.486 37.3555 105.87 36.4 104.507 36.0184C103.576 35.758 102.344 36.4827 101.959 37.1633Z" fill="#BCCFFF"/>
<path d="M52.2058 40.7384L52.4312 33.9238L59.1459 34.3764C59.3283 36.4352 59.6963 40.6765 59.7086 41.1714C59.7239 41.79 59.4985 48.6046 56.3459 48.6827C55.6021 48.7012 52.7083 45.1029 52.2058 40.7384Z" fill="#94AEF2"/>
<path d="M83.2773 52.2605C77.5766 52.0057 69.7697 43.6797 65.4594 42.356C61.1491 41.0324 60.6176 44.8636 60.6176 44.8636C68.1681 48.6374 76.5987 57.6929 84.2204 57.504C87.8788 57.4133 98.7475 47.6436 103.202 42.747L101.237 40.4082C96.1624 44.5132 88.978 52.5153 83.2773 52.2605Z" fill="#9E62FF"/>
<path d="M50.313 23.6061C50.6901 22.4085 51.0686 19.5511 52.2379 18.8619C53.2994 18.8104 56.8229 19.5828 58.8651 19.9283C61.418 20.3602 62.4955 22.8091 62.5201 23.7987C62.5446 24.7883 63.0837 28.5452 62.6917 30.7261C62.185 33.5452 59.428 36.3769 56.2211 36.3329C53.0143 36.2888 50.5705 34.0008 49.4562 30.0631C48.9162 28.155 49.8417 25.1032 50.313 23.6061Z" fill="#BCCFFF"/>
<path d="M54.328 22.032C56.3903 21.7427 57.9749 20.858 58.497 19.9519C59.0205 20.9313 60.1788 21.887 60.723 21.8735C61.4034 21.8567 63.9675 25.2167 63.2242 29.403C63.033 30.4795 62.2229 32.9507 61.8417 34.0518L62.0117 40.9112L67.1015 43.0215L67.0052 39.1336C66.972 37.7948 66.8168 26.0392 65.9119 22.4892C65.007 18.9392 59.9173 16.8325 55.2801 16.5009C50.6429 16.1692 46.3002 22.231 45.4326 25.6761C44.5649 29.1212 43.4543 40.8741 44.2748 43.0902C44.8613 44.6742 44.9908 47.2969 47.4399 47.2362C49.3992 47.1876 52.2682 43.4359 52.4053 41.6463C53.0904 38.3988 50.2763 34.3384 50.162 29.7268C50.0759 26.2539 51.7502 22.3936 54.328 22.032Z" fill="#541818"/>
<path fill-rule="evenodd" clip-rule="evenodd" d="M59.3788 26.6839L57.2861 26.5784L57.3408 25.5732L59.4335 25.6788L59.3788 26.6839Z" fill="#253D93"/>
<path d="M39.6748 95.746C39.6445 94.5166 40.2492 91.1959 40.2492 91.1959L43.5691 91.5672L45.3919 98.3259C45.3919 98.3259 44.6582 98.301 44.3152 97.8843C43.8814 97.3571 43.6313 96.7938 43.4765 96.1054C43.2732 95.201 43.0043 94.0235 43.0043 94.0235C43.0043 94.0235 42.4091 94.8579 42.4407 96.1311C42.4883 98.0541 43.2663 100.83 42.7108 101.049C42.1553 101.268 41.2859 100.516 41.0275 100.23C40.2587 99.3783 39.7209 97.608 39.6748 95.746Z" fill="#BCCFFF"/>
<path d="M46.321 166.686C46.3202 165.518 46.0063 163.71 46.0063 163.71C46.0063 163.71 45.0916 164.137 44.0267 164.171C42.9619 164.205 42.6019 162.911 42.6019 162.911C42.4329 167.896 40.8148 167.336 39.6255 170.146C39.1729 171.216 39.864 172.401 41.8103 172.796C44.446 173.12 45.4299 172.565 45.7038 171.397C45.9776 170.23 46.3218 167.854 46.321 166.686Z" fill="#333333"/>
<path d="M68.2171 167.882C68.0646 166.715 68.1425 164.87 68.1425 164.87C68.1425 164.87 69.275 165.899 70.3485 165.798C71.422 165.696 71.4555 163.641 71.4555 163.641C72.2795 168.598 74.9261 167.227 76.4888 169.882C77.0836 170.893 77.0074 171.728 75.1052 172.368C72.5017 173.026 70.9423 173.613 70.5142 172.482C70.086 171.351 68.3697 169.049 68.2171 167.882Z" fill="#333333"/>
<path fill-rule="evenodd" clip-rule="evenodd" d="M51.2529 24.2705L51.7975 24.257C52.0663 24.2503 55.6139 24.3859 57.3209 24.4529L57.8306 24.4729L57.8429 24.9694C57.8634 25.7973 57.7676 26.7913 57.2858 27.5932C56.775 28.4436 55.8745 29.0043 54.4869 28.9984C53.7972 28.9954 53.2244 28.8391 52.7614 28.5491C52.2993 28.2597 51.9831 27.8601 51.7675 27.4274C51.3478 26.585 51.2849 25.5614 51.2661 24.8007L51.2529 24.2705ZM52.3801 25.3317C52.4207 25.9178 52.5157 26.4974 52.7478 26.9634C52.8951 27.2591 53.0905 27.4932 53.3516 27.6567C53.6118 27.8196 53.9737 27.9354 54.4931 27.9376C55.5237 27.942 56.0471 27.5555 56.3457 27.0585C56.6019 26.6319 56.7185 26.0781 56.7481 25.4923C55.9285 25.4604 54.8917 25.4209 53.9775 25.3874C53.415 25.3668 52.8995 25.3486 52.5096 25.3358C52.4647 25.3344 52.4214 25.333 52.3801 25.3317Z" fill="#253D93"/>
<path fill-rule="evenodd" clip-rule="evenodd" d="M59.2295 24.6035L59.774 24.59C59.8473 24.5882 60.0717 24.5998 60.3364 24.6145C60.6199 24.6302 60.9934 24.6524 61.3994 24.6772C62.2116 24.7268 63.1573 24.787 63.7803 24.8273L64.276 24.8594L64.288 25.3431C64.3083 26.1641 64.2473 27.1355 63.9158 27.9172C63.7471 28.3148 63.4972 28.6902 63.1262 28.9641C62.7479 29.2433 62.2807 29.3892 61.7348 29.3805C61.1716 29.3715 60.7062 29.1852 60.3431 28.8655C59.9911 28.5556 59.7641 28.1463 59.6128 27.7282C59.314 26.9027 59.2616 25.8991 59.2426 25.1338L59.2295 24.6035ZM60.354 25.6781C60.388 26.2782 60.4626 26.8834 60.6403 27.3744C60.7556 27.6931 60.9019 27.9263 61.0743 28.0782C61.2356 28.2202 61.4458 28.3149 61.754 28.3198C62.0795 28.325 62.3029 28.2415 62.4689 28.119C62.6423 27.991 62.7907 27.792 62.9089 27.5133C63.1012 27.06 63.1832 26.4692 63.1991 25.8532C62.6306 25.8168 61.942 25.7733 61.3298 25.7359C60.9623 25.7135 60.6231 25.6933 60.354 25.6781Z" fill="#253D93"/>
<path d="M111.718 20L124.435 10.8477L111.718 1.69541L111.718 20Z" fill="#04D3AB"/>
<path fill-rule="evenodd" clip-rule="evenodd" d="M115.513 18.3047L115.513 0.000101408L128.229 9.15239L115.513 18.3047ZM116.799 16.0703L116.799 2.2345L126.411 9.15239L116.799 16.0703Z" fill="#005746"/>
<path fill-rule="evenodd" clip-rule="evenodd" d="M236 117.354L234.645 115.147L228.855 118.291V112H226.145V118.291L220.355 115.147L219 117.354L224.79 120.501L219 123.646L220.355 125.853L226.145 122.709V129H228.855V122.709L234.645 125.853L236 123.646L230.21 120.501L236 117.354Z" fill="#BAA9FF"/>
<defs>
<linearGradient id="paint0_linear" x1="51.545" y1="84.7954" x2="48.6275" y2="165.362" gradientUnits="userSpaceOnUse">
<stop stop-color="#2C326E"/>
<stop offset="0.779006" stop-color="#424988"/>
<stop offset="1" stop-color="#6B418C"/>
</linearGradient>
<linearGradient id="paint1_linear" x1="63.7765" y1="86.2897" x2="65.7727" y2="166.832" gradientUnits="userSpaceOnUse">
<stop stop-color="#2C326E"/>
<stop offset="0.779006" stop-color="#424988"/>
<stop offset="1" stop-color="#6B418C"/>
</linearGradient>
<linearGradient id="paint2_linear" x1="56.7085" y1="40.767" x2="57.8122" y2="85.3006" gradientUnits="userSpaceOnUse">
<stop offset="0.416667" stop-color="#9E62FF"/>
<stop offset="0.944444" stop-color="#B8D4FF"/>
</linearGradient>
</defs>
</svg>
