<svg width="249" height="174" viewBox="0 0 249 174" fill="none" xmlns="http://www.w3.org/2000/svg">
<path d="M78.6 23.7764C25.7381 16.6227 0 45.9356 0 91.8946C0 134.971 14.4913 149.278 46.8255 152C99.02 156.395 98.6626 117.43 120.826 119.945C159.71 124.356 176.398 166.883 212.387 119.945C238.434 85.9725 208.764 8.75017 167.234 8.75C136.326 8.74987 142.48 32.4211 78.6 23.7764Z" fill="#E2ECFF"/>
<rect x="96.9633" y="22.6113" width="56.302" height="83.9168" fill="white"/>
<path d="M103.89 57.4647C106.557 59.9372 113.006 63.3987 117.474 57.4647C123.06 50.0471 117.608 41.6912 129.36 39.9932" stroke="#D8E4FF" stroke-width="2"/>
<rect width="60.0555" height="2.14484" transform="matrix(1 0 0 -1 95.0886 108.673)" fill="#546375"/>
<rect width="8.31125" height="9.38367" transform="matrix(1 0 0 -1 120.915 22.6113)" fill="#546375"/>
<path d="M107.376 42.2257L103.89 45.1748L106.214 47.9006H111.755L112.068 46.8282L107.957 45.6664L110.236 43.1641L112.604 43.9684V47.2303L113.498 47.4984L114.123 43.9684L111.755 41.5107L107.376 42.2257Z" fill="#BCCFFF"/>
<path d="M204.805 43.1982L193.364 31.8869L181.923 43.1982L204.805 43.1982Z" fill="#04D3AB"/>
<path fill-rule="evenodd" clip-rule="evenodd" d="M202.689 39.8193L179.807 39.8193L191.248 28.508L202.689 39.8193ZM199.896 38.6755L182.6 38.6755L191.248 30.1257L199.896 38.6755Z" fill="#005746"/>
<path fill-rule="evenodd" clip-rule="evenodd" d="M185.719 129.177C187.648 129.014 188.679 127.843 188.679 125.694V122.003C188.679 119.853 189.337 119.112 191.698 119.112H192.311V116.088H190.817C186.706 116.088 184.673 117.511 184.673 121.469V124.567C184.673 126.568 184.24 127.488 182.311 127.488V131.282C184.24 131.282 184.673 132.201 184.673 134.202V136.841C184.673 140.769 186.706 142.088 190.817 142.088H192.311V139.079H191.698C189.337 139.079 188.679 138.338 188.679 136.188V132.839C188.679 130.689 187.648 129.77 185.719 129.592V129.177Z" fill="#AD74F6"/>
<path fill-rule="evenodd" clip-rule="evenodd" d="M195.823 113.765H194.426C193.142 113.765 192.063 114.018 191.312 114.739C190.557 115.464 190.24 116.559 190.24 117.99V120.135C190.24 120.83 190.168 121.2 190.043 121.398C189.959 121.53 189.807 121.657 189.323 121.657H188.823V125.284H189.323C189.807 125.284 189.959 125.41 190.043 125.542C190.168 125.74 190.24 126.111 190.24 126.806V128.632C190.24 130.054 190.558 131.13 191.318 131.835C192.071 132.532 193.15 132.765 194.426 132.765H195.823V129.682H194.955C194.281 129.682 194.021 129.554 193.894 129.409C193.75 129.245 193.644 128.915 193.644 128.18V125.861C193.644 125.057 193.478 124.392 193.074 123.906C192.919 123.719 192.738 123.57 192.538 123.454C192.748 123.318 192.934 123.146 193.091 122.934C193.477 122.414 193.644 121.72 193.644 120.915V118.359C193.644 117.624 193.75 117.295 193.894 117.131C194.021 116.986 194.281 116.858 194.955 116.858H195.823V113.765ZM194.823 114.765V115.86C194.137 115.875 193.542 116.016 193.142 116.471C192.735 116.935 192.644 117.606 192.644 118.359V120.915C192.644 121.598 192.5 122.052 192.288 122.338C192.087 122.608 191.783 122.783 191.319 122.829L190.868 122.873V124.063L191.315 124.111C191.815 124.164 192.117 124.318 192.305 124.545C192.5 124.78 192.644 125.177 192.644 125.861V128.18C192.644 128.933 192.735 129.604 193.142 130.069C193.542 130.524 194.137 130.665 194.823 130.68V131.765H194.426C193.236 131.765 192.472 131.541 191.998 131.101C191.533 130.67 191.24 129.93 191.24 128.632V126.806C191.24 126.115 191.183 125.475 190.888 125.008C190.64 124.614 190.27 124.407 189.823 124.325V122.615C190.27 122.534 190.64 122.326 190.888 121.932C191.183 121.466 191.24 120.825 191.24 120.135V117.99C191.24 116.682 191.533 115.914 192.005 115.461C192.48 115.004 193.244 114.765 194.426 114.765H194.823Z" fill="black"/>
<path d="M48.6168 114.262L50.7617 85.168H60.5922L56.66 115.648L50.0467 163.544L46.2933 162.752L48.6168 114.262Z" fill="url(#paint0_linear)"/>
<path d="M72.5663 114.262L70.4215 85.168H60.591L64.5232 115.648L71.1364 163.544L74.8899 162.752L72.5663 114.262Z" fill="url(#paint1_linear)"/>
<path d="M49.5559 40.3514C53.3987 37.4767 60.2357 37 60.2357 37C60.2357 37 73.491 38.8319 73.1936 41.9151C73.0271 43.6417 71.7363 57.3297 70.6024 68.7256C69.7115 77.6786 70.6024 85.1695 70.6024 85.1695H50.7626C50.7626 85.1695 51.8093 75.8534 50.7625 65.9551C49.54 54.3957 47.4857 41.9 49.5559 40.3514Z" fill="url(#paint2_linear)"/>
<rect x="61.2037" y="58.2725" width="14.2989" height="22.5208" transform="rotate(18.7899 61.2037 58.2725)" fill="white"/>
<path d="M44.328 164.704C45.4557 163.478 46.2941 162.56 46.2941 162.56L49.64 163.331C49.64 163.331 50.243 167.294 49.64 168.082C49.037 168.87 38.6978 171.117 38.6978 169.977C38.6978 168.837 39.2876 167.559 40.1613 167.237C40.1613 167.237 43.2003 165.931 44.328 164.704Z" fill="#333333"/>
<path d="M76.7155 164.704C75.5878 163.478 74.7494 162.56 74.7494 162.56L71.4034 163.331C71.4034 163.331 70.8005 166.419 71.4034 167.207C72.0064 167.995 81.7703 171.675 82.3457 169.977C82.9211 168.279 82.1971 167.529 81.3233 167.207C81.3233 167.207 77.8432 165.931 76.7155 164.704Z" fill="#333333"/>
<path d="M55.5866 38.3282L56.0758 32.9756L64.3917 33.4622C64.5548 35.0842 64.8809 38.4255 64.8809 38.8148C64.8809 39.3014 61.4567 45.1407 60.4783 44.6541C59.6957 44.2648 56.8911 40.2746 55.5866 38.3282Z" fill="#B2C4F4"/>
<path d="M59.8874 35.5633C62.337 35.5633 65.5601 34.4082 66.5338 29.4494C67.2584 25.7595 67.3774 22.4895 64.6055 19.379C62.0518 17.3971 56.501 17.2114 54.6884 20.1341C53.4621 22.1114 53.5096 27.818 53.6294 29.4494C53.8963 33.0847 56.9025 35.5633 59.8874 35.5633Z" fill="#BCCFFF"/>
<path d="M39.143 69.0806C37.7135 67.2182 46.0707 42.4324 49.4524 40.511C52.8342 38.5896 50.3728 50.2329 49.4524 54.6924C48.532 59.1518 45.9349 65.381 46.829 65.5059C47.7231 65.6308 66.759 73.1165 66.759 73.1165L64.8692 76.7945C64.8692 76.7945 40.5726 70.9431 39.143 69.0806Z" fill="url(#paint3_linear)"/>
<path d="M69.6164 72.6582L66.7566 73.105L64.8799 76.501L69.3483 78.8246C70.4207 78.5565 71.2966 77.216 71.94 76.501C72.7443 75.6074 72.4762 74.8924 72.4762 74.2668C72.4762 73.7664 70.5697 72.9859 69.6164 72.6582Z" fill="#BCCFFF"/>
<path d="M88.2063 50.7756C85.5624 50.5768 71.4794 40.2168 71.4794 40.2168L69.9752 47.026C69.9752 47.026 85.4731 57.5987 88.2063 57.733C91.5501 57.8972 106.259 47.897 106.259 47.897L103.667 44.9533C103.667 44.9533 92.0863 51.0673 88.2063 50.7756Z" fill="url(#paint4_linear)"/>
<path d="M108.299 38.0059L110.059 37.4004L113.721 47.9025L113.277 48.9753L111.961 48.508L108.299 38.0059Z" fill="#333333"/>
<path d="M111.263 108.673H114.034L105.991 170.337H103.22L111.263 108.673Z" fill="#546375"/>
<path d="M137.449 108.673H134.679L142.722 170.337H145.492L137.449 108.673Z" fill="#546375"/>
<path d="M56.4349 17.2058C55.148 17.7063 54.0219 18.5166 53.6198 18.8591C51.9665 19.4847 52.1087 24.7346 52.4136 27.2598C52.7264 29.8514 52.9942 32.8006 53.6198 33.3815C54.2454 33.9624 55.2731 33.7836 55.0496 32.7559C54.8262 31.7282 53.6198 28.7343 53.6198 27.796C53.6198 26.8576 53.6198 25.5618 54.29 25.4724C54.9603 25.383 54.7369 28.2428 55.2731 28.2428C56.4349 28.2428 55.5415 25.4277 55.9436 23.8638C56.3458 22.2998 59.25 22.836 61.3054 23.8638C63.3609 24.8915 65.5951 24.3553 66.5782 23.8638C67.5612 23.3722 67.025 20.0209 66.891 18.2336C66.7569 16.4462 64.1652 18.2336 62.5119 18.2336C60.8586 18.2336 58.0435 16.5802 56.4349 17.2058Z" fill="#51216F"/>
<defs>
<linearGradient id="paint0_linear" x1="52.8745" y1="85.168" x2="52.8745" y2="163.544" gradientUnits="userSpaceOnUse">
<stop stop-color="#2C326E"/>
<stop offset="0.779006" stop-color="#424988"/>
<stop offset="1" stop-color="#6B418C"/>
</linearGradient>
<linearGradient id="paint1_linear" x1="68.3087" y1="85.168" x2="68.3087" y2="163.544" gradientUnits="userSpaceOnUse">
<stop stop-color="#2C326E"/>
<stop offset="0.779006" stop-color="#424988"/>
<stop offset="1" stop-color="#6B418C"/>
</linearGradient>
<linearGradient id="paint2_linear" x1="61.3573" y1="38.9582" x2="61.3573" y2="83.1573" gradientUnits="userSpaceOnUse">
<stop offset="0.416667" stop-color="#62FFD0"/>
<stop offset="0.944444" stop-color="#B8D4FF"/>
</linearGradient>
<linearGradient id="paint3_linear" x1="51.2974" y1="52.3688" x2="50.0463" y2="76.7663" gradientUnits="userSpaceOnUse">
<stop stop-color="#62FFD0"/>
<stop offset="1" stop-color="#2FEDBF"/>
</linearGradient>
<linearGradient id="paint4_linear" x1="72.0306" y1="44.5065" x2="92.0491" y2="56.8393" gradientUnits="userSpaceOnUse">
<stop stop-color="#62FFD0"/>
<stop offset="1" stop-color="#2FEDBF"/>
</linearGradient>
</defs>
</svg>
