<svg width="64" height="64" viewBox="0 0 64 64" fill="none" xmlns="http://www.w3.org/2000/svg">
<circle cx="32" cy="32" r="32" fill="#9AE0EF"/>
<path fill-rule="evenodd" clip-rule="evenodd" d="M15.6367 15.5156C13.4276 15.5156 11.6367 17.3065 11.6367 19.5156V34.6051C11.6367 36.8142 13.4276 38.6051 15.6367 38.6051H37.7387C39.9479 38.6051 41.7387 36.8142 41.7387 34.6051V19.5156C41.7387 17.3065 39.9479 15.5156 37.7388 15.5156H15.6367ZM16.9481 43.3421L25.8016 38.6058H19.8993L16.9481 43.3421Z" fill="#4EABC0"/>
<path fill-rule="evenodd" clip-rule="evenodd" d="M15.1787 19.6885C15.1787 19.1362 15.6264 18.6885 16.1787 18.6885H36.6077C37.16 18.6885 37.6077 19.1362 37.6077 19.6885C37.6077 20.2408 37.16 20.6885 36.6077 20.6885H16.1787C15.6264 20.6885 15.1787 20.2408 15.1787 19.6885Z" fill="white"/>
<path fill-rule="evenodd" clip-rule="evenodd" d="M15.1787 26.5811C15.1787 26.0288 15.6264 25.5811 16.1787 25.5811H30.7053C31.2576 25.5811 31.7053 26.0288 31.7053 26.5811C31.7053 27.1333 31.2576 27.5811 30.7053 27.5811H16.1787C15.6264 27.5811 15.1787 27.1333 15.1787 26.5811Z" fill="white"/>
<path fill-rule="evenodd" clip-rule="evenodd" d="M15.1787 32.5C15.1787 31.9477 15.6264 31.5 16.1787 31.5H24.803C25.3552 31.5 25.803 31.9477 25.803 32.5C25.803 33.0523 25.3552 33.5 24.803 33.5H16.1787C15.6264 33.5 15.1787 33.0523 15.1787 32.5Z" fill="white"/>
<path fill-rule="evenodd" clip-rule="evenodd" d="M45.0486 47.9105C43.983 48.2705 42.8417 48.4657 41.655 48.4657C35.7874 48.4657 31.0308 43.6945 31.0308 37.809C31.0308 31.9235 35.7874 27.1523 41.655 27.1523C47.5226 27.1523 52.2792 31.9235 52.2792 37.809C52.2792 40.8118 51.0411 43.5245 49.049 45.4614L50.5091 50.8316L45.0486 47.9105Z" fill="white"/>
<path fill-rule="evenodd" clip-rule="evenodd" d="M45.2286 45.7386L47.362 46.8799L46.8099 44.849L47.6548 44.0275C49.2749 42.4522 50.2792 40.2506 50.2792 37.809C50.2792 33.0223 46.4123 29.1523 41.655 29.1523C36.8977 29.1523 33.0308 33.0223 33.0308 37.809C33.0308 42.5957 36.8977 46.4657 41.655 46.4657C42.6211 46.4657 43.5463 46.307 44.4084 46.0157L45.2286 45.7386ZM50.5091 50.8316L45.0486 47.9105C43.983 48.2705 42.8417 48.4657 41.655 48.4657C35.7874 48.4657 31.0308 43.6945 31.0308 37.809C31.0308 31.9235 35.7874 27.1523 41.655 27.1523C47.5226 27.1523 52.2792 31.9235 52.2792 37.809C52.2792 40.8118 51.0411 43.5245 49.049 45.4614L50.5091 50.8316Z" fill="#07333C"/>
<path fill-rule="evenodd" clip-rule="evenodd" d="M36.4268 33.6846C36.4268 33.1323 36.8745 32.6846 37.4268 32.6846H46.051C46.6033 32.6846 47.051 33.1323 47.051 33.6846C47.051 34.2369 46.6033 34.6846 46.051 34.6846H37.4268C36.8745 34.6846 36.4268 34.2369 36.4268 33.6846Z" fill="#07333C"/>
<path fill-rule="evenodd" clip-rule="evenodd" d="M36.4268 40.79C36.4268 40.2378 36.8745 39.79 37.4268 39.79H44.8705C45.4228 39.79 45.8705 40.2378 45.8705 40.79C45.8705 41.3423 45.4228 41.79 44.8705 41.79H37.4268C36.8745 41.79 36.4268 41.3423 36.4268 40.79Z" fill="#07333C"/>
<path fill-rule="evenodd" clip-rule="evenodd" d="M36.4268 37.2363C36.4268 36.684 36.8745 36.2363 37.4268 36.2363H41.9194C42.4716 36.2363 42.9194 36.684 42.9194 37.2363C42.9194 37.7886 42.4716 38.2363 41.9194 38.2363H37.4268C36.8745 38.2363 36.4268 37.7886 36.4268 37.2363Z" fill="#07333C"/>
<path fill-rule="evenodd" clip-rule="evenodd" d="M18.0444 58.4639C18.2451 58.7503 18.5091 58.987 18.818 59.152C18.5603 58.9268 18.3037 58.6984 18.0444 58.4639Z" fill="#82D0EF"/>
<path fill-rule="evenodd" clip-rule="evenodd" d="M32.8037 42.96L32.812 42.9728L32.8037 42.96Z" fill="#0064A0"/>
<path fill-rule="evenodd" clip-rule="evenodd" d="M33.5924 41.7793L32.8037 42.9595L32.8074 42.9652L33.5924 41.7793Z" fill="#005296"/>
<path fill-rule="evenodd" clip-rule="evenodd" d="M36.7508 37.9883C36.6287 38.1037 36.519 38.2145 36.4155 38.3229C36.5584 38.2027 36.6751 38.0896 36.7508 37.9883Z" fill="#1D0806"/>
<path fill-rule="evenodd" clip-rule="evenodd" d="M24.3389 36.5962L24.2422 36.8349L24.3394 36.5967L24.3389 36.5962ZM24.6914 35.7308L24.671 35.7806L24.6914 35.7308ZM24.672 33.877L24.4922 34.8796L24.672 33.8775C24.672 33.8775 24.672 33.8775 24.672 33.877Z" fill="#00A871"/>
</svg>
