<svg width="64" height="64" viewBox="0 0 64 64" fill="none" xmlns="http://www.w3.org/2000/svg">
<circle cx="32" cy="32" r="32" fill="#B7C2FF"/>
<path fill-rule="evenodd" clip-rule="evenodd" d="M24.3389 36.5962L24.2422 36.8349L24.3394 36.5967L24.3389 36.5962ZM24.6914 35.7308L24.671 35.7806L24.6914 35.7308ZM24.672 33.877L24.4922 34.8796L24.672 33.8775C24.672 33.8775 24.672 33.8775 24.672 33.877Z" fill="#00A871"/>
<path d="M33.5968 31.6561C39.5265 30.5004 38.0038 20.4578 32.7469 18.5243C32.3164 18.4127 31.5675 18.3174 30.8195 18.6546C30.0706 18.3174 29.3216 18.4127 28.8906 18.5243C23.6312 20.4588 22.11 30.5091 28.0488 31.6576C27.6711 35.9536 18.1436 33.2447 20.214 41.3331C20.8818 43.6566 29.495 44.08 30.8215 43.9887C32.1425 44.08 40.7542 43.6566 41.423 41.3331C43.4919 33.2579 34.0111 35.9221 33.5968 31.6561Z" fill="#90A1FF"/>
<path d="M46.0669 28.3164C46.7839 27.5664 47.2783 26.6446 47.4263 26.0995C47.5227 25.7491 47.5911 25.3794 47.6358 25.102C47.941 24.9535 48.1763 24.704 48.3021 24.3901C48.4821 23.9358 48.5794 22.9607 48.5815 22.9176C48.6601 22.1443 48.3867 21.6975 48.3624 21.6727C48.6788 18.5359 47.6768 17.9183 47.008 17.8072C46.7702 17.7667 46.4107 17.6789 46.2519 17.4994C45.8772 17.0872 45.7109 16.6278 45.0639 16.6648C44.8271 16.6775 44.5025 16.6029 44.32 16.4503C44.0705 16.2414 43.7308 16 43.4797 16C43.2298 16 42.9164 16.2333 42.6892 16.4366C42.5097 16.5968 42.1933 16.6775 41.956 16.6643C41.3089 16.6273 41.1431 17.0862 40.7679 17.4989C40.6087 17.6789 40.2492 17.7662 40.0113 17.8067C39.343 17.9178 38.3405 18.5359 38.6579 21.6737C38.6306 21.7031 38.3613 22.1498 38.4389 22.9165C38.4404 22.9601 38.5378 23.9353 38.7173 24.3896C38.8476 24.7035 39.0793 24.953 39.3841 25.1015C39.4292 25.3789 39.4982 25.7516 39.593 26.099C39.7461 26.6578 40.2466 27.5984 40.9733 28.3519H40.957C40.8992 30.869 37.8294 31.1307 35.6165 32.4045C35.6135 32.406 35.6114 32.4075 35.6089 32.4085C36.0435 32.6915 36.7179 32.9521 37.6727 33.2903C40.0159 34.1209 43.8454 35.4799 42.9859 40.6825C43.2145 40.6845 43.394 40.6805 43.5117 40.6719C44.7398 40.7591 52.7405 40.3529 53.3632 38.1355C55.3165 30.3087 46.188 32.6661 46.0669 28.3164Z" fill="#90A1FF"/>
<path d="M23.9726 33.305C24.936 32.9663 25.6145 32.7057 26.0485 32.4207C25.9111 32.3472 25.7793 32.2665 25.65 32.1824C23.4858 31.0648 20.7506 30.6845 20.6852 28.3164C21.4022 27.5664 21.8961 26.6446 22.0446 26.0995C22.14 25.7491 22.2094 25.3794 22.253 25.102C22.5588 24.9535 22.7936 24.704 22.9204 24.3901C23.0999 23.9358 23.1977 22.9607 23.1993 22.9176C23.2779 22.1443 23.005 21.6975 22.9797 21.6727C23.2966 18.5359 22.2946 17.9183 21.6263 17.8072C21.389 17.7667 21.0285 17.6789 20.8702 17.4994C20.4945 17.0872 20.3282 16.6278 19.6812 16.6648C19.4449 16.6775 19.1203 16.6029 18.9388 16.4503C18.6888 16.2414 18.348 16 18.0975 16C17.8476 16 17.5342 16.2333 17.3075 16.4366C17.128 16.5968 16.8121 16.6775 16.5738 16.6643C15.9273 16.6273 15.7609 17.0862 15.3862 17.4989C15.227 17.6789 14.8675 17.7662 14.6302 17.8067C13.9613 17.9178 12.9593 18.5359 13.2763 21.6737C13.2489 21.7031 12.9796 22.1498 13.0567 22.9165C13.0587 22.9601 13.1561 23.9353 13.3351 24.3896C13.4654 24.7035 13.6976 24.953 14.0024 25.1015C14.047 25.3789 14.1165 25.7516 14.2118 26.099C14.3634 26.6578 14.8644 27.5984 15.5916 28.3519H15.5753C15.4739 32.7148 6.32118 30.3006 8.27292 38.136C8.8946 40.3534 16.8978 40.7596 18.1295 40.6724C18.2456 40.681 18.4246 40.6845 18.6503 40.683C17.7918 35.4804 21.6263 34.1295 23.9726 33.305Z" fill="#90A1FF"/>
<path d="M37.4706 41.3834L31.6065 35.395L30.8683 34.6411L30.1551 35.4187L26.5965 39.2985L25.9634 39.9888L26.6109 40.6657L36.7588 51.2746L37.4864 52.0352L38.2087 51.2696L55.8557 32.5661L56.4941 31.8895L55.8653 31.2039L52.3068 27.3241L51.5828 26.5347L50.8449 27.3111L37.4706 41.3834Z" fill="#00FFD6" stroke="black" stroke-width="2"/>
</svg>
