<svg width="64" height="64" viewBox="0 0 64 64" fill="none" xmlns="http://www.w3.org/2000/svg">
<circle cx="32" cy="32" r="32" fill="#D3B0FF"/>
<path fill-rule="evenodd" clip-rule="evenodd" d="M34 12C27.3726 12 22 17.3726 22 24C22 30.6274 27.3726 36 34 36H38L49 42.5V34.3946C52.5868 32.3198 55 28.4417 55 24C55 17.3726 49.6274 12 43 12H34Z" fill="#B78DEC"/>
<path d="M16 24L13 27V48.5L14.5 51L16.5 52H32L34.5 51L35.5 49.5V29L34.5 25.5L32 24.5H29V23H19.5V24H16Z" fill="white"/>
<path fill-rule="evenodd" clip-rule="evenodd" d="M30.1429 23.2857V22H18.4286V23.2857H16.5714C14.0468 23.2857 12 25.3323 12 27.8571V48.4286C12 50.9533 14.0467 53 16.5714 53H32C34.5247 53 36.5714 50.9533 36.5714 48.4286V27.8571C36.5714 25.3323 34.5247 23.2857 32 23.2857H30.1429ZM17.8571 29.1429V25.2857H16.5714C16.3236 25.2857 16.0839 25.3208 15.8571 25.3862C14.7845 25.6957 14 26.6848 14 27.8571V48.4286C14 49.8487 15.1513 51 16.5714 51H32C33.4201 51 34.5714 49.8487 34.5714 48.4286V27.8571C34.5714 26.6848 33.7869 25.6957 32.7143 25.3862C32.4875 25.3208 32.2478 25.2857 32 25.2857H30.7143V29.1429H17.8571ZM17.8571 47.1429V44.5714H26.8571V47.1429H17.8571ZM30.7143 42V39.4286H17.8571V42H30.7143ZM30.7143 36.8571V34.2857H17.8571V36.8571H30.7143ZM28.1429 26.5714V24H20.4286V26.5714H28.1429Z" fill="black"/>
</svg>
