<svg width="64" height="64" viewBox="0 0 64 64" fill="none" xmlns="http://www.w3.org/2000/svg">
<circle cx="32" cy="32" r="32" fill="#FFB2B2"/>
<path fill-rule="evenodd" clip-rule="evenodd" d="M15.6365 15.5154C13.4274 15.5154 11.6365 17.3062 11.6365 19.5154V34.6048C11.6365 36.814 13.4274 38.6048 15.6365 38.6048H37.7386C39.9477 38.6048 41.7386 36.814 41.7386 34.6048V19.5154C41.7386 17.3062 39.9477 15.5154 37.7386 15.5154H15.6365ZM16.9479 43.3418L25.8014 38.6055H19.8991L16.9479 43.3418Z" fill="#AF5FFF"/>
<path fill-rule="evenodd" clip-rule="evenodd" d="M15.1788 19.6885C15.1788 19.1362 15.6265 18.6885 16.1788 18.6885H36.6078C37.1601 18.6885 37.6078 19.1362 37.6078 19.6885C37.6078 20.2408 37.1601 20.6885 36.6078 20.6885H16.1788C15.6265 20.6885 15.1788 20.2408 15.1788 19.6885Z" fill="#FFB2B2"/>
<path fill-rule="evenodd" clip-rule="evenodd" d="M15.1788 26.5808C15.1788 26.0285 15.6265 25.5808 16.1788 25.5808H30.7054C31.2577 25.5808 31.7054 26.0285 31.7054 26.5808C31.7054 27.1331 31.2577 27.5808 30.7054 27.5808H16.1788C15.6265 27.5808 15.1788 27.1331 15.1788 26.5808Z" fill="#FFB2B2"/>
<path fill-rule="evenodd" clip-rule="evenodd" d="M15.1788 32.5C15.1788 31.9477 15.6265 31.5 16.1788 31.5H24.8031C25.3554 31.5 25.8031 31.9477 25.8031 32.5C25.8031 33.0523 25.3554 33.5 24.8031 33.5H16.1788C15.6265 33.5 15.1788 33.0523 15.1788 32.5Z" fill="#FFB2B2"/>
<path fill-rule="evenodd" clip-rule="evenodd" d="M45.0486 47.91C43.983 48.27 42.8417 48.4652 41.655 48.4652C35.7874 48.4652 31.0308 43.694 31.0308 37.8085C31.0308 31.923 35.7874 27.1519 41.655 27.1519C47.5226 27.1519 52.2792 31.923 52.2792 37.8085C52.2792 40.8113 51.0411 43.524 49.049 45.461L50.5091 50.8312L45.0486 47.91Z" fill="#FFB2B2"/>
<path fill-rule="evenodd" clip-rule="evenodd" d="M45.2286 45.7381L47.362 46.8794L46.8099 44.8485L47.6548 44.027C49.2749 42.4517 50.2792 40.2501 50.2792 37.8085C50.2792 33.0218 46.4123 29.1519 41.655 29.1519C36.8977 29.1519 33.0308 33.0218 33.0308 37.8085C33.0308 42.5952 36.8977 46.4652 41.655 46.4652C42.6211 46.4652 43.5463 46.3065 44.4084 46.0152L45.2286 45.7381ZM50.5091 50.8312L45.0486 47.91C43.983 48.27 42.8417 48.4652 41.655 48.4652C35.7874 48.4652 31.0308 43.694 31.0308 37.8085C31.0308 31.923 35.7874 27.1519 41.655 27.1519C47.5226 27.1519 52.2792 31.923 52.2792 37.8085C52.2792 40.8113 51.0411 43.524 49.049 45.461L50.5091 50.8312Z" fill="#5E3174"/>
<path fill-rule="evenodd" clip-rule="evenodd" d="M36.4269 33.6846C36.4269 33.1323 36.8747 32.6846 37.4269 32.6846H46.0512C46.6035 32.6846 47.0512 33.1323 47.0512 33.6846C47.0512 34.2369 46.6035 34.6846 46.0512 34.6846H37.4269C36.8747 34.6846 36.4269 34.2369 36.4269 33.6846Z" fill="#AF5FFF"/>
<path fill-rule="evenodd" clip-rule="evenodd" d="M36.4269 40.7903C36.4269 40.238 36.8747 39.7903 37.4269 39.7903H44.8707C45.423 39.7903 45.8707 40.238 45.8707 40.7903C45.8707 41.3426 45.423 41.7903 44.8707 41.7903H37.4269C36.8747 41.7903 36.4269 41.3426 36.4269 40.7903Z" fill="#AF5FFF"/>
<path fill-rule="evenodd" clip-rule="evenodd" d="M36.4269 37.2366C36.4269 36.6843 36.8747 36.2366 37.4269 36.2366H41.9195C42.4718 36.2366 42.9195 36.6843 42.9195 37.2366C42.9195 37.7889 42.4718 38.2366 41.9195 38.2366H37.4269C36.8747 38.2366 36.4269 37.7889 36.4269 37.2366Z" fill="#AF5FFF"/>
<path fill-rule="evenodd" clip-rule="evenodd" d="M18.0443 58.4634C18.2449 58.7499 18.5089 58.9865 18.8178 59.1515C18.5601 58.9263 18.3035 58.698 18.0443 58.4634Z" fill="#82D0EF"/>
<path fill-rule="evenodd" clip-rule="evenodd" d="M32.8038 42.9597L32.8121 42.9726L32.8038 42.9597Z" fill="#0064A0"/>
<path fill-rule="evenodd" clip-rule="evenodd" d="M33.5925 41.7788L32.8038 42.959L32.8075 42.9647L33.5925 41.7788Z" fill="#005296"/>
<path fill-rule="evenodd" clip-rule="evenodd" d="M36.7506 37.9885C36.6286 38.104 36.5189 38.2147 36.4154 38.3231C36.5583 38.2029 36.6749 38.0898 36.7506 37.9885Z" fill="#1D0806"/>
<path fill-rule="evenodd" clip-rule="evenodd" d="M24.3391 36.5962L24.2424 36.8349L24.3396 36.5967L24.3391 36.5962ZM24.6916 35.7307L24.6713 35.7805L24.6916 35.7307ZM24.6722 33.877L24.4924 34.8796L24.6722 33.8775C24.6722 33.8775 24.6722 33.8775 24.6722 33.877Z" fill="#00A871"/>
</svg>
