<svg width="64" height="64" viewBox="0 0 64 64" fill="none" xmlns="http://www.w3.org/2000/svg">
<circle cx="32" cy="32" r="32" fill="#A4B2FF"/>
<path fill-rule="evenodd" clip-rule="evenodd" d="M15 14C12.7909 14 11 15.7909 11 18V33.2311C11 35.4403 12.7909 37.2311 15 37.2311H16.4179L16 43.5L27.7019 37.2311H37.9997C40.2089 37.2311 41.9997 35.4403 41.9997 33.2311V18C41.9997 15.7909 40.2089 14 37.9998 14H15Z" fill="#6A80F7"/>
<path d="M46.9032 34.9075C47.9567 35.7079 47.9567 37.2923 46.9032 38.0927L37.9594 44.887C36.6426 45.8874 34.7496 44.9482 34.7496 43.2944L34.7496 29.7058C34.7496 28.052 36.6426 27.1128 37.9594 28.1132L46.9032 34.9075Z" fill="#3B4160"/>
<path fill-rule="evenodd" clip-rule="evenodd" d="M39.5 49C46.4036 49 52 43.4036 52 36.5C52 29.5964 46.4036 24 39.5 24C32.5964 24 27 29.5964 27 36.5C27 43.4036 32.5964 49 39.5 49ZM39.5 52C48.0604 52 55 45.0604 55 36.5C55 27.9396 48.0604 21 39.5 21C30.9396 21 24 27.9396 24 36.5C24 45.0604 30.9396 52 39.5 52Z" fill="#3B4160"/>
</svg>
