<svg width="64" height="64" viewBox="0 0 64 64" fill="none" xmlns="http://www.w3.org/2000/svg">
<path fill-rule="evenodd" clip-rule="evenodd" d="M24.3389 36.5962L24.2422 36.8349L24.3394 36.5967L24.3389 36.5962ZM24.6914 35.7308L24.671 35.7806L24.6914 35.7308ZM24.672 33.877L24.4922 34.8796L24.672 33.8775C24.672 33.8775 24.672 33.8775 24.672 33.877Z" fill="#00A871"/>
<circle cx="32" cy="32" r="32" fill="#95F99F"/>
<path d="M20.9855 17.4185L18.7614 15.1944C18.4319 14.8649 17.8964 14.8649 17.5669 15.1944L9.24712 23.473C8.91763 23.8025 8.91763 24.338 9.24712 24.6675L17.5669 32.9873C17.8964 33.3168 18.4319 33.3168 18.7614 32.9873L20.9855 30.7632C21.315 30.4337 21.315 29.8982 20.9855 29.5687L15.5076 24.0908L20.9855 18.6129C21.315 18.2834 21.315 17.748 20.9855 17.4185Z" fill="#4CCA58"/>
<path d="M47.881 23.473L39.5612 15.1944C39.2317 14.8649 38.6962 14.8649 38.3667 15.1944L36.1426 17.4185C35.8131 17.748 35.8131 18.2834 36.1426 18.6129L41.6205 24.0908L36.1426 29.5687C35.8131 29.8982 35.8131 30.4337 36.1426 30.7632L38.3667 32.9873C38.6962 33.3168 39.2317 33.3168 39.5612 32.9873L47.8398 24.6675C48.2105 24.3791 48.2105 23.8025 47.881 23.473Z" fill="#4CCA58"/>
<path d="M33.0534 14H30.3762C30.0055 14 29.676 14.2471 29.5525 14.5766L23.2508 33.0285C23.0449 33.6051 23.4568 34.1817 24.0746 34.1817H26.7517C27.1224 34.1817 27.4519 33.9346 27.5755 33.6051L33.9183 15.1532C34.0831 14.5766 33.6712 14 33.0534 14Z" fill="#4CCA58"/>
<path fill-rule="evenodd" clip-rule="evenodd" d="M10 37C8.89543 37 8 37.8954 8 39V46C8 47.1046 8.89543 48 10 48H23L26 52.5L29 48H41C42.1046 48 43 47.1046 43 46V39C43 37.8954 42.1046 37 41 37H10Z" fill="white"/>
<path fill-rule="evenodd" clip-rule="evenodd" d="M26 30C25.4477 30 25 30.4477 25 31V38C25 38.5523 25.4477 39 26 39H36.5352L39 42.6972L41.4648 39H52C52.5523 39 53 38.5523 53 38V31C53 30.4477 52.5523 30 52 30H26ZM23 31C23 29.3431 24.3431 28 26 28H52C53.6569 28 55 29.3431 55 31V38C55 39.6569 53.6569 41 52 41H42.5352L39 46.3028L35.4648 41H26C24.3431 41 23 39.6569 23 38V31Z" fill="black"/>
</svg>
