<svg width="64" height="64" viewBox="0 0 64 64" fill="none" xmlns="http://www.w3.org/2000/svg">
<circle cx="32" cy="32" r="32" fill="#FFE897"/>
<path fill-rule="evenodd" clip-rule="evenodd" d="M24.3389 36.5962L24.2422 36.8349L24.3394 36.5967L24.3389 36.5962ZM24.6914 35.7308L24.671 35.7806L24.6914 35.7308ZM24.672 33.877L24.4922 34.8796L24.672 33.8775C24.672 33.8775 24.672 33.8775 24.672 33.877Z" fill="#00A871"/>
<path d="M46.1018 23.8465C45.7745 20.5642 47.2867 19.6373 46.0474 17.1715C44.8081 14.7068 42.6313 15.6193 40.2524 13.8365C37.8723 12.0555 38.6544 9.87808 35.4817 9.15573C32.3079 8.43454 32.232 10.4265 29.0193 10.8859C25.8066 11.3453 24.9103 9.28518 22.328 10.9396C19.7457 12.5941 21.4659 13.4118 18.9838 16.7207C16.5017 20.0297 15.1465 18.2365 14.2896 21.4773C13.4345 24.7191 15.774 24.774 16.0237 27.9235C16.2752 31.0735 14.3209 31.5485 16.0782 34.598C17.8355 37.6469 19.2909 35.6509 21.8743 37.9329C24.4578 40.2161 22.4781 41.4083 26.6438 42.6149C30.809 43.8215 29.63 41.4978 33.1074 40.8859C36.5849 40.2722 36.7135 42.6894 39.7993 40.8321C42.8833 38.9737 41.3289 37.5278 43.1429 35.0499C44.9564 32.5725 46.9234 33.7427 47.8359 30.2934C48.7479 26.8417 46.4292 27.1283 46.1018 23.8465ZM27.8878 37.9092C21.2283 36.16 17.2532 29.3578 19.0076 22.718C20.7608 16.077 27.5813 12.1122 34.2395 13.8608C40.8972 15.6106 44.8724 22.4123 43.118 29.0538C41.3636 35.6942 34.546 39.6596 27.8878 37.9092Z" fill="#FFB903"/>
<path fill-rule="evenodd" clip-rule="evenodd" d="M34.1584 43.6737C38.684 43.0895 41.6707 41.8355 45.3498 39.0732L50.9999 52.1807L42.6852 48.2644L40.0287 57.1499L34.1584 43.6737ZM13 52.1808L18.649 39.6536C22.3999 42.5285 25.5071 43.4271 29.7384 43.9732L23.9677 57.15L21.3141 48.2645L13 52.1808Z" fill="#FFB903"/>
<path d="M31.0625 15.0723C25.0844 15.0723 20.2217 19.923 20.2217 25.8849C20.2217 31.8469 25.0844 36.697 31.0625 36.697C37.0406 36.697 41.9039 31.8463 41.9039 25.8849C41.9039 19.923 37.0412 15.0723 31.0625 15.0723ZM29.5637 31.6002L24.4819 26.5322L26.6024 24.4194L29.5637 27.3741L36.7862 20.1709L38.9039 22.2842L29.5637 31.6002Z" fill="#35DE46"/>
</svg>
