<svg width="64" height="64" viewBox="0 0 64 64" fill="none" xmlns="http://www.w3.org/2000/svg">
<circle cx="32" cy="32" r="32" fill="#F2BCFF"/>
<path d="M28.1066 19.0839H37.0153C37.1357 19.0839 37.3163 19.0237 37.3765 18.9033C37.4969 18.7829 37.4969 18.6626 37.4969 18.5422L37.1357 17.2781C36.8949 16.3752 36.1726 15.7732 35.2697 15.6529L34.4872 15.4723L34.2464 14.8101C34.9085 14.3888 35.3901 13.6664 35.5707 12.8237C35.8114 12.7033 36.1726 12.4024 36.1726 11.6198C36.1726 11.0781 36.1124 10.7169 35.8716 10.5363C35.8114 10.4762 35.8114 10.4762 35.7512 10.416C35.5707 8.73052 34.2464 7.40625 32.561 7.40625C30.8755 7.40625 29.5512 8.73052 29.3707 10.416C29.3105 10.416 29.2503 10.4762 29.2503 10.4762C29.0697 10.6567 28.9493 11.0179 28.9493 11.5596C28.9493 12.3422 29.3105 12.6431 29.5512 12.7635C29.7318 13.6062 30.2134 14.2684 30.8755 14.7499L30.6347 15.4121L29.8522 15.5325C28.9493 15.6529 28.227 16.315 27.9862 17.1577L27.625 18.4218C27.5648 18.5422 27.625 18.7228 27.6852 18.8431C27.8658 19.0237 27.9862 19.0839 28.1066 19.0839ZM31.1163 15.7732L31.3571 15.1111C31.7182 15.2917 32.1396 15.4121 32.6211 15.4121C33.0425 15.4121 33.4639 15.2917 33.825 15.1111L34.0658 15.7732C33.1629 16.3752 31.959 16.3752 31.1163 15.7732ZM30.0328 12.5829C30.0328 12.4626 29.9124 12.4024 29.8522 12.4024C29.792 12.4024 29.4911 12.282 29.4911 11.68C29.4911 11.3791 29.5512 11.1985 29.5512 11.0781C29.6114 11.0781 29.6114 11.0781 29.6114 11.0781C29.6114 11.1383 29.6716 11.4995 29.7318 11.4995H30.093C30.2134 11.4995 30.2736 11.4393 30.2736 11.3189C30.2736 11.3189 30.3338 10.3558 30.4542 9.75382C30.4542 9.63343 30.5745 9.51305 30.6949 9.57324C31.1765 9.69363 31.8386 9.75382 32.561 9.75382C33.2833 9.75382 33.9454 9.69363 34.427 9.57324C34.5474 9.51305 34.6677 9.63343 34.6677 9.75382C34.7279 10.3558 34.8483 11.3189 34.8483 11.3189C34.8483 11.3791 34.9085 11.4995 34.9687 11.4995H35.3299C35.3901 11.4995 35.4503 11.1383 35.4503 11.0781H35.5105C35.5707 11.1985 35.5707 11.3189 35.5707 11.68C35.5707 12.282 35.2697 12.4024 35.2095 12.4024C35.0891 12.4024 35.0289 12.5228 35.0289 12.5829C34.7881 13.9072 33.7046 14.8101 32.5008 14.8101C31.3571 14.8101 30.2736 13.9072 30.0328 12.5829Z" fill="#D22DFC"/>
<path d="M14.8798 19.2798C14.8798 19.5808 15.0604 19.8817 15.4216 20.2429C15.6022 20.4235 15.7828 20.5439 15.9633 20.6041C16.2041 21.0254 16.5051 21.6274 16.6255 22.1089C16.6857 22.2293 16.7459 22.2895 16.8663 22.2895C17.408 22.1089 18.1303 21.6274 18.7925 21.1458C18.8527 21.1458 18.9129 21.1458 18.973 21.0856L19.274 21.7478L18.7925 22.4099C18.2507 23.1322 18.1905 24.0953 18.6721 24.8779L19.3342 26.0215C19.3944 26.1419 19.5148 26.2021 19.6954 26.2623C19.8158 26.2623 19.9964 26.2021 20.0565 26.1419L26.3769 19.8215C26.4973 19.7012 26.5575 19.5808 26.4973 19.4604C26.4973 19.34 26.3769 19.2196 26.2565 19.0992L25.173 18.4371C24.3905 17.9555 23.4274 18.0157 22.7051 18.5575L22.043 19.039L21.3808 18.7381C21.3808 18.6779 21.3808 18.6177 21.441 18.5575C21.9226 17.8953 22.4041 17.173 22.5245 16.6313C22.5245 16.5109 22.4643 16.4507 22.3439 16.3905C21.8624 16.2701 21.2604 15.9691 20.8391 15.7283C20.7789 15.5478 20.6585 15.3672 20.4779 15.1866C20.1167 14.8254 19.8158 14.6448 19.5148 14.6448C19.4546 14.6448 19.3944 14.6448 19.3342 14.6448C18.0099 13.5614 16.0837 13.5614 14.94 14.7652C13.7362 15.9691 13.7362 17.8351 14.8197 19.1594C14.8798 19.1594 14.8798 19.2196 14.8798 19.2798ZM21.9226 19.5808C21.742 20.6643 20.8993 21.507 19.876 21.6274L19.5148 20.9652C19.9362 20.8448 20.2973 20.6041 20.5983 20.3031C20.8993 20.0021 21.14 19.641 21.2604 19.2196L21.9226 19.5808ZM15.6624 17.9555C15.7226 18.0157 15.843 17.9555 15.9031 17.8953L18.1905 15.608C18.2507 15.5478 18.2507 15.4274 18.2507 15.3672L18.0701 14.8856C18.5517 15.2468 19.0934 15.7283 19.9362 15.9089C19.7556 15.6681 19.6352 15.3672 19.575 15.1264H19.6352C19.6954 15.1264 19.8158 15.1264 20.2371 15.5478C20.6585 15.9691 20.5381 16.2701 20.4779 16.3303C20.4177 16.3905 20.4177 16.5109 20.4779 16.6313C21.2002 17.7147 21.14 19.1594 20.2973 20.0021C19.4546 20.8448 18.0099 20.9652 16.9264 20.1827C16.8663 20.1225 16.7459 20.1225 16.6255 20.1827C16.5653 20.1827 16.2643 20.3633 15.843 19.9419C15.4818 19.5808 15.4216 19.4002 15.4216 19.34C15.4216 19.34 15.4216 19.34 15.4216 19.2798C15.6022 19.34 15.9031 19.4604 16.2041 19.641C16.0235 18.7982 15.542 18.1963 15.1808 17.7749L15.6624 17.9555Z" fill="#D22DFC"/>
<path d="M15.5863 35.3361C15.7067 36.239 16.3688 36.9613 17.2116 37.2021L18.4756 37.5633C18.596 37.6234 18.7766 37.5632 18.897 37.5031C19.0174 37.4429 19.0776 37.2623 19.0776 37.1419V28.173C19.0776 28.0526 19.0174 27.872 18.897 27.8118C18.7766 27.6914 18.6562 27.6914 18.5358 27.6914L17.2717 28.0526C16.3688 28.2933 15.7669 29.0157 15.6465 29.9186L15.4659 30.7011L14.8038 30.9419C14.3824 30.2798 13.6601 29.7982 12.8174 29.6176C12.697 29.3768 12.396 29.0157 11.6135 29.0157C11.0717 29.0157 10.7106 29.1361 10.53 29.3166C10.4698 29.3768 10.4698 29.3768 10.4096 29.437C8.72417 29.6176 7.3999 30.9419 7.3999 32.6273C7.3999 34.3128 8.72417 35.637 10.4096 35.8176C10.4096 35.8778 10.4698 35.938 10.4698 35.938C10.6504 36.1186 11.0116 36.239 11.5533 36.239C12.3358 36.239 12.6368 35.8778 12.7572 35.637C13.5999 35.4565 14.262 34.9749 14.7436 34.3128L15.4057 34.5535L15.5863 35.3361ZM12.5766 35.1555C12.4562 35.1555 12.396 35.2759 12.396 35.3361C12.396 35.3963 12.2756 35.6972 11.6737 35.6972C11.3727 35.6972 11.1921 35.637 11.0717 35.637C11.0717 35.5768 11.0717 35.5768 11.0717 35.5768C11.1319 35.5768 11.4931 35.5166 11.4931 35.4565V35.0953C11.4931 34.9749 11.4329 34.9147 11.3125 34.9147C11.3125 34.9147 10.3494 34.8545 9.74747 34.7341C9.62709 34.7341 9.5067 34.6137 9.56689 34.4933C9.68728 34.0118 9.74747 33.3497 9.74747 32.6273C9.74747 31.905 9.68728 31.2429 9.56689 30.7613C9.5067 30.6409 9.62709 30.5205 9.74747 30.5205C10.3494 30.4603 11.3125 30.34 11.3125 30.34C11.3727 30.34 11.4931 30.2798 11.4931 30.2196V29.8584C11.4931 29.7982 11.1319 29.738 11.0717 29.738V29.6778C11.1921 29.6176 11.3125 29.6176 11.6737 29.6176C12.2756 29.6176 12.396 29.9186 12.396 29.9788C12.396 30.0992 12.5164 30.1594 12.5766 30.1594C13.9009 30.4001 14.8038 31.4836 14.8038 32.6875C14.8038 33.8312 13.9009 34.9147 12.5766 35.1555ZM15.0446 31.3632L15.7067 31.1225C16.3688 32.0254 16.3688 33.1691 15.7067 34.072L15.0446 33.8312C15.2251 33.47 15.3455 33.0487 15.3455 32.5671C15.3455 32.1458 15.2251 31.7846 15.0446 31.3632Z" fill="#D22DFC"/>
<path d="M19.9964 38.0688C19.876 37.9484 19.7556 37.8882 19.6352 37.9484C19.5148 37.9484 19.3944 38.0688 19.274 38.1892L18.6119 39.2727C18.1303 40.0552 18.1905 41.0183 18.7323 41.7406L19.2138 42.4028L18.9129 43.0649C18.8527 43.0649 18.7925 43.0649 18.7323 43.0047C18.0701 42.5232 17.3478 42.0416 16.8061 41.9212C16.6857 41.9212 16.5653 41.9814 16.5653 42.1018C16.4449 42.5834 16.1439 43.1853 15.9031 43.6067C15.7226 43.6669 15.542 43.7873 15.3614 43.9678C15.0002 44.329 14.8197 44.63 14.8197 44.9309C14.8197 44.9911 14.8197 45.0513 14.8197 45.1115C13.7362 46.4358 13.7362 48.362 14.94 49.5057C16.1439 50.7096 18.0099 50.7096 19.3342 49.6261C19.3944 49.6261 19.4546 49.6261 19.4546 49.6261C19.7556 49.6261 20.0565 49.4455 20.4177 49.0843C20.5983 48.9038 20.7187 48.7232 20.7789 48.5426C21.2002 48.3018 21.8022 48.0008 22.2837 47.8805C22.4041 47.8203 22.4643 47.7601 22.4643 47.6397C22.2837 47.0979 21.8022 46.3756 21.3808 45.7135C21.3808 45.6533 21.3808 45.5931 21.3206 45.5329L21.9828 45.2319L22.6449 45.7135C23.3672 46.2552 24.3303 46.3154 25.1129 45.8339L26.2565 45.1717C26.3769 45.1115 26.4371 44.9911 26.4973 44.8106C26.4973 44.6902 26.4371 44.5096 26.3769 44.4494L19.9964 38.0688ZM20.3575 47.5795C20.2973 47.6397 20.2973 47.7601 20.3575 47.8805C20.3575 47.9407 20.5381 48.2416 20.1167 48.663C19.7556 49.0241 19.575 49.0843 19.5148 49.0843C19.5148 49.0843 19.5148 49.0843 19.4546 49.0843C19.5148 48.9038 19.6352 48.6028 19.8158 48.3018C18.973 48.4824 18.3711 48.9639 17.9497 49.3251L18.1303 48.8436C18.1905 48.7834 18.1303 48.663 18.0701 48.6028L15.7828 46.3154C15.7226 46.2552 15.6022 46.2552 15.542 46.2552L15.0604 46.4358C15.4216 45.9542 15.9031 45.4125 16.0837 44.5698C15.843 44.7504 15.542 44.8707 15.3012 44.9309V44.8707C15.3012 44.8106 15.3012 44.6902 15.7226 44.2688C16.1439 43.8474 16.4449 43.9678 16.5051 44.028C16.5653 44.0882 16.6857 44.0882 16.8061 44.028C17.8896 43.3057 19.3342 43.3659 20.1769 44.2086C21.0197 45.1115 21.0798 46.496 20.3575 47.5795ZM21.14 44.9309C21.0197 44.5096 20.7789 44.1484 20.4779 43.8474C20.1769 43.5465 19.8158 43.3057 19.3944 43.1853L19.7556 42.5232C20.8391 42.7038 21.6818 43.5465 21.8022 44.5698L21.14 44.9309Z" fill="#D22DFC"/>
<path d="M37.2565 45.1475H28.3478C28.2274 45.1475 28.0468 45.2077 27.9866 45.328C27.8662 45.4484 27.8662 45.5688 27.8662 45.7494L28.2274 47.0135C28.4682 47.9164 29.1905 48.5183 30.0934 48.6387L30.8759 48.7591L31.1167 49.4212C30.4546 49.8426 29.973 50.5649 29.7924 51.4077C29.5516 51.528 29.1905 51.829 29.1905 52.6115C29.1905 53.1533 29.2507 53.5144 29.4915 53.695C29.5516 53.7552 29.5516 53.7552 29.6118 53.8154C29.7924 55.5009 31.1167 56.8251 32.8021 56.8251C34.4876 56.8251 35.8118 55.5009 35.9924 53.8154C36.0526 53.8154 36.1128 53.7552 36.1128 53.7552C36.2934 53.5746 36.4138 53.2135 36.4138 52.6717C36.4138 51.8892 36.0526 51.5882 35.8118 51.4678C35.6313 50.6251 35.1497 49.963 34.4876 49.4814L34.7283 48.8193L35.5109 48.6989C36.4138 48.5785 37.1361 47.9164 37.3769 47.0737L37.7381 45.8096C37.7983 45.6892 37.7381 45.5086 37.6779 45.3882C37.4973 45.2077 37.3769 45.1475 37.2565 45.1475ZM34.2468 48.4581L34.006 49.1805C33.6449 48.9999 33.2235 48.8795 32.7419 48.8795C32.3206 48.8795 31.8992 48.9999 31.5381 49.1805L31.2973 48.5183C32.2002 47.8562 33.4041 47.8562 34.2468 48.4581ZM35.3303 51.6484C35.3303 51.7688 35.4507 51.829 35.5109 51.829C35.5711 51.829 35.872 51.9494 35.872 52.5513C35.872 52.8523 35.8118 53.0329 35.8118 53.1533C35.7516 53.1533 35.7516 53.1533 35.7516 53.1533C35.7516 53.0931 35.6915 52.7319 35.6313 52.7319H35.2701C35.2099 52.7319 35.1497 52.7921 35.1497 52.9125C35.1497 52.9125 35.0895 53.8756 34.9691 54.4776C34.9691 54.5979 34.8487 54.7183 34.7283 54.6581C34.2468 54.5377 33.5847 54.4776 32.8623 54.4776C32.14 54.4776 31.4779 54.5377 30.9963 54.6581C30.8759 54.7183 30.7555 54.5979 30.7555 54.4776C30.6953 53.8756 30.5749 52.9125 30.5749 52.9125C30.5749 52.8523 30.5148 52.7319 30.4546 52.7319H30.0934C30.0332 52.7319 29.973 53.0931 29.973 53.1533H29.9128C29.8526 53.0329 29.8526 52.9125 29.8526 52.5513C29.8526 51.9494 30.1536 51.829 30.2138 51.829C30.3342 51.829 30.3944 51.7086 30.3944 51.6484C30.6351 50.3242 31.7186 49.4212 32.9225 49.4212C34.006 49.4212 35.0895 50.3242 35.3303 51.6484Z" fill="#D22DFC"/>
<path d="M50.3423 44.9675C50.3423 44.6666 50.1617 44.3656 49.8005 44.0044C49.6199 43.8238 49.4393 43.7034 49.2588 43.6433C49.018 43.2219 48.717 42.6199 48.5966 42.1384C48.5364 42.018 48.4762 41.9578 48.3559 41.9578C47.8141 42.1384 47.0918 42.6199 46.4296 43.0413C46.3694 43.0413 46.3093 43.0413 46.2491 43.1015L45.9481 42.4394L46.4296 41.7772C46.9714 41.0549 47.0316 40.0918 46.55 39.3093L45.8879 38.1656C45.8277 38.0452 45.7073 37.985 45.5267 37.9248C45.4063 37.9248 45.2258 37.985 45.1656 38.0452L38.8452 44.4258C38.7248 44.5462 38.6646 44.6665 38.7248 44.7869C38.7248 44.9073 38.8452 45.0277 38.9656 45.1481L40.1092 45.8102C40.8918 46.2918 41.8549 46.2316 42.5772 45.6898L43.2393 45.2083L43.9015 45.5093C43.9015 45.5695 43.9015 45.6297 43.8413 45.6898C43.3597 46.352 42.8782 47.0743 42.7578 47.6161C42.7578 47.7365 42.818 47.8568 42.9384 47.8568C43.4199 47.9772 44.0219 48.2782 44.4432 48.519C44.5034 48.6996 44.6238 48.8801 44.8044 49.0607C45.1656 49.4219 45.4665 49.6025 45.7675 49.6025C45.8277 49.6025 45.8879 49.6025 45.9481 49.6025C47.2724 50.686 49.1986 50.686 50.3423 49.4821C51.5461 48.2782 51.5461 46.4122 50.4626 45.0879C50.3423 45.0879 50.3423 45.0277 50.3423 44.9675ZM43.2995 44.6666C43.4801 43.5831 44.3228 42.7403 45.3461 42.6199L45.7073 43.2821C45.286 43.4025 44.9248 43.6433 44.6238 43.9442C44.3228 44.2452 44.0821 44.6064 43.9617 45.0277L43.2995 44.6666ZM49.5597 46.2918C49.4995 46.2316 49.3792 46.2918 49.319 46.352L47.0316 48.6394C46.9714 48.6996 46.9714 48.8199 46.9714 48.8801L47.152 49.3617C46.6704 49.0005 46.1287 48.519 45.2859 48.3384C45.4665 48.5792 45.5869 48.8801 45.6471 49.1209H45.5869C45.5267 49.1209 45.4063 49.1209 44.985 48.6996C44.5636 48.2782 44.684 47.9772 44.7442 47.917C44.8044 47.8568 44.8044 47.7365 44.7442 47.6161C44.0219 46.5326 44.0821 45.0879 44.9248 44.2452C45.7675 43.4025 47.2122 43.2821 48.2957 44.0646C48.3559 44.1248 48.4762 44.1248 48.5966 44.0646C48.6568 44.0646 48.9578 43.884 49.3792 44.3054C49.7403 44.6666 49.8005 44.8471 49.8005 44.9073C49.8005 44.9073 49.8005 44.9073 49.8005 44.9675C49.6199 44.9073 49.319 44.7869 49.018 44.6064C49.1986 45.4491 49.6801 46.051 50.0413 46.4724L49.5597 46.2918Z" fill="#D22DFC"/>
<path d="M43.8333 25.8333L38.5 26.5L43.2667 32.8333L45.5333 31.6667L48.3667 32.8333L52.9 34L55.1667 31.6667L58 28.1667L57.4333 22.9167L52.3333 20.5833L48.9333 20L46.1 22.3333L43.8333 25.8333Z" fill="white"/>
<path d="M51.0816 20.2214C51.0482 20.1018 50.8952 20.0156 50.8952 20.0156C50.4362 19.7572 49.6519 19.7186 48.5758 20.0195C47.0214 20.454 46.6241 21.3386 46.5187 21.8837C44.945 22.7104 43.8972 24.0346 43.3083 25.6173L41.8593 25.5067L41.1857 24.0192C40.4451 22.2925 38.7287 21.2254 36.9211 21.2151L34.2095 21.1996C33.937 21.1469 33.6117 21.3668 33.406 21.5532C33.2003 21.7396 33.181 22.1317 33.2478 22.3709L38.195 40.0671C38.2619 40.3062 38.4817 40.6315 38.7543 40.6842C39.2133 40.9427 39.4524 40.8758 39.6916 40.809L42.002 39.3896C43.6618 38.4099 44.4563 36.6408 44.1941 34.7804L43.9987 33.1592L45.1802 32.3132C46.3849 33.3945 48.0871 33.9499 49.8614 33.8406C50.2342 34.252 51.0326 34.8023 52.587 34.3678C53.6632 34.0669 54.3471 33.7468 54.5721 33.1682C54.6583 33.0152 54.6583 33.0152 54.7444 32.8622C57.9921 31.5676 59.8872 28.2017 58.9513 24.8537C57.9292 21.6588 54.5298 19.6441 51.0816 20.2214ZM44.5875 31.5765L43.406 32.4225C41.5893 30.9966 40.9542 28.7248 41.7681 26.5636L43.217 26.6741C43.0589 27.4918 43.0537 28.3957 43.3211 29.3522C43.5551 30.1892 43.9948 30.8398 44.5875 31.5765ZM55.8026 29.7303C55.989 29.936 55.8167 30.242 55.5776 30.3089C54.4153 30.7627 52.5691 31.5367 52.5691 31.5367C52.4495 31.5701 52.2438 31.7565 52.2772 31.8761L52.4778 32.5935C52.5112 32.7131 53.262 32.6321 53.3816 32.5987L53.415 32.7182C53.2093 32.9047 52.9702 32.9715 52.2528 33.1721C51.0571 33.5063 50.6508 32.9754 50.6174 32.8558C50.5505 32.6166 50.278 32.5639 50.1584 32.5974C47.3942 32.8545 44.9989 31.2036 44.3304 28.8123C43.6619 26.4209 44.9733 23.7338 47.3505 22.5536C47.5897 22.4867 47.6424 22.2141 47.609 22.0946C47.5755 21.975 47.6475 21.3103 48.8432 20.976C49.4411 20.8089 49.8332 20.8282 50.0723 20.7613C50.1058 20.8809 50.1058 20.8809 50.1058 20.8809C49.9862 20.9143 49.3022 21.2345 49.3356 21.354L49.5362 22.0714C49.5696 22.191 49.7226 22.2772 49.9618 22.2103C49.9618 22.2103 51.9083 21.795 53.1708 21.6999C53.41 21.633 53.716 21.8053 53.6632 22.0779C53.6915 23.1013 53.9397 24.45 54.3408 25.8848C54.8088 27.5588 55.296 28.8406 55.8026 29.7303Z" fill="#4C1FCC"/>
</svg>
