<svg width="249" height="174" viewBox="0 0 249 174" fill="none" xmlns="http://www.w3.org/2000/svg">
<path d="M73.8779 30.7639C51.8997 29.6646 32.835 28.777 9.95468 70.7261C-16.958 155.997 74.5703 172.689 87.7564 143.069C102.839 109.189 194.335 187.482 221.433 131.748C251.331 70.2573 197.181 27.204 159.647 18.4616C106.406 6.06075 95.8561 31.8632 73.8779 30.7639Z" fill="#F2EDFF"/>
<path fill-rule="evenodd" clip-rule="evenodd" d="M59.4943 23.8285C59.2145 23.6547 58.8565 23.5674 58.4295 23.5674C57.8844 23.5674 57.3705 23.696 56.8988 23.9524C56.6486 24.0891 56.4033 24.2647 56.1653 24.4769V24.2689C56.1653 24.0853 56.0866 23.9299 55.9516 23.8364C55.8359 23.75 55.6878 23.7078 55.4988 23.7078H54.0935C53.8511 23.7078 53.6563 23.7693 53.5081 23.8928C53.4032 23.9834 53.2779 24.152 53.2779 24.4389C53.2779 24.7779 53.4387 24.9521 53.581 25.0432C53.6951 25.1118 53.8943 25.1822 54.5006 25.1822H54.5914V28.3772H53.8448C53.5907 28.3772 53.3886 28.4359 53.2424 28.5533C53.1316 28.6439 53 28.8125 53 29.1055C53 29.3933 53.1239 29.5657 53.2366 29.6671C53.3823 29.7892 53.5771 29.8516 53.8156 29.8516H57.85C58.1249 29.8516 58.325 29.7972 58.4717 29.676C58.6126 29.5497 58.684 29.3581 58.684 29.1055C58.684 28.8134 58.5621 28.6458 58.4586 28.5561C58.3207 28.4368 58.1288 28.3772 57.8878 28.3772H56.1653V26.3421C56.5427 25.934 56.8896 25.6307 57.1966 25.4396C57.4953 25.2536 57.7781 25.1588 58.036 25.1588C58.1531 25.1588 58.3056 25.2076 58.479 25.3015C58.7676 25.456 58.9575 25.5217 59.1149 25.5217C59.3408 25.5217 59.5516 25.4288 59.7211 25.2564C59.8936 25.086 59.9844 24.8756 59.9844 24.6469C59.9844 24.4154 59.8999 24.0853 59.4943 23.8285Z" fill="#F58220"/>
<path fill-rule="evenodd" clip-rule="evenodd" d="M65.5782 25.9466H62.4265C62.5402 25.708 62.7 25.5131 62.9098 25.3568C63.2319 25.1201 63.6195 25.0046 64.0956 25.0046C64.5221 25.0046 64.8699 25.1215 65.1604 25.3605C65.3547 25.5221 65.4932 25.7155 65.5782 25.9466ZM67.1669 27.1731C67.3481 27.0337 67.4356 26.8069 67.4356 26.4814C67.4356 25.6686 67.1116 24.968 66.4728 24.3998C65.8398 23.8378 65.0397 23.5527 64.0935 23.5527C63.0515 23.5527 62.1912 23.8565 61.5354 24.4552C60.8738 25.0601 60.5381 25.8555 60.5381 26.82C60.5381 27.7685 60.8572 28.5443 61.4853 29.1256C62.1086 29.7051 62.9427 29.999 63.9638 29.999C64.415 29.999 64.8789 29.9441 65.3429 29.8361C65.7941 29.7323 66.2449 29.5754 66.6889 29.3684C66.9168 29.258 67.0834 29.143 67.2024 29.0134C67.3408 28.8584 67.4113 28.6828 67.4113 28.4912C67.4113 28.2898 67.3326 28.1127 67.1878 27.9822C67.047 27.8507 66.8619 27.7807 66.653 27.7807C66.5194 27.7807 66.2857 27.8296 65.4886 28.1818C64.2756 28.7096 63.3026 28.5983 62.7576 28.1381C62.5293 27.9409 62.3811 27.684 62.3102 27.3577H66.1779C66.7186 27.3577 67.0066 27.3037 67.1669 27.1731Z" fill="#F58220"/>
<path fill-rule="evenodd" clip-rule="evenodd" d="M74.3283 27.8396C74.1972 27.8396 73.9737 27.8809 73.2329 28.18C72.7549 28.3725 72.3449 28.4707 72.0136 28.4707C71.7955 28.4707 71.5065 28.4373 71.3714 28.2763C71.3141 28.2091 71.181 27.9682 71.181 27.1892V25.5133H73.3544C73.607 25.5133 73.809 25.4528 73.9538 25.3344C74.0655 25.2429 74.1991 25.0729 74.1991 24.7803C74.1991 24.4643 74.0514 24.2915 73.9251 24.2009C73.7726 24.0933 73.5662 24.0412 73.2927 24.0412H71.181V23.1453C71.181 22.717 71.1339 22.4545 71.0217 22.286C70.9289 22.1554 70.7409 22 70.3742 22C70.1225 22 69.9219 22.0751 69.7757 22.2273C69.6445 22.3681 69.578 22.5663 69.578 22.8171V24.0412H69.2093C68.7735 24.0412 68.5185 24.0816 68.3611 24.1722C68.2125 24.2553 68.0356 24.4277 68.0356 24.7803C68.0356 25.0804 68.1605 25.2485 68.2635 25.3349C68.4043 25.4551 68.5977 25.5133 68.8561 25.5133H69.578V27.3738C69.578 27.7832 69.5979 28.0988 69.6368 28.3134C69.6795 28.5468 69.7504 28.7421 69.8447 28.8971C70.0356 29.2511 70.3319 29.5216 70.7239 29.7005C71.0892 29.87 71.5444 29.9559 72.0758 29.9559C72.3833 29.9559 72.7044 29.9179 73.06 29.8409C73.3889 29.7686 73.7707 29.6502 74.1928 29.4887C74.4746 29.3831 74.6864 29.2633 74.818 29.1361C74.9812 28.9816 75.0677 28.7848 75.0677 28.5655C75.0677 28.366 74.9972 28.1936 74.853 28.049C74.7097 27.9119 74.529 27.8396 74.3283 27.8396Z" fill="#F58220"/>
<path fill-rule="evenodd" clip-rule="evenodd" d="M82.486 28.5352C82.3441 28.4352 82.1532 28.384 81.904 28.3789V24.6045C81.904 24.2471 81.8477 24.0377 81.7209 23.9104C81.5946 23.7771 81.4022 23.709 81.1506 23.709H79.8366C79.5791 23.709 79.377 23.7743 79.2333 23.9043C79.089 24.0377 79.0161 24.2269 79.0161 24.4659C79.0161 24.6956 79.088 24.8759 79.225 24.9994C79.3596 25.1238 79.5471 25.1834 79.7992 25.1834H80.316V27.3336C80.316 27.6567 80.1956 27.9168 79.9473 28.1305C79.6884 28.3549 79.3838 28.4643 79.0142 28.4643C78.6411 28.4643 78.3739 28.3822 78.2204 28.2216C78.0611 28.0511 77.98 27.7534 77.98 27.3364V24.4791C77.98 24.2866 77.96 24.0466 77.8002 23.8851C77.6793 23.7686 77.5005 23.709 77.2693 23.709H76.339C76.0913 23.709 75.8941 23.7705 75.742 23.8968C75.6395 23.9884 75.5181 24.157 75.5181 24.4401C75.5181 24.7754 75.6818 24.9501 75.8251 25.0412C75.9523 25.1186 76.1297 25.1632 76.3759 25.1783V27.5548C76.3759 28.338 76.5766 28.9424 76.972 29.3495C77.3742 29.7627 77.9678 29.9726 78.7363 29.9726C79.0914 29.9726 79.4334 29.9097 79.7511 29.7852C79.9333 29.7143 80.1324 29.612 80.3486 29.4777C80.385 29.5749 80.4496 29.6589 80.5376 29.7214C80.6541 29.8082 80.8086 29.8529 80.9966 29.8529H81.9327C82.1727 29.8529 82.3684 29.7904 82.5146 29.6674C82.6725 29.534 82.7532 29.3452 82.7532 29.1067C82.7532 28.7883 82.6074 28.6198 82.486 28.5352Z" fill="#F58220"/>
<path fill-rule="evenodd" clip-rule="evenodd" d="M89.8229 23.8285C89.5431 23.6547 89.1851 23.5674 88.7581 23.5674C88.2131 23.5674 87.6986 23.696 87.2274 23.952C86.9773 24.0886 86.7329 24.2638 86.4939 24.4769V24.2689C86.4939 24.0853 86.4152 23.9299 86.2792 23.835C86.1626 23.7496 86.0149 23.7078 85.8265 23.7078H84.4216C84.1807 23.7078 83.9854 23.7684 83.8348 23.8933C83.7308 23.9848 83.606 24.1539 83.606 24.4389C83.606 24.7765 83.7658 24.9507 83.9096 25.0442C84.0247 25.1127 84.2234 25.1822 84.8292 25.1822H84.92V28.3772H84.1734C83.9193 28.3772 83.7172 28.4359 83.572 28.5523C83.4612 28.643 83.3286 28.8116 83.3286 29.1055C83.3286 29.3943 83.4525 29.5666 83.5652 29.6671C83.7109 29.7892 83.9057 29.8516 84.1442 29.8516H88.1786C88.4535 29.8516 88.6527 29.7972 88.7984 29.677C88.9403 29.5507 89.0126 29.3586 89.0126 29.1055C89.0126 28.8134 88.8907 28.6458 88.7863 28.5552C88.6478 28.4368 88.4559 28.3772 88.2165 28.3772H86.4939V26.3421C86.8709 25.934 87.2177 25.6307 87.5252 25.4396C87.824 25.2536 88.1067 25.1588 88.3646 25.1588C88.4831 25.1588 88.6318 25.2067 88.8076 25.3015C89.0952 25.4555 89.2856 25.5217 89.4435 25.5217C89.6004 25.5217 89.8346 25.4752 90.0483 25.2574C90.2212 25.0874 90.3126 24.8765 90.3126 24.6469C90.3126 24.4154 90.228 24.0853 89.8229 23.8285Z" fill="#F58220"/>
<path fill-rule="evenodd" clip-rule="evenodd" d="M97.7322 28.5397C97.5879 28.4345 97.3883 28.3814 97.1225 28.3772V25.9922C97.1225 25.2541 96.9137 24.6605 96.5032 24.2299C96.0859 23.7904 95.5122 23.5674 94.7972 23.5674C94.4299 23.5674 94.0753 23.642 93.7459 23.7876C93.589 23.8562 93.4297 23.9435 93.2709 24.0496C93.233 23.966 93.1722 23.8942 93.0916 23.8364C92.9716 23.7515 92.8196 23.7083 92.6394 23.7083H91.7548C91.4852 23.7083 91.2826 23.7623 91.1364 23.8735C91.0193 23.9614 90.8804 24.1318 90.8804 24.4436C90.8804 24.7836 91.0475 24.9578 91.1918 25.0465C91.3185 25.1221 91.4934 25.1658 91.7324 25.1813V28.3828C91.491 28.3964 91.3171 28.4392 91.1932 28.512C91.0552 28.5932 90.8911 28.7627 90.8911 29.1055C90.8911 29.4051 91.0212 29.5774 91.1344 29.6727C91.2821 29.793 91.475 29.8516 91.7256 29.8516H93.182C93.5754 29.8516 93.794 29.8042 93.9315 29.6911C94.086 29.5676 94.1613 29.3764 94.1613 29.1055C94.1613 28.7801 94.017 28.6115 93.896 28.5275C93.7659 28.4373 93.5808 28.3894 93.3175 28.3791V26.2139C93.3175 25.9007 93.4389 25.6452 93.6901 25.432C93.9519 25.2081 94.2439 25.0991 94.5839 25.0991C94.9035 25.0991 95.1333 25.1832 95.2892 25.3583C95.4539 25.541 95.538 25.8288 95.538 26.2139V28.3791C95.2786 28.3894 95.0949 28.4373 94.9647 28.5275C94.8438 28.6115 94.6995 28.7801 94.6995 29.1055C94.6995 29.3764 94.7748 29.5676 94.9293 29.6911C95.0716 29.8033 95.2849 29.8516 95.6439 29.8516H97.0113C97.3271 29.8516 97.5563 29.8009 97.7137 29.6958C97.8439 29.6084 97.9994 29.4342 97.9994 29.1055C97.9994 28.7965 97.8522 28.6261 97.7322 28.5397Z" fill="#F58220"/>
<rect x="46" y="49" width="60" height="17" rx="2" fill="#D5D0F5"/>
<path d="M49 57C49 55.3431 50.3431 54 52 54H54C55.6569 54 57 55.3431 57 57V59C57 60.6569 55.6569 62 54 62H52C50.3431 62 49 60.6569 49 59V57Z" fill="white"/>
<path fill-rule="evenodd" clip-rule="evenodd" d="M54 55H52C50.8954 55 50 55.8954 50 57V59C50 60.1046 50.8954 61 52 61H54C55.1046 61 56 60.1046 56 59V57C56 55.8954 55.1046 55 54 55ZM52 54C50.3431 54 49 55.3431 49 57V59C49 60.6569 50.3431 62 52 62H54C55.6569 62 57 60.6569 57 59V57C57 55.3431 55.6569 54 54 54H52Z" fill="#B6CBEA"/>
<path fill-rule="evenodd" clip-rule="evenodd" d="M75.1367 54.6665C75.1367 54.0406 75.6441 53.5332 76.2701 53.5332H90.8661C91.4921 53.5332 91.9995 54.0406 91.9995 54.6665C91.9995 55.2925 91.4921 55.7999 90.8661 55.7999H76.2701C75.6441 55.7999 75.1367 55.2925 75.1367 54.6665Z" fill="#9AB8F3"/>
<path fill-rule="evenodd" clip-rule="evenodd" d="M75.1367 58.0681C75.1367 57.6508 75.475 57.3125 75.8923 57.3125H97.1263C97.5435 57.3125 97.8818 57.6508 97.8818 58.0681C97.8818 58.4853 97.5435 58.8236 97.1263 58.8236H75.8923C75.475 58.8236 75.1367 58.4853 75.1367 58.0681Z" fill="#9AB8F3"/>
<path fill-rule="evenodd" clip-rule="evenodd" d="M75.1367 61.0895C75.1367 60.6723 75.475 60.334 75.8923 60.334H86.538C86.9553 60.334 87.2936 60.6723 87.2936 61.0895C87.2936 61.5068 86.9553 61.8451 86.538 61.8451H75.8923C75.475 61.8451 75.1367 61.5068 75.1367 61.0895Z" fill="#9AB8F3"/>
<path fill-rule="evenodd" clip-rule="evenodd" d="M64.9216 58.6222C66.2934 58.6222 67.4045 57.5851 67.4045 56.3111C67.4045 55.0342 66.2934 54 64.9216 54C63.5497 54 62.4386 55.0342 62.4386 56.3111C62.4386 57.5851 63.5497 58.6222 64.9216 58.6222ZM64.9216 59.4947C63.6152 59.4947 61 60.0772 61 61.2398V62.1123H68.8431V61.2398C68.8431 60.0772 66.2279 59.4947 64.9216 59.4947Z" fill="#9AB8F3"/>
<path d="M52.5351 59.2005L50.7051 57.4359L51.3502 56.8139L52.5351 57.952L55.5502 55.0449L56.1953 55.6713L52.5351 59.2005Z" fill="#04D3AB"/>
<path fill-rule="evenodd" clip-rule="evenodd" d="M118.505 93.334L118.523 93.3609L118.505 93.334Z" fill="#0064A0"/>
<path fill-rule="evenodd" clip-rule="evenodd" d="M120.165 90.8643L118.505 93.3336L118.513 93.3455L120.165 90.8643Z" fill="#005296"/>
<path fill-rule="evenodd" clip-rule="evenodd" d="M126.807 82.9346C126.551 83.1761 126.32 83.4079 126.102 83.6347C126.403 83.3832 126.648 83.1466 126.807 82.9346Z" fill="#1D0806"/>
<path fill-rule="evenodd" clip-rule="evenodd" d="M100.692 80.0211L100.488 80.5206L100.693 80.0222L100.692 80.0211ZM101.437 78.2082L101.394 78.3124L101.437 78.2082ZM101.399 74.3281L101.02 76.4261L101.399 74.3292C101.399 74.3292 101.399 74.3292 101.399 74.3281Z" fill="#00A871"/>
<rect x="69" y="72" width="95" height="28" rx="2" fill="#D5D0F5"/>
<rect x="77.5" y="81.5" width="7" height="7" rx="2.5" fill="white" stroke="#B6CBEA"/>
<path fill-rule="evenodd" clip-rule="evenodd" d="M109.635 80.7104C109.635 79.6795 110.471 78.8438 111.501 78.8438H127.016C128.047 78.8438 128.883 79.6795 128.883 80.7104C128.883 81.7413 128.047 82.5771 127.016 82.5771H111.501C110.471 82.5771 109.635 81.7413 109.635 80.7104Z" fill="#9AB8F3"/>
<path fill-rule="evenodd" clip-rule="evenodd" d="M109.635 86.3128C109.635 85.6255 110.192 85.0684 110.879 85.0684H144.403C145.091 85.0684 145.648 85.6255 145.648 86.3128C145.648 87.0001 145.091 87.5572 144.403 87.5572H110.879C110.192 87.5572 109.635 87.0001 109.635 86.3128Z" fill="#9AB8F3"/>
<path fill-rule="evenodd" clip-rule="evenodd" d="M109.635 91.2894C109.635 90.6021 110.192 90.0449 110.879 90.0449H133.848C134.535 90.0449 135.092 90.6021 135.092 91.2894C135.092 91.9767 134.535 92.5338 133.848 92.5338H110.879C110.192 92.5338 109.635 91.9767 109.635 91.2894Z" fill="#9AB8F3"/>
<path fill-rule="evenodd" clip-rule="evenodd" d="M98.2092 86.6105C100.381 86.6105 102.14 84.9029 102.14 82.8053C102.14 80.7028 100.381 79 98.2092 79C96.0371 79 94.2778 80.7028 94.2778 82.8053C94.2778 84.9029 96.0371 86.6105 98.2092 86.6105ZM98.2092 88.0471C96.1407 88.0471 92 89.006 92 90.9203V92.3569H104.418V90.9203C104.418 89.006 100.278 88.0471 98.2092 88.0471Z" fill="#9AB8F3"/>
<path fill-rule="evenodd" clip-rule="evenodd" d="M7.7 85V88.3H3.3V103.7H7.7V107H0V85H7.7Z" fill="#6F7DFC"/>
<path d="M184.25 60.6873C184.358 56.2713 187.348 51.3077 188.83 49.3779L189.773 69.7753L184.789 71.4582C184.564 69.708 184.142 65.1034 184.25 60.6873Z" fill="#BCCFFF"/>
<path d="M188.898 49.3107C190.768 46.126 195.518 45.654 195.518 45.654C195.518 45.654 200.484 45.2043 204.223 46.2477C207.962 47.2912 209.511 50.1185 209.511 50.1185C209.511 50.1185 209.983 61.5626 207.086 64.7939C204.189 68.0251 208.935 84.7734 208.935 84.7734L191.224 83.7177C191.224 83.7177 194.556 68.9003 190.582 63.6831C186.608 58.466 187.028 52.4954 188.898 49.3107Z" fill="url(#paint0_linear)"/>
<path d="M193.815 46.5506L193.438 42.2861C194.321 43.0036 196.404 44.4385 197.675 44.4385C198.946 44.4385 199.97 43.3623 200.323 42.8242L201.394 45.7764C201.394 47.5214 200.619 54.4941 197.487 54.6624C194.056 54.8467 194.118 49.3443 193.815 46.5506Z" fill="url(#paint1_linear)"/>
<path d="M184.317 122.756L191.321 85.3936L199.794 85.9316C199.618 90.4157 198.841 98.8945 197.146 101.477C195.452 104.06 191.708 114.593 190.649 120.332C190.649 122.485 192.669 123.036 191.524 130.699C190.177 139.72 186.337 139.181 183.573 160.994C183.573 160.994 182.329 165.267 180.275 165.065C178.22 164.863 179.736 160.994 179.736 160.994L184.317 122.756Z" fill="#BCCFFF"/>
<path d="M205.641 117.928C205.084 116.244 202.424 96.7698 200.815 87.5403L209.748 86.3013L211.66 117.456C212.538 121.885 214.373 128.4 215.367 133.652C216.362 138.904 215.044 146.036 217.832 162.311L217.786 165.366L213.655 163.237C212.147 146.262 208.262 140.419 207.17 134.288C206.221 128.965 206.337 120.032 205.641 117.928Z" fill="#BCCFFF"/>
<path d="M183.845 108.214C188.83 95.6933 188.696 86.8073 191.443 81.7646L208.164 82.2297C210.117 85.8649 210.117 89.702 212.542 104.714C213.495 110.614 217.482 113.971 213.62 118.618C212.133 120.408 203.774 118.328 199.428 118.618C183.845 119.658 178.861 120.736 183.845 108.214Z" fill="url(#paint2_linear)"/>
<path d="M174.309 167.947C175.848 167.124 178.271 166.277 179.712 160.722C179.712 162.426 178.551 165.008 179.712 165.19C181.753 165.509 182.914 162.392 183.715 159.914C183.715 162.683 184.115 167.793 184.115 167.793H183.041L182.874 165.389C182.627 166.71 182.174 167.388 181.554 168.067C180.427 169.3 176.582 170.348 175.017 170.348C173.066 170.348 172.003 169.18 174.309 167.947Z" fill="#333333"/>
<path d="M220.93 169.309C219.883 167.603 219.292 168.568 217.37 160.561C217.432 162.075 218.658 164.851 217.411 165.099C215.385 165.501 214.097 162.434 213.196 159.991C213.309 162.757 213.461 168 213.461 168L214.533 167.956L214.26 165.427C214.561 166.737 214.729 167.537 215.193 168.331C216.136 169.943 218.32 171.808 219.884 171.744C221.833 171.664 221.807 170.737 220.93 169.309Z" fill="#333333"/>
<path d="M190.792 31.5237C190.792 31.0932 191.851 29.192 192.38 28.2952C195.558 26.1428 199.793 27.219 201.382 28.8332C202.971 30.4475 202.441 35.8284 202.441 37.4426C202.441 39.0569 199.793 44.4378 198.734 44.4378H196.086C195.027 44.4378 192.38 41.5456 190.792 37.4426C189.203 33.3397 190.792 32.0618 190.792 31.5237Z" fill="#BCCFFF"/>
<path d="M193.411 42.108C191.559 37.9148 189.302 34.4339 191.795 32.4817C194.287 30.5295 192.873 28.8129 195.557 27.7588C198.565 30.2266 199.798 29.0599 200.323 29.3729C201.697 30.1929 201.74 32.45 202.27 34.6022C202.799 36.7544 200.832 39.7898 200.323 41.2108C198.868 45.2719 203.819 46.551 208.13 45.4402C210.95 44.7138 209.325 33.8617 205.941 31.9768C204.622 31.242 205.493 28.9187 204.055 26.1451C202.68 23.4943 197.251 23.5285 195.557 25.0095C193.029 25.0079 190.826 22.8158 188.506 26.1453C187.382 27.7583 187.614 30.3262 187.614 31.5254C187.614 33.6897 184.126 32.0956 185.496 38.5405C186.204 41.8766 182.992 44.7833 188.123 45.9115C191.492 46.652 194.527 44.6324 193.411 42.108Z" fill="#91562C"/>
<path d="M208.795 71.8814C207.845 71.8814 200.3 64.3995 196.24 61.5297L196.981 65.1985C202.034 73.1177 209.568 78.5275 211.262 78.5275C213.561 78.5275 213.971 68.6305 213.561 64.8863C213.148 61.1196 212.34 55.1681 209.511 50.2539V55.7067C209.511 57.8608 208.795 60.4189 208.795 60.4189C208.795 63.9296 209.915 71.8814 208.795 71.8814Z" fill="#BCCFFF"/>
<path d="M197 56L194 61L194.5 61.5L197.5 56.5L197 56Z" fill="#282828"/>
<path d="M194.024 59.6992L196.533 61.7053L197.034 65.2161L194.024 64.7145L192.018 66.2191L189.509 61.7053L194.024 59.6992Z" fill="#BCCFFF"/>
<path d="M185.47 76.1594L175.964 54.6621H190.791L200.323 76.1594H185.47Z" fill="#2C2E6C"/>
<path d="M181.376 66.5058L180.733 65.5352C180.65 66.398 180.426 68.4831 180.626 69.3459C180.876 70.4244 182.464 71.6769 182.841 71.7905C183.198 71.8984 184.377 72.0422 184.806 71.7905C185.234 71.5389 185.594 69.9641 185.52 68.8426C185.446 67.7211 184.234 66.7575 184.234 66.7575L181.376 66.5058Z" fill="#BCCFFF"/>
<defs>
<linearGradient id="paint0_linear" x1="199.543" y1="45.654" x2="199.543" y2="84.7157" gradientUnits="userSpaceOnUse">
<stop stop-color="#04D3AB"/>
<stop offset="1" stop-color="#91D304"/>
</linearGradient>
<linearGradient id="paint1_linear" x1="197.416" y1="42.2861" x2="197.416" y2="54.6669" gradientUnits="userSpaceOnUse">
<stop stop-color="#97ADE8"/>
<stop offset="1" stop-color="#BCCFFF"/>
</linearGradient>
<linearGradient id="paint2_linear" x1="198.038" y1="81.7646" x2="198.038" y2="118.878" gradientUnits="userSpaceOnUse">
<stop offset="0.546961" stop-color="#B120F5"/>
<stop offset="1" stop-color="#F52093"/>
</linearGradient>
</defs>
</svg>
