<svg width="64" height="64" viewBox="0 0 64 64" fill="none" xmlns="http://www.w3.org/2000/svg">
<circle cx="32" cy="32" r="32" fill="#9AE0EF"/>
<path fill-rule="evenodd" clip-rule="evenodd" d="M15.6365 15.5156C13.4274 15.5156 11.6365 17.3065 11.6365 19.5156V34.6051C11.6365 36.8142 13.4274 38.6051 15.6365 38.6051H37.7386C39.9477 38.6051 41.7386 36.8142 41.7386 34.6051V19.5156C41.7386 17.3065 39.9477 15.5156 37.7386 15.5156H15.6365ZM16.9479 43.3421L25.8014 38.6058H19.8991L16.9479 43.3421Z" fill="#4EABC0"/>
<path fill-rule="evenodd" clip-rule="evenodd" d="M15.1788 19.6885C15.1788 19.1362 15.6265 18.6885 16.1788 18.6885H36.6078C37.1601 18.6885 37.6078 19.1362 37.6078 19.6885C37.6078 20.2408 37.1601 20.6885 36.6078 20.6885H16.1788C15.6265 20.6885 15.1788 20.2408 15.1788 19.6885Z" fill="white"/>
<path fill-rule="evenodd" clip-rule="evenodd" d="M15.1788 26.5811C15.1788 26.0288 15.6265 25.5811 16.1788 25.5811H30.7054C31.2577 25.5811 31.7054 26.0288 31.7054 26.5811C31.7054 27.1333 31.2577 27.5811 30.7054 27.5811H16.1788C15.6265 27.5811 15.1788 27.1333 15.1788 26.5811Z" fill="white"/>
<path fill-rule="evenodd" clip-rule="evenodd" d="M15.1788 32.5C15.1788 31.9477 15.6265 31.5 16.1788 31.5H24.8031C25.3554 31.5 25.8031 31.9477 25.8031 32.5C25.8031 33.0523 25.3554 33.5 24.8031 33.5H16.1788C15.6265 33.5 15.1788 33.0523 15.1788 32.5Z" fill="white"/>
<path fill-rule="evenodd" clip-rule="evenodd" d="M45.0486 47.9105C43.983 48.2705 42.8417 48.4657 41.655 48.4657C35.7874 48.4657 31.0308 43.6945 31.0308 37.809C31.0308 31.9235 35.7874 27.1523 41.655 27.1523C47.5226 27.1523 52.2792 31.9235 52.2792 37.809C52.2792 40.8118 51.0411 43.5245 49.049 45.4614L50.5091 50.8316L45.0486 47.9105Z" fill="white"/>
<path fill-rule="evenodd" clip-rule="evenodd" d="M45.2286 45.7386L47.362 46.8799L46.8099 44.849L47.6548 44.0275C49.2749 42.4522 50.2792 40.2506 50.2792 37.809C50.2792 33.0223 46.4123 29.1523 41.655 29.1523C36.8977 29.1523 33.0308 33.0223 33.0308 37.809C33.0308 42.5957 36.8977 46.4657 41.655 46.4657C42.6211 46.4657 43.5463 46.307 44.4084 46.0157L45.2286 45.7386ZM50.5091 50.8316L45.0486 47.9105C43.983 48.2705 42.8417 48.4657 41.655 48.4657C35.7874 48.4657 31.0308 43.6945 31.0308 37.809C31.0308 31.9235 35.7874 27.1523 41.655 27.1523C47.5226 27.1523 52.2792 31.9235 52.2792 37.809C52.2792 40.8118 51.0411 43.5245 49.049 45.4614L50.5091 50.8316Z" fill="#07333C"/>
<path fill-rule="evenodd" clip-rule="evenodd" d="M36.4269 33.6846C36.4269 33.1323 36.8747 32.6846 37.4269 32.6846H46.0512C46.6035 32.6846 47.0512 33.1323 47.0512 33.6846C47.0512 34.2369 46.6035 34.6846 46.0512 34.6846H37.4269C36.8747 34.6846 36.4269 34.2369 36.4269 33.6846Z" fill="#07333C"/>
<path fill-rule="evenodd" clip-rule="evenodd" d="M36.4269 40.79C36.4269 40.2378 36.8747 39.79 37.4269 39.79H44.8707C45.423 39.79 45.8707 40.2378 45.8707 40.79C45.8707 41.3423 45.423 41.79 44.8707 41.79H37.4269C36.8747 41.79 36.4269 41.3423 36.4269 40.79Z" fill="#07333C"/>
<path fill-rule="evenodd" clip-rule="evenodd" d="M36.4269 37.2363C36.4269 36.684 36.8747 36.2363 37.4269 36.2363H41.9195C42.4718 36.2363 42.9195 36.684 42.9195 37.2363C42.9195 37.7886 42.4718 38.2363 41.9195 38.2363H37.4269C36.8747 38.2363 36.4269 37.7886 36.4269 37.2363Z" fill="#07333C"/>
<path fill-rule="evenodd" clip-rule="evenodd" d="M18.0443 58.4639C18.2449 58.7503 18.5089 58.987 18.8178 59.152C18.5601 58.9268 18.3035 58.6984 18.0443 58.4639Z" fill="#82D0EF"/>
<path fill-rule="evenodd" clip-rule="evenodd" d="M32.8038 42.96L32.8121 42.9728L32.8038 42.96Z" fill="#0064A0"/>
<path fill-rule="evenodd" clip-rule="evenodd" d="M33.5925 41.7793L32.8038 42.9595L32.8075 42.9652L33.5925 41.7793Z" fill="#005296"/>
<path fill-rule="evenodd" clip-rule="evenodd" d="M36.7506 37.9883C36.6286 38.1037 36.5189 38.2145 36.4154 38.3229C36.5583 38.2027 36.6749 38.0896 36.7506 37.9883Z" fill="#1D0806"/>
<path fill-rule="evenodd" clip-rule="evenodd" d="M24.3391 36.5962L24.2424 36.8349L24.3396 36.5967L24.3391 36.5962ZM24.6917 35.7308L24.6713 35.7806L24.6917 35.7308ZM24.6722 33.877L24.4924 34.8796L24.6722 33.8775C24.6722 33.8775 24.6722 33.8775 24.6722 33.877Z" fill="#00A871"/>
</svg>
