<svg width="64" height="64" viewBox="0 0 64 64" fill="none" xmlns="http://www.w3.org/2000/svg">
<circle cx="32" cy="32" r="32" fill="#FFC8BC"/>
<path d="M13 45.4654V19.5723L15.7143 19.9489V41.894V42.7868C15.7143 43.2543 16.1453 43.6797 16.619 43.6797H17.5238C22.0283 43.6556 25.8242 45.905 28.8333 48.144L13 45.4654Z" fill="#FF4EAE"/>
<path d="M48.2857 19.9489L51 19.5723V45.4654L35.1667 48.144C38.1758 45.905 41.9717 43.6556 46.4762 43.6797H47.381C47.8547 43.6797 48.2857 43.2543 48.2857 42.7868V41.894V19.9489Z" fill="#FF4EAE"/>
<path d="M17.5234 16V41.8933C23.3108 41.8625 27.6235 44.978 31.0949 47.8364V21.3572C27.2534 18.1797 22.9354 15.9951 17.5234 16ZM46.4758 16C41.0638 15.9951 36.7459 18.1797 32.9044 21.3572V47.8364C36.3758 44.978 40.6884 41.8625 46.4758 41.8933V16Z" fill="white"/>
</svg>
