<svg width="662" height="346" viewBox="0 0 662 346" fill="none" xmlns="http://www.w3.org/2000/svg">
<g clip-path="url(#clip0)">
<path fill-rule="evenodd" clip-rule="evenodd" d="M574.458 0.5H87.5421C74.2935 0.5 63 10.8158 63 23.5932V327.5H599V23.5932C599 10.8149 587.747 0.5 574.458 0.5Z" fill="#4060B3"/>
<path fill-rule="evenodd" clip-rule="evenodd" d="M62.5 23.5932C62.5 10.5072 74.0509 0 87.5421 0H574.458C587.99 0 599.5 10.5068 599.5 23.5932V328H62.5V23.5932ZM87.5421 1C74.536 1 63.5 11.1244 63.5 23.5932V327H598.5V23.5932C598.5 11.123 587.504 1 574.458 1H87.5421Z" fill="#6A99F5"/>
<path fill-rule="evenodd" clip-rule="evenodd" d="M323 9.5C321.343 9.5 320 10.8431 320 12.5C320 14.1569 321.343 15.5 323 15.5C324.657 15.5 326 14.1569 326 12.5C326 10.8431 324.657 9.5 323 9.5ZM318 12.5C318 9.73858 320.239 7.5 323 7.5C325.761 7.5 328 9.73858 328 12.5C328 15.2614 325.761 17.5 323 17.5C320.239 17.5 318 15.2614 318 12.5Z" fill="#6A99F5"/>
<path fill-rule="evenodd" clip-rule="evenodd" d="M611.236 343.5H50.7608C21.6239 343.5 2 338.074 2 335.767V328.753C2 328.059 3.26922 327.5 4.84742 327.5H657.149C658.729 327.5 660 328.059 660 328.753V336.043C659.993 337.867 644.797 343.5 611.236 343.5Z" fill="#4060B3"/>
<path fill-rule="evenodd" clip-rule="evenodd" d="M662 336.05C661.997 336.845 661.599 337.421 661.346 337.72C661.066 338.05 660.728 338.32 660.406 338.539C659.756 338.983 658.883 339.415 657.844 339.833C655.745 340.677 652.671 341.582 648.602 342.415C640.449 344.083 628.121 345.5 611.236 345.5H50.7608C36.0752 345.5 23.758 344.133 15.0762 342.463C10.7438 341.629 7.26867 340.71 4.83903 339.828C3.63633 339.392 2.60798 338.935 1.84373 338.46C1.46608 338.225 1.0698 337.935 0.745362 337.577C0.443984 337.244 0 336.625 0 335.767V328.753C0 327.926 0.387187 327.29 0.778734 326.881C1.16011 326.483 1.61651 326.216 2.02613 326.036C2.8507 325.673 3.84951 325.5 4.84742 325.5H657.149C658.147 325.5 659.147 325.673 659.972 326.035C660.382 326.216 660.838 326.482 661.22 326.88C661.612 327.288 662 327.924 662 328.753V336.05ZM50.7608 343.5H611.236C644.797 343.5 659.993 337.867 660 336.043V328.753C660 328.059 658.729 327.5 657.149 327.5H4.84742C3.26922 327.5 2 328.059 2 328.753V335.767C2 338.074 21.6239 343.5 50.7608 343.5Z" fill="#6A99F5"/>
<path fill-rule="evenodd" clip-rule="evenodd" d="M2 334.5H660V336.5H2V334.5Z" fill="#6A99F5"/>
<path fill-rule="evenodd" clip-rule="evenodd" d="M257 328.776V327.5H255V329.056C255 329.557 255.255 329.932 255.515 330.172C255.765 330.401 256.07 330.56 256.354 330.676C256.926 330.909 257.67 331.069 258.451 331.183C260.032 331.416 262.028 331.5 263.763 331.5H397.437C399.089 331.5 401.036 331.416 402.589 331.183C403.356 331.068 404.091 330.908 404.658 330.674C404.939 330.558 405.242 330.399 405.49 330.169C405.748 329.928 406 329.554 406 329.056V327.5H404V328.778C403.97 328.793 403.935 328.808 403.895 328.825C403.554 328.966 403.009 329.097 402.292 329.205C400.879 329.417 399.044 329.5 397.437 329.5H263.763C262.07 329.5 260.185 329.417 258.742 329.205C258.01 329.097 257.456 328.965 257.108 328.824C257.067 328.807 257.031 328.791 257 328.776Z" fill="#6A99F5"/>
</g>
<defs>
<clipPath id="clip0">
<rect width="662" height="345.5" fill="white"/>
</clipPath>
</defs>
</svg>
