<svg width="64" height="64" viewBox="0 0 64 64" fill="none" xmlns="http://www.w3.org/2000/svg">
<circle cx="32" cy="32" r="32" fill="#AAE7FB"/>
<path d="M20 10H37V46H10V20L20 10Z" fill="#C8F2FF"/>
<path d="M20 10L10 20H20V10Z" fill="#F9FEFF"/>
<path d="M25 15H42V51H15V25L25 15Z" fill="#E3F8FF"/>
<path d="M25 15L15 25H25V15Z" fill="#F9FEFF"/>
<path fill-rule="evenodd" clip-rule="evenodd" d="M35.3835 44.7645C31.0315 44.7645 27.5026 41.2356 27.5026 36.8835C27.5026 32.5315 31.0315 29.0026 35.3835 29.0026C39.7356 29.0026 43.2645 32.5315 43.2645 36.8835C43.2645 41.2356 39.7356 44.7645 35.3835 44.7645ZM45.8914 44.7645H44.4991L44.0175 44.2828C45.7338 42.2951 46.7671 39.7119 46.7671 36.8835C46.7671 30.5963 41.6708 25.5 35.3835 25.5C29.0963 25.5 24 30.5963 24 36.8835C24 43.1708 29.0963 48.2671 35.3835 48.2671C38.2119 48.2671 40.7951 47.2338 42.7828 45.5263L43.2645 46.0079V47.3914L48.3905 52.5L51 49.8905L45.8914 44.7645Z" fill="#3B4160"/>
<path fill-rule="evenodd" clip-rule="evenodd" d="M33.8416 38.5332L30.0485 34.6597L28 36.8931L33.8416 43L44 32.2334L41.9515 30L33.8416 38.5332Z" fill="#04D3AB"/>
</svg>
