<svg width="249" height="174" viewBox="0 0 249 174" fill="none" xmlns="http://www.w3.org/2000/svg">
<path d="M78.6 23.7761C30.4366 5.34407 6.13191 61.5082 0 91.8943C0 134.97 14.377 152 46.8255 152C98.6681 152 97.8319 119.944 122.917 114.936C148.002 109.927 154.691 132.967 212.387 119.944C270.083 106.922 197.336 15.7619 167.234 8.74969C137.132 1.73752 138.804 46.8161 78.6 23.7761Z" fill="#E2ECFF"/>
<path d="M190 129.688L178.559 118.377L167.119 129.688L190 129.688Z" fill="#04D3AB"/>
<path fill-rule="evenodd" clip-rule="evenodd" d="M187.881 126.312L165 126.312L176.441 115L187.881 126.312ZM185.088 125.168L167.793 125.168L176.441 116.618L185.088 125.168Z" fill="#005746"/>
<path fill-rule="evenodd" clip-rule="evenodd" d="M207.592 34.0891C205.663 33.9259 204.632 32.7548 204.632 30.6059V26.9148C204.632 24.7651 203.974 24.0239 201.613 24.0239H201V21H202.494C206.605 21 208.638 22.4235 208.638 26.3813V29.4793C208.638 31.4801 209.071 32.3996 211 32.3996V36.1942C209.071 36.1942 208.638 37.113 208.638 39.1146V41.7531C208.638 45.6807 206.605 47 202.494 47H201V43.9912H201.613C203.974 43.9912 204.632 43.25 204.632 41.1003V37.7507C204.632 35.6011 205.663 34.6823 207.592 34.504V34.0891Z" fill="#AD74F6"/>
<path fill-rule="evenodd" clip-rule="evenodd" d="M207.5 18.5H208.897C210.181 18.5 211.26 18.7538 212.011 19.4746C212.766 20.1993 213.083 21.2941 213.083 22.7255V24.8703C213.083 25.5649 213.155 25.9357 213.28 26.1338C213.364 26.2657 213.516 26.392 214 26.392H214.5V30.0191H214C213.515 30.0191 213.363 30.1454 213.28 30.2772C213.155 30.4752 213.083 30.8459 213.083 31.5409V33.3675C213.083 34.7889 212.765 35.8652 212.004 36.5702C211.252 37.2674 210.173 37.5 208.897 37.5H207.5V34.417H208.368C209.042 34.417 209.302 34.2889 209.429 34.1446C209.573 33.9803 209.679 33.6507 209.679 32.9156V30.5967C209.679 29.7925 209.845 29.1274 210.249 28.6416C210.404 28.4543 210.585 28.3056 210.785 28.1893C210.575 28.0536 210.389 27.881 210.232 27.6697C209.846 27.1498 209.679 26.4552 209.679 25.6502V23.0948C209.679 22.3598 209.573 22.0301 209.429 21.8659C209.302 21.7215 209.042 21.5935 208.368 21.5935H207.5V18.5ZM208.5 19.5V20.5949C209.186 20.6102 209.781 20.751 210.181 21.2063C210.588 21.6707 210.679 22.3417 210.679 23.0948V25.6502C210.679 26.3329 210.822 26.7876 211.035 27.0733C211.236 27.3438 211.54 27.5188 212.004 27.5641L212.455 27.6082V28.7984L212.008 28.8461C211.508 28.8994 211.206 29.0535 211.018 29.2804C210.823 29.5155 210.679 29.9126 210.679 30.5967V32.9156C210.679 33.6688 210.588 34.3398 210.181 34.8042C209.781 35.2594 209.186 35.4003 208.5 35.4156V36.5H208.897C210.087 36.5 210.851 36.2759 211.325 35.8367C211.79 35.4053 212.083 34.6653 212.083 33.3675V31.5409C212.083 30.8502 212.14 30.2099 212.435 29.7435C212.683 29.3495 213.052 29.1421 213.5 29.0607V27.3504C213.052 27.269 212.683 27.0614 212.435 26.6674C212.14 26.2009 212.083 25.5608 212.083 24.8703V22.7255C212.083 21.4169 211.79 20.6489 211.318 20.1959C210.842 19.739 210.079 19.5 208.897 19.5H208.5Z" fill="black"/>
<path fill-rule="evenodd" clip-rule="evenodd" d="M91.5 68.7029C95.1731 68.7029 98.1481 65.8527 98.1481 62.3515C98.1481 58.8423 95.1731 56 91.5 56C87.8269 56 84.8519 58.8423 84.8519 62.3515C84.8519 65.8527 87.8269 68.7029 91.5 68.7029ZM91.5 71.1008C88.0022 71.1008 81 72.7014 81 75.8966V78.2944H102V75.8966C102 72.7014 94.9978 71.1008 91.5 71.1008Z" fill="#A6C4FF"/>
<path fill-rule="evenodd" clip-rule="evenodd" d="M139.5 94.774C141.074 94.774 142.349 93.4785 142.349 91.887C142.349 90.2919 141.074 89 139.5 89C137.926 89 136.651 90.2919 136.651 91.887C136.651 93.4785 137.926 94.774 139.5 94.774ZM139.5 95.864C138.001 95.864 135 96.5915 135 98.0438V99.1338H144V98.0438C144 96.5915 140.999 95.864 139.5 95.864Z" fill="#A6C4FF"/>
<path fill-rule="evenodd" clip-rule="evenodd" d="M180.501 78.3932C183.474 78.3932 185.883 76.0612 185.883 73.1966C185.883 70.3255 183.474 68 180.501 68C177.528 68 175.119 70.3255 175.119 73.1966C175.119 76.0612 177.528 78.3932 180.501 78.3932ZM180.501 80.3551C177.669 80.3551 172.001 81.6646 172.001 84.2788V86.2407H189.001V84.2788C189.001 81.6646 183.333 80.3551 180.501 80.3551Z" fill="#A6C4FF"/>
<path fill-rule="evenodd" clip-rule="evenodd" d="M137.472 55.3926C139.736 55.3926 141.569 53.7295 141.569 51.6865C141.569 49.6389 139.736 47.9805 137.472 47.9805C135.208 47.9805 133.375 49.6389 133.375 51.6865C133.375 53.7295 135.208 55.3926 137.472 55.3926ZM137.472 56.7918C135.316 56.7918 131.001 57.7257 131.001 59.5901V60.9893H143.943V59.5901C143.943 57.7257 139.628 56.7918 137.472 56.7918Z" fill="#A6C4FF"/>
<path d="M111 77V59" stroke="#A6C4FF" stroke-width="3" stroke-dasharray="3 3"/>
<path d="M105 65L111.4 59L117 65" stroke="#A6C4FF" stroke-width="2"/>
<path d="M151 50V38" stroke="#A6C4FF" stroke-width="3" stroke-dasharray="3 3"/>
<path d="M147 42L151.267 38L155 42" stroke="#A6C4FF" stroke-width="2"/>
<path d="M196 79V64" stroke="#A6C4FF" stroke-width="3" stroke-dasharray="3 3"/>
<path d="M191 69L196.333 64L201 69" stroke="#A6C4FF" stroke-width="2"/>
<path d="M147 94V83" stroke="#A6C4FF" stroke-width="3" stroke-dasharray="3 3"/>
<path d="M143 86.6667L147.267 83L151 86.6667" stroke="#A6C4FF" stroke-width="2"/>
<path d="M56.6572 117.429L51.8099 81.334L43.3357 81.8551C43.5122 86.1974 44.289 94.4083 45.9839 96.9095C47.6787 99.4107 49.026 108.945 49.026 117.429C49.026 125.913 54.8617 143.388 55.4738 156.368L58.1941 157.826L58.7793 155.429C56.6607 137.945 57.5142 126.653 56.6572 117.429Z" fill="#BCCFFF"/>
<path d="M40.9041 116.612C42.6431 91.143 42.4527 91.3501 43.3354 82.3179L35.1093 81.8369C35.1093 81.8369 34.9453 91.9594 33.3137 115.061C31.6821 138.163 33.885 133.51 32.6026 155.94C32.6026 155.94 32.6208 158.245 33.8858 158.286C35.1509 158.327 35.9198 156.882 35.9198 156.882C35.2733 141.51 39.1652 142.082 40.9041 116.612Z" fill="#BCCFFF"/>
<path d="M33.7636 40.462C33.962 38.5871 33.029 28.8163 35.4775 26.2857C37.3559 24.3443 39.9665 22 44.3738 22C50.1373 22.5306 50.6112 25.379 51.5589 28.2071C52.5067 31.0351 52.5067 37.6339 52.0328 40.462C51.559 43.2901 53.9284 43.7614 54.8762 46.1181C55.824 48.4748 44.7503 51.6327 43.8025 51.6327C42.8521 51.6327 30.3284 51.9544 30.7082 48.0035C31.1518 43.3878 33.4951 42.998 33.7636 40.462Z" fill="#664232"/>
<path d="M33.1932 47.8775C34.5807 46.1224 37.2733 44.6253 39.9814 44.1633C42.6895 43.7012 45.9785 43.5641 47.9252 44.1633C49.8719 44.7624 53.5743 46.1632 54.9035 48.4898C56.0462 50.4898 53.312 59.4285 51.4756 61.6326C49.6392 63.8367 49.3126 72.7764 52.0866 81.2662C56.1676 93.756 59.9639 111.682 58.9425 112.613C50.6175 120.205 44.2514 111.47 30.6212 115.062C27.4702 115.893 32.0088 92.4499 35.1919 81.2662C37.585 72.8581 37.3965 66.5714 34.6205 61.103C31.8444 55.6345 31.3598 50.1967 33.1932 47.8775Z" fill="url(#paint0_linear)"/>
<path d="M47.7308 43.2463L47.5763 38.5301C46.8031 39.3415 45.0598 39.8324 43.8016 40.0104C42.5434 40.1885 40.6762 39.5279 40.2513 39.0616L40.0472 43.7962C39.6399 46.0819 41.9884 56.3268 43.476 56.3268C44.497 56.3268 48.2506 49.3472 47.7308 43.2463Z" fill="#94AEF2"/>
<path d="M60.7064 65.7783C58.9486 65.7783 58.3627 61.2892 58.3627 61.2892L54.2612 63.5337C54.2612 63.5337 57.1908 72.5118 59.5345 72.5118C61.8782 72.5118 76.7604 56.5245 76.7604 56.5245L75.3545 54.5557C75.3545 54.5557 62.4642 65.7783 60.7064 65.7783Z" fill="#BCCFFF"/>
<path d="M75.7959 52.6119C75.6451 52.8474 75.5511 53.7956 75.2246 54.7344L76.4377 56.8012C76.4377 56.8012 77.0598 56.311 77.5194 56.1116C77.7548 56.0094 79.9584 56.2446 80.7645 56.1116C81.9091 55.9227 83.3047 54.5711 83.3047 54.5711C83.3047 54.5711 84.8149 53.2147 84.7331 52.664C84.61 51.836 83.5184 51.0412 83.2231 51.1426C82.6967 51.3234 82.9391 52.2496 82.5673 52.664C82.2845 52.9793 80.6293 53.4344 80.0433 53.6979C79.4574 53.9613 77.1137 52.8733 77.1137 52.8733L77.5194 52.3186C77.5194 52.3186 78.7145 52.7432 79.1423 52.6119C79.6107 52.4682 79.9584 51.7955 79.9584 51.7955C79.4777 51.5657 77.7956 50.8852 77.4283 51.0609C76.7072 51.4058 76.0213 52.2601 75.7959 52.6119Z" fill="#BCCFFF"/>
<path d="M58.6666 60.7295C57.555 59.592 54.8754 48.4746 54.8754 48.4746L50.7808 51.592C50.7808 51.592 52.0458 57.3879 52.9799 60.2582C53.9139 63.1285 53.592 64.5042 54.2495 65.0205C54.907 65.5369 54.0863 64.5307 56.2491 63.7144C58.412 62.8981 59.8811 62.8164 60.0882 62.1436C60.2953 61.4707 59.7781 61.8671 58.6666 60.7295Z" fill="#04D3AB"/>
<path d="M43.9448 40.8246C46.0708 41.0857 48.8683 39.0339 49.3531 35.0795C49.753 31.8185 49.6515 28.9614 47.0407 26.4247C44.6909 24.8578 39.842 25.0443 38.4458 27.705C37.5013 29.5052 38.3836 33.969 38.5904 35.3832C39.0511 38.5344 41.0728 40.4718 43.9448 40.8246Z" fill="#BCCFFF"/>
<path d="M37.9483 40.2871L36.7171 27.6712L37.8572 27.2051L39.4598 39.8396L37.9483 40.2871Z" fill="#EE412B"/>
<path d="M26.6223 65.2251C26.6223 63.7497 30.0093 55.0619 31.5113 49.1094L34.5919 58.3311C33.9758 60.9951 33.545 63.5517 32.7436 66.938C32.3762 68.4904 31.5113 70.9394 27.8147 70.6267C25.973 70.4709 26.6223 67.0695 26.6223 65.2251Z" fill="#04D3AB"/>
<path d="M31.5997 67.2659C31.1049 68.7804 28.4325 69.3978 27.2002 68.783C25.968 68.1682 25.8057 65.8456 26.1729 64.5312C26.5401 63.2167 28.743 58.4904 30.7427 51.3475C33.028 43.9598 35.2096 38.0439 35.2096 38.0439L36.6191 41.021C36.6191 41.021 35.3526 46.5638 34.2114 52.7761C32.9425 59.6837 31.8602 66.4685 31.5997 67.2659Z" fill="#BCCFFF"/>
<path d="M33.9266 32.2864C33.9266 32.2864 33.7634 36.2456 34.5923 38.1237C35.4212 40.0018 36.4406 41.1984 36.4406 41.1984C37.0567 41.1984 38.2889 40.9525 38.2889 39.9688C38.2889 37.1027 36.208 36.5834 35.8245 34.9395C35.4411 33.2955 35.8245 31.7175 35.8245 31.1027C35.8245 30.4879 37.9193 27.7953 36.4406 28.2872C34.962 28.779 34.3373 30.8519 33.9266 32.2864Z" fill="#BCCFFF"/>
<path d="M35.872 159.982C35.9937 158.793 35.872 156.92 35.872 156.92C35.872 156.92 34.7819 157.994 33.7224 157.918C32.6629 157.842 32.5798 155.755 32.5798 155.755C31.8894 160.812 30.3434 160.075 28.8694 162.812C28.3083 163.854 28.8694 165.132 30.7582 165.735C33.3378 166.338 34.3718 165.874 34.7658 164.714C35.1598 163.555 35.7502 161.172 35.872 159.982Z" fill="#333333"/>
<path d="M55.4872 159.37C55.3654 158.18 55.4872 156.308 55.4872 156.308C55.4872 156.308 56.5772 157.382 57.6367 157.306C58.6962 157.23 58.7794 155.143 58.7794 155.143C59.4698 160.199 61.179 159.463 62.8978 162.2C63.5271 163.202 62.8978 164.52 61.0091 165.123C58.4294 165.726 57.6402 165.262 57.0014 164.102C56.3626 162.942 55.6089 160.559 55.4872 159.37Z" fill="#333333"/>
<defs>
<linearGradient id="paint0_linear" x1="44.3335" y1="43.7637" x2="44.3335" y2="115.826" gradientUnits="userSpaceOnUse">
<stop offset="0.447514" stop-color="#04D3AB"/>
<stop offset="1" stop-color="#AAD304"/>
</linearGradient>
</defs>
</svg>
