<?xml version="1.0" encoding="UTF-8" standalone="no"?>
<!DOCTYPE svg PUBLIC "-//W3C//DTD SVG 1.1//EN" "http://www.w3.org/Graphics/SVG/1.1/DTD/svg11.dtd">
<svg width="241" height="32" viewBox="-7 -7 202 39" version="1.1" xmlns="http://www.w3.org/2000/svg" xmlns:xlink="http://www.w3.org/1999/xlink" xml:space="preserve" xmlns:serif="http://www.serif.com/" style="fill-rule:evenodd;clip-rule:evenodd;stroke-linejoin:round;stroke-miterlimit:1.41421;">
    <g id="Layer-1" serif:id="Layer 1" transform="matrix(0.408497,0,0,0.409091,-31,-150)">
        <g transform="matrix(1,0,0,1,78.8763,396.649)">
            <path d="M0,0.337L0,0.169C0,-16.418 12.397,-30.158 29.654,-30.158C39.123,-30.158 45.153,-27.057 50.598,-22.534C51.269,-21.947 51.94,-21.026 51.94,-19.853C51.94,-18.093 50.348,-16.586 48.588,-16.586C47.667,-16.586 46.912,-17.005 46.41,-17.339C41.885,-21.36 36.776,-24.041 29.57,-24.041C16.587,-24.041 6.869,-13.486 6.869,0.002L6.869,0.169C6.869,13.741 16.671,24.38 29.57,24.38C36.86,24.38 41.969,21.866 46.997,17.26C47.499,16.757 48.254,16.338 49.091,16.338C50.766,16.338 52.274,17.845 52.274,19.521C52.274,20.526 51.771,21.364 51.185,21.866C45.405,27.145 39.038,30.495 29.404,30.495C12.481,30.495 0,17.175 0,0.337" style="fill:rgb(89,89,92);fill-rule:nonzero;"/>
        </g>
        <g transform="matrix(1,0,0,1,193.64,396.649)">
            <path d="M0,0.337L0,0.169C0,-13.151 -9.718,-24.041 -23.122,-24.041C-36.526,-24.041 -46.076,-13.318 -46.076,0.002L-46.076,0.169C-46.076,13.49 -36.358,24.38 -22.954,24.38C-9.55,24.38 0,13.657 0,0.337M-52.945,0.337L-52.945,0.169C-52.945,-15.999 -40.798,-30.158 -22.954,-30.158C-5.111,-30.158 6.869,-16.167 6.869,0.002L6.869,0.169C6.869,16.338 -5.277,30.495 -23.122,30.495C-40.967,30.495 -52.945,16.505 -52.945,0.337" style="fill:rgb(89,89,92);fill-rule:nonzero;"/>
        </g>
        <g transform="matrix(1,0,0,1,216.166,423.205)">
            <path d="M0,-52.776C0,-54.619 1.507,-56.128 3.267,-56.128C5.111,-56.128 6.619,-54.619 6.619,-52.776L6.619,-29.654L40.464,-29.654L40.464,-52.776C40.464,-54.619 41.972,-56.128 43.816,-56.128C45.573,-56.128 47.081,-54.619 47.081,-52.776L47.081,0.002C47.081,1.845 45.573,3.352 43.816,3.352C41.972,3.352 40.464,1.845 40.464,0.002L40.464,-23.456L6.619,-23.456L6.619,0.002C6.619,1.845 5.111,3.352 3.267,3.352C1.507,3.352 0,1.845 0,0.002L0,-52.776Z" style="fill:rgb(89,89,92);fill-rule:nonzero;"/>
        </g>
        <g transform="matrix(1,0,0,1,281.503,370.85)">
            <path d="M0,51.938L0,-0.002C0,-1.845 1.507,-3.352 3.267,-3.352L39.709,-3.352C41.385,-3.352 42.726,-2.012 42.726,-0.336C42.726,1.339 41.385,2.679 39.709,2.679L6.619,2.679L6.619,22.702L35.939,22.702C37.615,22.702 38.957,24.125 38.957,25.717C38.957,27.393 37.615,28.733 35.939,28.733L6.619,28.733L6.619,49.257L40.128,49.257C41.803,49.257 43.145,50.599 43.145,52.273C43.145,53.949 41.803,55.29 40.128,55.29L3.267,55.29C1.507,55.29 0,53.782 0,51.938" style="fill:rgb(89,89,92);fill-rule:nonzero;"/>
        </g>
        <g transform="matrix(1,0,0,1,404.599,423.205)">
            <path d="M0,-52.776C0,-54.619 1.508,-56.128 3.267,-56.128C5.11,-56.128 6.619,-54.619 6.619,-52.776L6.619,0.002C6.619,1.845 5.11,3.352 3.267,3.352C1.508,3.352 0,1.845 0,0.002L0,-52.776Z" style="fill:rgb(89,89,92);fill-rule:nonzero;"/>
        </g>
        <g transform="matrix(1,0,0,1,445.561,420.443)">
            <path d="M0,-46.83L-17.006,-46.83C-18.682,-46.83 -20.108,-48.17 -20.108,-49.846C-20.108,-51.522 -18.682,-52.945 -17.006,-52.945L23.709,-52.945C25.384,-52.945 26.808,-51.522 26.808,-49.846C26.808,-48.17 25.384,-46.83 23.709,-46.83L6.701,-46.83L6.701,2.764C6.701,4.607 5.193,6.115 3.351,6.115C1.508,6.115 0,4.607 0,2.764L0,-46.83Z" style="fill:rgb(89,89,92);fill-rule:nonzero;"/>
        </g>
        <g transform="matrix(1,0,0,1,504.028,390.534)">
            <path d="M0,12.567L-21.779,-17.927C-22.198,-18.597 -22.534,-19.351 -22.534,-20.189C-22.534,-21.948 -20.943,-23.456 -19.1,-23.456C-17.676,-23.456 -16.754,-22.618 -15.916,-21.445L3.436,6.452L22.955,-21.445C23.793,-22.618 24.629,-23.456 26.056,-23.456C27.897,-23.456 29.32,-21.948 29.32,-20.189C29.32,-19.351 28.818,-18.429 28.4,-17.759L6.703,12.4L6.703,32.674C6.703,34.516 5.193,36.023 3.353,36.023C1.509,36.023 0,34.516 0,32.674L0,12.567Z" style="fill:rgb(89,89,92);fill-rule:nonzero;"/>
        </g>
        <g transform="matrix(1,0,0,1,369.757,384.842)">
            <path d="M0,41.918L-26.659,41.918C-28.412,41.918 -29.833,40.497 -29.833,38.743C-29.833,36.99 -28.412,35.569 -26.659,35.569L0,35.569C8.056,35.569 14.61,29.014 14.61,20.959C14.61,12.903 8.056,6.349 0,6.349L-11.842,6.349C-13.596,6.349 -15.017,4.928 -15.017,3.174C-15.017,1.421 -13.596,0 -11.842,0L0,0C11.557,0 20.959,9.402 20.959,20.959C20.959,32.516 11.557,41.918 0,41.918" style="fill:rgb(150,201,61);fill-rule:nonzero;"/>
        </g>
        <g transform="matrix(1,0,0,1,367.233,367.271)">
            <path d="M0,41.918L-11.843,41.918C-23.399,41.918 -32.802,32.516 -32.802,20.959C-32.802,9.402 -23.399,0 -11.843,0L14.816,0C16.57,0 17.991,1.421 17.991,3.174C17.991,4.928 16.57,6.349 14.816,6.349L-11.843,6.349C-19.898,6.349 -26.452,12.903 -26.452,20.959C-26.452,29.014 -19.898,35.569 -11.843,35.569L0,35.569C1.753,35.569 3.175,36.99 3.175,38.743C3.175,40.497 1.753,41.918 0,41.918" style="fill:rgb(150,201,61);fill-rule:nonzero;"/>
        </g>
    </g>
</svg>
