<svg width="64" height="64" viewBox="0 0 64 64" fill="none" xmlns="http://www.w3.org/2000/svg">
<circle cx="32" cy="32" r="32" fill="#F2C3F0"/>
<path d="M46 28.5C46 25.0388 44.9737 21.6554 43.0507 18.7775C41.1278 15.8997 38.3947 13.6566 35.197 12.3321C31.9993 11.0076 28.4806 10.661 25.0859 11.3363C21.6913 12.0115 18.5731 13.6782 16.1256 16.1256C13.6782 18.5731 12.0115 21.6913 11.3363 25.0859C10.661 28.4806 11.0076 31.9993 12.3321 35.197C13.6566 38.3947 15.8997 41.1278 18.7775 43.0507C21.6554 44.9737 25.0388 46 28.5 46C33.1397 45.995 37.588 44.1496 40.8688 40.8688C44.1496 37.588 45.995 33.1397 46 28.5ZM42.936 27.0417H38.6667C38.5772 23.1149 37.5259 19.27 35.6049 15.8439C37.6362 16.9847 39.3628 18.5978 40.6389 20.5469C41.9149 22.496 42.7028 24.7237 42.936 27.0417ZM27.0417 14.2257V27.0417H21.2843C21.6167 20.7724 23.9963 15.5201 27.0417 14.2257ZM27.0417 29.9583V42.7743C23.9963 41.4799 21.6167 36.2276 21.2843 29.9583H27.0417ZM29.9583 42.7743V29.9583H35.7157C35.3833 36.2276 33.0037 41.4799 29.9583 42.7743ZM29.9583 27.0417V14.2257C33.0037 15.5201 35.3833 20.7724 35.7157 27.0417H29.9583ZM21.3951 15.8439C19.4741 19.27 18.4228 23.1149 18.3333 27.0417H14.064C14.2972 24.7237 15.0851 22.496 16.3611 20.5469C17.6372 18.5978 19.3638 16.9847 21.3951 15.8439ZM14.064 29.9583H18.3333C18.4228 33.8851 19.4741 37.7301 21.3951 41.1561C19.3638 40.0153 17.6372 38.4022 16.3611 36.4531C15.0851 34.504 14.2972 32.2763 14.064 29.9583ZM35.6049 41.1561C37.5259 37.7301 38.5772 33.8851 38.6667 29.9583H42.936C42.7028 32.2763 41.9149 34.504 40.6389 36.4531C39.3628 38.4022 37.6362 40.0153 35.6049 41.1561Z" fill="#BC73B9"/>
<path d="M30.9855 35.4185L28.7614 33.1944C28.4319 32.8649 27.8964 32.8649 27.5669 33.1944L19.2471 41.473C18.9176 41.8025 18.9176 42.338 19.2471 42.6675L27.5669 50.9873C27.8964 51.3168 28.4319 51.3168 28.7614 50.9873L30.9855 48.7632C31.315 48.4337 31.315 47.8982 30.9855 47.5687L25.5076 42.0908L30.9855 36.6129C31.315 36.2834 31.315 35.748 30.9855 35.4185Z" fill="#593F7A"/>
<path d="M57.8807 41.473L49.5609 33.1944C49.2314 32.8649 48.696 32.8649 48.3665 33.1944L46.1424 35.4185C45.8129 35.748 45.8129 36.2834 46.1424 36.6129L51.6203 42.0908L46.1424 47.5687C45.8129 47.8982 45.8129 48.4337 46.1424 48.7632L48.3665 50.9873C48.696 51.3168 49.2314 51.3168 49.5609 50.9873L57.8396 42.6675C58.2102 42.3791 58.2102 41.8025 57.8807 41.473Z" fill="#593F7A"/>
<path d="M43.0534 32H40.3762C40.0055 32 39.676 32.2471 39.5525 32.5766L33.2508 51.0285C33.0449 51.6051 33.4568 52.1817 34.0746 52.1817H36.7517C37.1224 52.1817 37.4519 51.9346 37.5755 51.6051L43.9183 33.1532C44.0831 32.5766 43.6712 32 43.0534 32Z" fill="#593F7A"/>
</svg>
