<svg width="64" height="64" viewBox="0 0 64 64" fill="none" xmlns="http://www.w3.org/2000/svg">
<path fill-rule="evenodd" clip-rule="evenodd" d="M18.0449 58.4629C18.2456 58.7494 18.5096 58.986 18.8184 59.1511C18.5608 58.9258 18.3042 58.6975 18.0449 58.4629" fill="#82D0EF"/>
<path fill-rule="evenodd" clip-rule="evenodd" d="M24.3389 36.5962L24.2422 36.8349L24.3394 36.5967L24.3389 36.5962M24.6914 35.7308L24.671 35.7806L24.6914 35.7308M24.672 33.877L24.4922 34.8796L24.672 33.8775C24.672 33.8775 24.672 33.8775 24.672 33.877" fill="#00A871"/>
<circle cx="32" cy="32" r="32" fill="#95F99F"/>
<path d="M20.9855 17.4185L18.7614 15.1944C18.4319 14.8649 17.8964 14.8649 17.5669 15.1944L9.24712 23.473C8.91763 23.8025 8.91763 24.338 9.24712 24.6675L17.5669 32.9873C17.8964 33.3168 18.4319 33.3168 18.7614 32.9873L20.9855 30.7632C21.315 30.4337 21.315 29.8982 20.9855 29.5687L15.5076 24.0908L20.9855 18.6129C21.315 18.2834 21.315 17.748 20.9855 17.4185Z" fill="#4CCA58"/>
<path d="M47.881 23.473L39.5612 15.1944C39.2317 14.8649 38.6962 14.8649 38.3667 15.1944L36.1426 17.4185C35.8131 17.748 35.8131 18.2834 36.1426 18.6129L41.6205 24.0908L36.1426 29.5687C35.8131 29.8982 35.8131 30.4337 36.1426 30.7632L38.3667 32.9873C38.6962 33.3168 39.2317 33.3168 39.5612 32.9873L47.8398 24.6675C48.2105 24.3791 48.2105 23.8025 47.881 23.473Z" fill="#4CCA58"/>
<path d="M33.0534 14H30.3762C30.0055 14 29.676 14.2471 29.5525 14.5766L23.2508 33.0285C23.0449 33.6051 23.4568 34.1817 24.0746 34.1817H26.7517C27.1224 34.1817 27.4519 33.9346 27.5755 33.6051L33.9183 15.1532C34.0831 14.5766 33.6712 14 33.0534 14Z" fill="#4CCA58"/>
<path d="M22.4948 30.8555L14.8555 38.4948C15.538 38.8973 16.1027 39.462 16.5052 40.1445L24.1445 32.5052C23.4632 32.1027 22.8973 31.5368 22.4948 30.8555Z" fill="white"/>
<path d="M50.4948 30.8555L42.8555 38.4948C43.538 38.8973 44.1027 39.462 44.5052 40.1445L52.1445 32.5052C51.4632 32.1027 50.8973 31.5368 50.4948 30.8555Z" fill="white"/>
<path d="M38.1445 38.4948L30.5052 30.8555C30.1027 31.538 29.538 32.1027 28.8555 32.5052L36.4948 40.1445C36.8973 39.4632 37.4632 38.8973 38.1445 38.4948Z" fill="white"/>
<path d="M12.5 39C10.5668 39 9 40.5668 9 42.5C9 44.4332 10.5668 46 12.5 46C14.4332 46 16 44.4332 16 42.5C16 40.5668 14.4332 39 12.5 39Z" fill="white"/>
<path d="M54.5 25C52.5668 25 51 26.5668 51 28.5C51 30.4332 52.5668 32 54.5 32C56.4332 32 58 30.4332 58 28.5C58 26.5668 56.4332 25 54.5 25Z" fill="white"/>
<path d="M26.5 25C24.5668 25 23 26.5668 23 28.5C23 30.4332 24.5668 32 26.5 32C28.4332 32 30 30.4332 30 28.5C30 26.5668 28.4332 25 26.5 25Z" fill="white"/>
<path d="M44 42.5C44 40.5668 42.4332 39 40.5 39C38.5668 39 37 40.5668 37 42.5C37 44.4332 38.5668 46 40.5 46C42.4332 46 44 44.4332 44 42.5Z" fill="white"/>
<path fill-rule="evenodd" clip-rule="evenodd" d="M26.5 31C27.8807 31 29 29.8807 29 28.5C29 27.1193 27.8807 26 26.5 26C25.1193 26 24 27.1193 24 28.5C24 29.8807 25.1193 31 26.5 31ZM26.5 33C28.9853 33 31 30.9853 31 28.5C31 26.0147 28.9853 24 26.5 24C24.0147 24 22 26.0147 22 28.5C22 30.9853 24.0147 33 26.5 33Z" fill="black"/>
<path fill-rule="evenodd" clip-rule="evenodd" d="M40.5 45C41.8807 45 43 43.8807 43 42.5C43 41.1193 41.8807 40 40.5 40C39.1193 40 38 41.1193 38 42.5C38 43.8807 39.1193 45 40.5 45ZM40.5 47C42.9853 47 45 44.9853 45 42.5C45 40.0147 42.9853 38 40.5 38C38.0147 38 36 40.0147 36 42.5C36 44.9853 38.0147 47 40.5 47Z" fill="black"/>
<path fill-rule="evenodd" clip-rule="evenodd" d="M54.5 30C55.8807 30 57 28.8807 57 27.5C57 26.1193 55.8807 25 54.5 25C53.1193 25 52 26.1193 52 27.5C52 28.8807 53.1193 30 54.5 30ZM54.5 32C56.9853 32 59 29.9853 59 27.5C59 25.0147 56.9853 23 54.5 23C52.0147 23 50 25.0147 50 27.5C50 29.9853 52.0147 32 54.5 32Z" fill="black"/>
<path fill-rule="evenodd" clip-rule="evenodd" d="M12.5 45C13.8807 45 15 43.8807 15 42.5C15 41.1193 13.8807 40 12.5 40C11.1193 40 10 41.1193 10 42.5C10 43.8807 11.1193 45 12.5 45ZM12.5 47C14.9853 47 17 44.9853 17 42.5C17 40.0147 14.9853 38 12.5 38C10.0147 38 8 40.0147 8 42.5C8 44.9853 10.0147 47 12.5 47Z" fill="black"/>
</svg>
