<svg width="64" height="64" viewBox="0 0 64 64" fill="none" xmlns="http://www.w3.org/2000/svg">
<circle cx="32" cy="32" r="32" fill="#C0CAFF"/>
<path fill-rule="evenodd" clip-rule="evenodd" d="M15.6364 14.5449C13.4273 14.5449 11.6364 16.3358 11.6364 18.5449V33.0721C11.6364 35.2812 13.4273 37.0721 15.6364 37.0721H16.8901L16.4848 43.1511L27.8323 37.0721H37.6968C39.9059 37.0721 41.6968 35.2812 41.6968 33.0721V18.5449C41.6968 16.3358 39.9059 14.5449 37.6968 14.5449H15.6364Z" fill="#8A9CFF"/>
<path d="M46.3885 34.7708C47.442 35.5712 47.442 37.1556 46.3885 37.956L37.8765 44.4223C36.5596 45.4227 34.6667 44.4835 34.6667 42.8297L34.6667 29.8971C34.6667 28.2433 36.5596 27.3041 37.8765 28.3045L46.3885 34.7708Z" fill="#3B4160"/>
<circle cx="39.2727" cy="36.3643" r="13.5303" stroke="#3B4160" stroke-width="3"/>
</svg>
