<svg width="64" height="64" viewBox="0 0 64 64" fill="none" xmlns="http://www.w3.org/2000/svg">
<circle cx="32" cy="32" r="32" fill="#CDF676"/>
<path d="M27 11.8858C30.094 10.0994 33.906 10.0994 37 11.8858L46.9186 17.6123C50.0126 19.3986 51.9186 22.6999 51.9186 26.2725V37.7255C51.9186 41.2982 50.0126 44.5994 46.9186 46.3858L37 52.1123C33.906 53.8986 30.094 53.8986 27 52.1123L17.0814 46.3858C13.9874 44.5994 12.0814 41.2982 12.0814 37.7255V26.2725C12.0814 22.6999 13.9874 19.3986 17.0814 17.6123L27 11.8858Z" fill="white"/>
<path d="M28.3588 25.6929C30.6121 24.3919 33.3883 24.3919 35.6416 25.6929C37.8949 26.9938 39.2829 29.3981 39.2829 31.9999C39.2829 34.6018 37.8949 37.0061 35.6416 38.307C33.3883 39.6079 30.6121 39.6079 28.3588 38.307C26.1055 37.0061 24.7174 34.6018 24.7174 31.9999C24.7174 29.3981 26.1055 26.9938 28.3588 25.6929Z" fill="white" stroke="#C4CED7"/>
<rect x="32" y="11.999" width="0.304636" height="40.78" fill="#C4CED7"/>
<rect width="0.2803" height="41.2041" transform="matrix(0.492445 0.870343 -0.870344 0.492444 49.8613 21.7334)" fill="#C4CED7"/>
<rect width="0.2803" height="41.2041" transform="matrix(-0.492445 0.870343 0.870344 0.492445 14.1387 21.7334)" fill="#C4CED7"/>
<path d="M31.8481 32.151V12.959L51.3448 21.0318L31.8481 32.151Z" fill="#0AE079"/>
<path d="M18.4443 24.3828L32.0006 12.959V31.9987L18.4443 24.3828Z" fill="#54F4A7"/>
<path d="M21.4907 37.9411L18.4443 24.3848L32.0006 32.0007L21.4907 37.9411Z" fill="#0AE079"/>
<path d="M31.9999 47.6876V31.5566L21.6423 37.787L31.9999 47.6876Z" fill="#54F4A7"/>
<path d="M32 47.3831V31.999L39.1589 36.1116L32 47.3831Z" fill="#0AE079"/>
<path d="M50 21.499L32 32.0001L39.0769 36.202L50 21.499Z" fill="#54F4A7"/>
<path fill-rule="evenodd" clip-rule="evenodd" d="M45.9186 19.3452L36 13.6187C33.5248 12.1896 30.4752 12.1896 28 13.6187L18.0814 19.3452C15.6062 20.7742 14.0814 23.4152 14.0814 26.2734V37.7264C14.0814 40.5845 15.6062 43.2255 18.0814 44.6546L28 50.3811C30.4752 51.8101 33.5248 51.8101 36 50.3811L45.9186 44.6546C48.3938 43.2255 49.9186 40.5845 49.9186 37.7264V26.2734C49.9186 23.4152 48.3938 20.7742 45.9186 19.3452ZM37 11.8866C33.906 10.1003 30.094 10.1003 27 11.8866L17.0814 17.6131C13.9874 19.3994 12.0814 22.7007 12.0814 26.2734V37.7264C12.0814 41.299 13.9874 44.6003 17.0814 46.3866L27 52.1131C30.094 53.8994 33.906 53.8994 37 52.1131L46.9186 46.3866C50.0126 44.6003 51.9186 41.299 51.9186 37.7264V26.2734C51.9186 22.7007 50.0126 19.3994 46.9186 17.6131L37 11.8866Z" fill="#3B4160"/>
</svg>
