<svg width="64" height="64" viewBox="0 0 64 64" fill="none" xmlns="http://www.w3.org/2000/svg">
<circle cx="32" cy="32" r="32" fill="#8BE3FF"/>
<path fill-rule="evenodd" clip-rule="evenodd" d="M23 10H40V46H13V20L23 10ZM29 34.5C29 33.1193 30.1193 32 31.5 32H33.5C34.8807 32 36 33.1193 36 34.5C36 35.8807 34.8807 37 33.5 37H31.5C30.1193 37 29 35.8807 29 34.5ZM22.2 23.5L24.1578 27L31.8 20L35 23.5L24.1578 34L19 26.5673L22.2 23.5Z" fill="#E9FAFF"/>
<path d="M23 10L13 20H23V10Z" fill="#F9FEFF"/>
<path d="M54.1939 29.2838L49.3099 27.9752L45.4396 30.2097L44.1309 35.0937L31.7457 42.2444L26.8617 40.9357L22.9913 43.1703L21.6826 48.0543L25.553 45.8197L29.6629 47.5753L29.1283 52.0124L25.2579 54.2469L30.1419 55.5556L34.0123 53.321L35.321 48.437L47.7062 41.2864L52.5902 42.595L56.4605 40.3604L57.7692 35.4765L53.8988 37.711L49.7889 35.9555L50.3235 31.5184L54.1939 29.2838Z" fill="#394A5F" fill-opacity="0.48"/>
<path fill-rule="evenodd" clip-rule="evenodd" d="M56.7837 28.9436L51.2556 32.1353L50.8705 35.3313L53.8309 36.5959L59.3591 33.4042L57.3183 41.0202L52.7305 43.669L47.8466 42.3604L36.1787 49.0968L34.8701 53.9808L30.2823 56.6296L22.6662 54.5888L28.1944 51.3972L28.5794 48.2011L25.6191 46.9366L20.0909 50.1283L22.1316 42.5122L26.7195 39.8634L31.6034 41.1721L43.2712 34.4357L44.5799 29.5517L49.1677 26.9029L56.7837 28.9436ZM49.4503 29.0492L46.2973 30.8695L44.9887 35.7535L31.886 43.3184L27.002 42.0097L23.8491 43.8301L23.2725 45.982L25.4851 44.7045L30.7445 46.9511L30.0604 52.6292L27.8478 53.9067L29.9997 54.4833L33.1526 52.6629L34.4613 47.7789L47.564 40.2141L52.448 41.5227L55.6009 39.7024L56.1775 37.5505L53.9649 38.8279L48.7055 36.5813L49.3896 30.9032L51.6022 29.6258L49.4503 29.0492Z" fill="#394A5F"/>
</svg>
